<svg xmlns="http://www.w3.org/2000/svg" xmlns:xlink="http://www.w3.org/1999/xlink" fill="none" version="1.1" width="512" height="512" viewBox="0 0 512 512"><defs><clipPath id="master_svg0_9_158"><rect x="0" y="0" width="512" height="512" rx="0"/></clipPath></defs><g clip-path="url(#master_svg0_9_158)"><g><path d="M0,0C168.96,0,337.92,0,512,0C512,168.96,512,337.92,512,512C343.04,512,174.08,512,0,512C0,343.04,0,174.08,0,0Z" fill="#FDFDFD" fill-opacity="1" style="mix-blend-mode:passthrough"/></g><g><path d="M376.1322749511719,193.87974548339844C377.5412749511719,193.88307640339843,377.5412749511719,193.88307640339843,378.9787749511719,193.88647461339843C380.03977495117186,193.88655014339844,381.1007749511719,193.88662567339844,382.19397495117187,193.88670349339844C383.92517495117187,193.89444538339845,383.92517495117187,193.89444538339845,385.6913749511719,193.90234378339844C386.86637495117185,193.90375868339845,388.04137495117186,193.90517368339843,389.2518749511719,193.90663148339843C393.0221749511719,193.91225008339845,396.79227495117186,193.92480578339843,400.56247495117185,193.93749998339842C403.1112749511719,193.94251258339844,405.6601749511719,193.94707588339844,408.20897495117185,193.95117188339844C414.4726749511719,193.96222558339844,420.7362749511719,193.97898178339844,426.9999749511719,194.00000048339842C430.2454749511719,201.78689548339844,433.47547495117186,209.57974548339843,436.68107495117187,217.38314548339844C438.2258749511719,221.13884548339843,439.7964749511719,224.88224548339844,441.39057495117186,228.61714548339845C442.03207495117186,230.16114548339843,442.67277495117185,231.70534548339845,443.3124749511719,233.25004548339842C443.6077749511719,233.91954548339845,443.9030749511719,234.58904548339842,444.2072749511719,235.27884548339844C445.61087495117187,238.73714548339842,446.1218749511719,241.39994548339843,445.5955749511719,245.03654548339844C444.9119749511719,250.42334548339844,444.6798749511719,255.78754548339845,444.4823749511719,261.21144548339845C444.42067495117186,262.83464548339845,444.42067495117186,262.83464548339845,444.3576749511719,264.49064548339845C443.9164749511719,276.53814548339847,443.63537495117185,288.58924548339843,443.3691749511719,300.64174548339844C443.27877495117184,304.72974548339846,443.1852749511719,308.8177454833984,443.0908749511719,312.90574548339845C442.8405749511719,323.77174548339843,442.5946749511719,334.6377454833985,442.35157495117187,345.5027454833984C442.1906749511719,352.69674548339844,442.02757495117186,359.8897454833984,441.8604749511719,367.08374548339845C441.7817749511719,370.47774548339845,441.70447495117185,373.8717454833984,441.63067495117184,377.26674548339844C441.54817495117186,381.03774548339845,441.4610749511719,384.80974548339844,441.37297495117184,388.58174548339844C441.3501749511719,389.6807454833984,441.3272749511719,390.78074548339845,441.30367495117184,391.91274548339845C440.8005749511719,412.6807454833984,440.8005749511719,412.6807454833984,435.9999749511719,417.99974548339844C430.8254749511719,421.9887454833985,427.1297749511719,423.1087454833985,420.71577495117185,423.17674548339846C419.13327495117187,423.19674548339844,419.13327495117187,423.19674548339844,417.5188749511719,423.21574548339845C415.8156749511719,423.2267454833984,415.8156749511719,423.2267454833984,414.07807495117186,423.2387454833985C412.90417495117185,423.2467454833984,411.7301749511719,423.25474548339844,410.5206749511719,423.2627454833985C408.0358749511719,423.27674548339843,405.5511749511719,423.28774548339845,403.0663749511719,423.2947454833984C399.27827495117185,423.31274548339843,395.4909749511719,423.3567454833984,391.70307495117186,423.4007454833984C389.2864749511719,423.41074548339844,386.86977495117185,423.4187454833984,384.45307495117186,423.42574548339843C383.32577495117187,423.4437454833984,382.1983749511719,423.46074548339845,381.03687495117185,423.4787454833984C373.1143749511719,423.45674548339844,367.4397749511719,422.43974548339844,361.62497495117185,416.62474548339844C358.59608495117186,411.7317454833984,357.7489749511719,407.19974548339843,357.65662495117186,401.49974548339844C357.6312649511719,400.2097454833985,357.60590495117185,398.9197454833984,357.5797749511719,397.5917454833984C357.56159495117186,396.1747454833984,357.54362495117186,394.7577454833984,357.5258549511719,393.34074548339845C357.50012495117187,391.83874548339844,357.4736149511719,390.33674548339843,357.44638495117186,388.8347454833985C357.37535495117186,384.7647454833984,357.3167849511719,380.69474548339844,357.2616049511719,376.62374548339847C357.2265249511719,374.07674548339844,357.1887849511719,371.53074548339845,357.1501049511719,368.9837454833985C357.01510495117185,360.0897454833985,356.8903349511719,351.19574548339847,356.77487495117185,342.30074548339843C356.6671949511719,334.02674548339843,356.53695895117187,325.7527454833984,356.39619795117187,317.4787454833984C356.2761439511719,310.3617454833984,356.17211295117187,303.24474548339845,356.08034495117187,296.1277454833984C356.0253329511719,291.8830454833984,355.96394495117187,287.63854548339845,355.88631395117187,283.39404548339843C355.81377595117186,279.39854548339844,355.76130095117185,275.4031454833984,355.7237589511719,271.40714548339844C355.7067165511719,269.9470454833984,355.68272975117185,268.4869454833985,355.6509857511719,267.02714548339844C355.4698389511719,258.47564548339847,355.9977279511719,251.65814548339844,359.99997495117185,244.00004548339842C361.1343449511719,244.27714548339844,362.26872495117186,244.55434548339844,363.43747495117185,244.83984548339845C364.95825495117185,245.20594548339844,366.47907495117187,245.57184548339845,367.99997495117185,245.93754548339842C369.11567495117185,246.21114548339844,369.11567495117185,246.21114548339844,370.2538749511719,246.49024548339844C389.6743749511719,251.13424548339844,410.58537495117184,250.21014548339843,429.9999749511719,246.00004548339842C431.66637495117186,245.66544548339843,433.3329749511719,245.33144548339845,434.9999749511719,245.00004548339842C434.0099749511719,242.03004548339845,433.0199749511719,239.06004548339843,431.9999749511719,236.00004548339842C431.08347495117187,236.21654548339842,430.1669749511719,236.43314548339845,429.2226749511719,236.65624548339844C418.50837495117185,238.91974548339843,407.91007495117185,239.31004548339843,396.99997495117185,239.31254548339842C396.28527495117186,239.31574548339844,395.57057495117186,239.31894548339844,394.8342749511719,239.32224548339843C383.8748749511719,239.35244548339844,373.9869749511719,238.77644548339845,363.99997495117185,234.00004548339842C364.06247495117185,232.18754548339842,364.06247495117185,232.18754548339842,364.99997495117185,230.00004548339842C374.89867495117187,224.28074548339845,387.3555749511719,224.67994548339843,398.43747495117185,224.75004548339842C400.26757495117187,224.73844548339844,400.26757495117187,224.73844548339844,402.1347749511719,224.72654548339844C421.5355749511719,224.76784548339845,421.5355749511719,224.76784548339845,427.9999749511719,228.00004548339842C427.4198749511719,226.65804548339844,427.4198749511719,226.65804548339844,426.82807495117186,225.28904548339844C426.04687495117184,223.47534548339843,426.04687495117184,223.47534548339843,425.2499749511719,221.62504548339842C424.73947495117187,220.44164548339845,424.22907495117187,219.25824548339844,423.70307495117186,218.03904548339844C421.7405749511719,213.38484548339844,419.8758749511719,208.68984548339844,417.99997495117185,204.00004548339842C402.48997495117186,203.66999548339845,386.97997495117187,203.33999548339844,370.99997495117185,202.99999548339844C373.23927495117186,194.04290148339842,373.23927495117186,194.04290148339842,376.1322749511719,193.87974548339844Z" fill="#1A1919" fill-opacity="1" style="mix-blend-mode:passthrough"/></g><g><path d="M154.48051391601564,324.35304010117187C156.02231391601563,324.34625270117186,157.56421391601563,324.33734320117185,159.10611391601563,324.3264898011719C163.26741391601564,324.30382322117185,167.42811391601563,324.3124798941719,171.58941391601562,324.3283852011719C175.95961391601563,324.3411102011719,180.32971391601563,324.3292859011719,184.69991391601565,324.3214544011719C192.03671391601563,324.31237695317185,199.37321391601563,324.3242955011719,206.70991391601564,324.34815730117185C215.17281391601563,324.3753650011719,223.6355139160156,324.3665495011719,232.09751391601563,324.3390253011719C239.38451391601564,324.31628067117185,246.6715139160156,324.31316014117186,253.95851391601562,324.3262186011719C258.30151391601567,324.3339838011719,262.6445139160156,324.3351359011719,266.9875139160156,324.3185361511719C271.0725139160156,324.3040123811719,275.1555139160156,324.3142557111719,279.24051391601563,324.34300740117186C280.7325139160156,324.34957630117185,282.22451391601567,324.34779300117185,283.7175139160156,324.3366941011719C292.32651391601564,324.2785981011719,299.8345139160156,324.7018632011719,306.99951391601564,330.0000112011719C309.3345139160156,332.5106712011719,311.2625139160156,335.0465812011719,312.99951391601564,337.99998120117186C313.3475139160156,338.5902812011719,313.6955139160156,339.18048120117186,314.0545139160156,339.7885812011719C315.1925139160156,342.44998120117185,315.2675139160156,344.45588120117185,315.2905139160156,347.3476812011719C315.3035139160156,348.4155812011719,315.31651391601565,349.48348120117186,315.3295139160156,350.58378120117186C315.33151391601564,351.7317812011719,315.3335139160156,352.87978120117185,315.33551391601566,354.06248120117186C315.34551391601565,355.8376812011719,315.34551391601565,355.8376812011719,315.3565139160156,357.6486812011719C315.3665139160156,360.1501812011719,315.3705139160156,362.65178120117184,315.3705139160156,365.1533812011719C315.37451391601564,368.98548120117186,315.4115139160156,372.8164812011719,315.44951391601563,376.6484812011719C315.45551391601566,379.0781812011719,315.4595139160156,381.5077812011719,315.46051391601566,383.93748120117186C315.47551391601564,385.0854812011719,315.48951391601565,386.23348120117186,315.50451391601564,387.4162812011719C315.4985139160156,388.48418120117185,315.49251391601564,389.55208120117186,315.48551391601563,390.65238120117186C315.4885139160156,391.5906812011719,315.4915139160156,392.5290812011719,315.49451391601565,393.49588120117187C314.84851391601563,396.7695812011719,313.5725139160156,397.93908120117186,310.99951391601564,399.99998120117186C307.4385139160156,401.18708120117185,304.60051391601564,401.13198120117187,300.8395139160156,401.1404812011719C299.7385139160156,401.14488120117187,299.7385139160156,401.14488120117187,298.61451391601565,401.14948120117185C296.14851391601565,401.1581812011719,293.68151391601566,401.1596812011719,291.21551391601565,401.16118120117187C289.44951391601563,401.16578120117185,287.6835139160156,401.17078120117185,285.9185139160156,401.17618120117186C281.1165139160156,401.18928120117187,276.3145139160156,401.1957812011719,271.51351391601565,401.20018120117186C268.51451391601563,401.2031812011719,265.5155139160156,401.2072812011719,262.5175139160156,401.21168120117187C253.13851391601563,401.2253812011719,243.7605139160156,401.23508120117185,234.38151391601562,401.23888120117186C223.54851391601562,401.24338120117187,212.71581391601563,401.2609812011719,201.8828139160156,401.28988120117185C193.51331391601562,401.3114812011719,185.1439139160156,401.32158120117185,176.77431391601561,401.32298120117184C171.77361391601562,401.3239812011719,166.77291391601563,401.3299812011719,161.77221391601563,401.34778120117187C157.06901391601562,401.36418120117185,152.36611391601562,401.36638120117186,147.6629139160156,401.35758120117185C145.93631391601562,401.35688120117186,144.20981391601563,401.36118120117186,142.48321391601561,401.3710812011719C140.12671391601563,401.38378120117187,137.77101391601562,401.3779812011719,135.41461391601564,401.36748120117187C133.43631391601562,401.3696812011719,133.43631391601562,401.3696812011719,131.41801391601564,401.3719812011719C127.77655391601563,400.9756812011719,125.90225391601562,400.1855812011719,123.00000391601563,397.99998120117186C120.97705491601562,395.0598812011719,120.74097791601562,392.62088120117187,120.70947291601563,389.0988812011719C120.69671291601563,388.1271812011719,120.68395191601563,387.1554812011719,120.67080691601562,386.1543812011719C120.66858291601562,385.10958120117186,120.66635491601562,384.06478120117185,120.66406291601562,382.98828120117184C120.65740591601562,381.9054812011719,120.65074891601563,380.82268120117186,120.64388991601562,379.7070812011719C120.63376591601562,377.41488120117185,120.62907391601563,375.1225812011719,120.62939491601563,372.83038120117186C120.62503791601563,369.3427812011719,120.58876041601563,365.85648120117185,120.55078121601562,362.3691812011719C120.54491041601563,360.1380812011719,120.54094311601563,357.90688120117187,120.53906251601562,355.6757812011719C120.52469251601562,354.64108120117186,120.51031871601562,353.60638120117187,120.49551391601562,352.5403812011719C120.54520031601562,344.56678120117186,122.61050391601563,339.0437812011719,126.62500391601563,332.2500112011719C134.72471391601562,324.5765842011719,143.90021391601562,324.27434570117185,154.48051391601564,324.35304010117187Z" fill="#191919" fill-opacity="1" style="mix-blend-mode:passthrough"/></g><g><path d="M214.00003588867187,164C236.77003588867188,164,259.54003588867187,164,283.00003588867185,164C286.62953588867185,174.23,290.25953588867185,184.46,293.99953588867186,195C295.9795358886719,199.95,297.9595358886719,204.9,299.99953588867186,210C299.99953588867186,210.99,299.99953588867186,211.98,299.99953588867186,213C299.19153588867186,213.3635,298.3835358886719,213.727,297.5505358886719,214.1016C287.6575358886719,218.7551,287.6575358886719,218.7551,281.8964358886719,227.6958C280.8690358886719,231.4829,280.72103588867185,234.9783,280.78123588867186,238.8672C280.78753588867187,239.64069999999998,280.7937358886719,240.4142,280.8001358886719,241.21120000000002C280.9536358886719,251.8672,281.76083588867186,262.4971,282.50003588867185,273.125C283.42273588867187,286.438,284.2646358886719,299.65,284.00003588867185,313C281.35683588867187,310.36699999999996,278.7213358886719,307.733,276.1601358886719,305.02C268.7294358886719,297.275,260.9962358886719,290.843,252.00003588867187,285C251.06023588867185,284.376,250.1205358886719,283.752,249.15233588867187,283.109C229.89363588867187,271.08299999999997,208.30563588867187,266.122,186.00000378867188,264C185.73047788867189,257.3094,186.71698988867186,251.28109999999998,188.12500588867186,244.75C188.35236588867187,243.6886,188.57972588867187,242.62720000000002,188.81396588867187,241.5337C192.46562588867187,224.9359,197.90903588867187,209.1215,203.86573588867188,193.2319C207.4919358886719,183.5443,210.72123588867188,173.83633,214.00003588867187,164Z" fill="#171616" fill-opacity="1" style="mix-blend-mode:passthrough"/></g><g><path d="M376.1323376953125,193.87974548339844C377.5413376953125,193.88307640339843,377.5413376953125,193.88307640339843,378.9787376953125,193.88647461339843C380.0397376953125,193.88655014339844,381.1007376953125,193.88662567339844,382.1939376953125,193.88670349339844C383.9251376953125,193.89444538339845,383.9251376953125,193.89444538339845,385.6913376953125,193.90234378339844C386.8663376953125,193.90375868339845,388.0413376953125,193.90517368339843,389.2519376953125,193.90663148339843C393.0221376953125,193.91225008339845,396.7922376953125,193.92480578339843,400.5624376953125,193.93749998339842C403.1113376953125,193.94251258339844,405.6601376953125,193.94707588339844,408.2089376953125,193.95117188339844C414.4726376953125,193.96222558339844,420.7363376953125,193.97898178339844,426.9999376953125,194.00000048339842C430.2454376953125,201.78689548339844,433.4755376953125,209.57974548339843,436.6810376953125,217.38314548339844C438.2258376953125,221.13884548339843,439.79643769531253,224.88224548339844,441.39063769531253,228.61714548339845C442.0320376953125,230.16114548339843,442.6727376953125,231.70534548339845,443.3124376953125,233.25004548339842C443.6077376953125,233.91954548339845,443.9030376953125,234.58904548339842,444.20723769531253,235.27884548339844C445.6187376953125,238.75644548339844,446.1191376953125,241.42864548339844,445.5942376953125,245.08524548339844C444.9463376953125,250.20054548339843,444.69363769531253,255.28294548339844,444.5038376953125,260.43354548339846C444.4634376953125,261.48704548339845,444.4230376953125,262.54044548339846,444.3814376953125,263.62584548339845C443.7657376953125,280.50064548339844,443.4052376953125,297.38374548339846,443.00413769531247,314.2647454833984C442.8916376953125,318.98574548339843,442.7767376953125,323.70674548339844,442.6620376953125,328.42774548339844C442.4392376953125,337.61874548339847,442.2187376953125,346.8087454833984,441.9999376953125,355.99974548339844C441.6699376953125,355.99974548339844,441.3399376953125,355.99974548339844,440.9999376953125,355.99974548339844C440.6699376953125,349.72974548339846,440.3399376953125,343.4597454833985,439.9999376953125,336.99974548339844C438.3499376953125,336.99974548339844,436.6999376953125,336.99974548339844,434.9999376953125,336.99974548339844C434.6699376953125,337.6597454833984,434.3399376953125,338.31974548339844,433.9999376953125,338.99974548339844C433.9252376953125,338.27274548339847,433.8504376953125,337.54574548339843,433.7734376953125,336.79674548339847C432.3729376953125,326.0877454833984,428.9401376953125,316.2647454833984,420.2148376953125,309.39874548339844C412.3317376953125,304.42074548339843,402.8911376953125,301.56974548339844,393.6093376953125,303.4957454833984C383.8230376953125,306.15274548339846,377.0239376953125,310.8107454833984,370.9999376953125,318.99974548339844C370.6570376953125,319.70374548339845,370.3142376953125,320.40774548339846,369.9609376953125,321.1327454833984C368.5692376953125,323.83674548339843,366.6947376953125,324.71974548339847,363.9999676953125,325.99974548339844C361.9999676953125,324.99974548339844,361.9999676953125,324.99974548339844,358.9999676953125,322.99974548339844C354.9306826953125,310.7917454833985,356.5986116953125,294.7417454833984,356.2775596953125,281.9799454833984C356.2172046953125,279.73234548339843,356.1481096953125,277.4849454833984,356.0705276953125,275.23774548339844C355.9575026953125,271.94264548339845,355.8723566953125,268.64774548339847,355.7929396953125,265.35154548339847C355.7535590953125,264.3596454833984,355.7141761953125,263.36784548339847,355.6736011553125,262.3458454833984C355.5489766953125,255.43024548339844,356.9848776953125,250.21424548339843,359.9999676953125,244.00004548339842C361.1343476953125,244.27714548339844,362.2687176953125,244.55434548339844,363.4374676953125,244.83984548339845C364.9582476953125,245.20594548339844,366.4790376953125,245.57184548339845,367.9999376953125,245.93754548339842C369.1156376953125,246.21114548339844,369.1156376953125,246.21114548339844,370.2538376953125,246.49024548339844C389.6744376953125,251.13424548339844,410.5854376953125,250.21014548339843,429.9999376953125,246.00004548339842C431.6663376953125,245.66544548339843,433.33293769531247,245.33144548339845,434.9999376953125,245.00004548339842C434.0099376953125,242.03004548339845,433.0199376953125,239.06004548339843,431.9999376953125,236.00004548339842C431.0834376953125,236.21654548339842,430.1669376953125,236.43314548339845,429.2226376953125,236.65624548339844C418.5084376953125,238.91974548339843,407.9100376953125,239.31004548339843,396.9999376953125,239.31254548339842C396.2852376953125,239.31574548339844,395.5705376953125,239.31894548339844,394.8342376953125,239.32224548339843C383.8749376953125,239.35244548339844,373.9870376953125,238.77644548339845,363.9999676953125,234.00004548339842C364.0624676953125,232.18754548339842,364.0624676953125,232.18754548339842,364.9999676953125,230.00004548339842C374.8986376953125,224.28074548339845,387.3556376953125,224.67994548339843,398.4374376953125,224.75004548339842C400.2676376953125,224.73844548339844,400.2676376953125,224.73844548339844,402.1347376953125,224.72654548339844C421.5356376953125,224.76784548339845,421.5356376953125,224.76784548339845,427.9999376953125,228.00004548339842C427.4199376953125,226.65804548339844,427.4199376953125,226.65804548339844,426.82813769531253,225.28904548339844C426.0469376953125,223.47534548339843,426.0469376953125,223.47534548339843,425.2499376953125,221.62504548339842C424.7395376953125,220.44164548339845,424.2290376953125,219.25824548339844,423.70313769531253,218.03904548339844C421.74053769531247,213.38484548339844,419.8759376953125,208.68984548339844,417.9999376953125,204.00004548339842C402.4899376953125,203.66999548339845,386.9799376953125,203.33999548339844,370.9999376953125,202.99999548339844C373.2392376953125,194.04290148339842,373.2392376953125,194.04290148339842,376.1323376953125,193.87974548339844Z" fill="#171717" fill-opacity="1" style="mix-blend-mode:passthrough"/></g><g><path d="M72.00000313232422,149C76.55556313232422,149.555556,76.55556313232422,149.555556,78.00000313232422,151C78.16017313232422,153.80977000000001,78.25951313232422,156.59774,78.31641313232421,159.4102C78.33719313232422,160.2522,78.35797313232422,161.0942,78.37938313232422,161.9618C78.44497313232422,164.6619,78.50380313232422,167.3622,78.56250313232422,170.0625C78.60568313232422,171.8887,78.64929313232422,173.7149,78.69336313232422,175.541C78.80066313232422,180.0272,78.90190313232422,184.5136,79.00000313232422,189C80.94607313232422,189.5907,80.94607313232422,189.5907,82.99997313232421,190C85.03897313232422,187.961,84.18517313232422,183.721,84.21097313232421,180.9141C84.23897313232422,179.2448,84.26767313232422,177.5755,84.29687313232422,175.9062C84.33817313232421,173.264,84.37507313232422,170.6219,84.40137313232422,167.9795C84.42897313232422,165.4365,84.47477313232422,162.8943,84.52347313232421,160.3516C84.52667313232422,159.5609,84.52997313232422,158.77014,84.53327313232421,157.95547C84.65587313232422,152.502,84.65587313232422,152.502,86.39697313232422,149.962402C87.99997313232421,149,87.99997313232421,149,90.12497313232421,149.25C91.99997313232421,150,91.99997313232421,150,92.99997313232421,151C93.14777313232422,153.71367,93.23507313232422,156.40514,93.28127313232422,159.1211C93.30887313232422,160.3437,93.30887313232422,160.3437,93.33707313232422,161.5911C93.39597313232422,164.2065,93.44867313232422,166.8219,93.49997313232421,169.4375C93.56757313232421,172.8738,93.64127313232422,176.31,93.71877313232422,179.7461C93.73237313232423,180.542,93.74587313232422,181.33780000000002,93.75987313232422,182.1578C93.76157313232422,186.2105,93.76157313232422,186.2105,94.99997313232421,190C97.47497313232422,189.505,97.47497313232422,189.505,99.99997313232421,189C100.01977313232422,187.8593,100.03967313232422,186.7187,100.06007313232422,185.5435C100.13597313232421,181.3202,100.22477313232422,177.0974,100.31737313232422,172.8745C100.35567313232423,171.0452,100.39057313232422,169.2157,100.42187313232422,167.3862C100.46747313232422,164.7598,100.52547313232422,162.1339,100.58597313232423,159.5078C100.60327313232422,158.27649,100.60327313232422,158.27649,100.62097313232422,157.02029C100.77227313232422,151.22774,100.77227313232422,151.22774,102.99997313232421,149C107.55557313232421,149.555556,107.55557313232421,149.555556,108.99997313232421,151C109.10977313232422,152.95151,109.14907313232422,154.90701,109.16117313232422,156.86157C109.17077313232423,158.117,109.18037313232422,159.3724,109.19027313232422,160.6659C109.19507313232421,162.0494,109.19937313232421,163.4329,109.20317313232422,164.8164C109.20887313232421,166.2307,109.21467313232422,167.645,109.22037313232423,169.0593C109.23097313232421,172.0328,109.23677313232422,175.0062,109.24027313232422,177.9797C109.24567313232421,181.7737,109.26967313232421,185.5672,109.29817313232422,189.3611C109.31697313232422,192.2875,109.32207313232422,195.2138,109.32357313232421,198.1403C109.32657313232423,199.5376,109.33457313232421,200.9349,109.34777313232422,202.3322C109.49407313232422,219.02859999999998,109.49407313232422,219.02859999999998,103.97677313232421,225.2996C103.27417313232422,225.9264,102.57157313232422,226.55329999999998,101.84767313232422,227.19920000000002C97.57177313232421,231.78449999999998,97.12977313232422,235.1723,97.24607313232423,241.3252C97.30927313232422,242.476,97.37247313232422,243.6268,97.43747313232421,244.8125C97.48777313232422,246.6335,97.48777313232422,246.6335,97.53907313232422,248.4912C97.65367313232422,252.32999999999998,97.82477313232422,256.164,97.99997313232421,260C98.08817313232421,262.499,98.17287313232421,264.997,98.25387313232422,267.496C98.66587313232422,280.21500000000003,98.66587313232422,280.21500000000003,99.27737313232421,292.926C99.63337313232422,300.697,98.75417313232421,305.9,94.53127313232422,312.543C87.21907313232421,324.276,88.03387313232422,339.02,90.83597313232423,351.996C94.01317313232423,363.906,101.27897313232421,376.279,109.99997313232421,385C110.04077313232422,387,110.04257313232422,389,109.99997313232421,391C108.87407313232421,390.043,107.74937313232422,389.084,106.62497313232421,388.125C105.99847313232422,387.591,105.37207313232422,387.058,104.72657313232422,386.50800000000004C103.44167313232421,385.38599999999997,102.20627313232421,384.206,100.99997313232421,383C100.97417313232421,383.869,100.94847313232421,384.738,100.92187313232422,385.63300000000004C100.33567313232422,397.544,100.33567313232422,397.544,95.99997313232421,402C93.08647313232422,403.76300000000003,91.40197313232422,404.00800000000004,87.99997313232421,403.938C84.08807313232421,402.71500000000003,82.56247313232421,401.193,79.99997313232421,398C79.52352313232421,395.202,79.35274313232422,393.023,79.41650313232422,390.236C79.41419313232421,389.466,79.41188313232422,388.697,79.40949313232422,387.904C79.40793313232422,385.35,79.44207313232423,382.799,79.47656313232422,380.246C79.48303313232422,378.44399999999996,79.48738313232423,376.64300000000003,79.48972313232422,374.841C79.50240313232422,370.03200000000004,79.54627313232422,365.224,79.59677313232422,360.416C79.64377313232421,355.454,79.66257313232421,350.49199999999996,79.68557313232422,345.53C79.78877313232422,325.976,80.00537313232422,306.423,80.49997313232421,286.875C80.52047313232421,286.044,80.54097313232421,285.21299999999997,80.56207313232422,284.35699999999997C80.73967313232421,277.206,80.92587313232421,270.055,81.17627313232421,262.906C81.32237313232422,258.671,81.42777313232422,254.436,81.50687313232422,250.199C81.54317313232421,248.6431,81.59367313232421,247.0874,81.66067313232422,245.5324C82.16727313232423,237.0485,82.16727313232423,237.0485,79.28467313232422,229.27100000000002C77.23050313232422,226.9477,77.23050313232422,226.9477,75.02319313232422,225.09640000000002C68.52425313232422,218.3622,69.57428523232421,209.9498,69.63672213232422,201.168C69.63724133232422,199.7254,69.63672113232421,198.28289999999998,69.63521143232421,196.8404C69.63530083232422,193.8304,69.64565913232421,190.8207,69.66382213232421,187.8108C69.68661013232422,183.9492,69.68703113232422,180.088,69.68030413232422,176.2264C69.67696813232422,173.2539,69.68358513232423,170.2815,69.69343313232422,167.309C69.69728513232423,165.8844,69.69843413232422,164.4598,69.69684713232422,163.0352C69.69647813232422,161.0511,69.71055313232422,159.0669,69.72534513232422,157.08276C69.73225613232422,155.38902,69.73225613232422,155.38902,69.73930713232421,153.66106C70.00000313232422,151,70.00000313232422,151,72.00000313232422,149Z" fill="#191819" fill-opacity="1" style="mix-blend-mode:passthrough"/></g><g><path d="M163.6893,145.16925C174.7742,153.12149,179.3601,164.4197,181.7376,177.5347C184.4048,195.0309,184.5632,215.7116,174.4236,230.9828C172.44060000000002,233.3813,170.5294,234.6676,167.91219999999998,236.3238C165.2693,238.33589999999998,163.808,239.4828,162.7727,242.6646C162.5247,245.548,162.55,248.305,162.68540000000002,251.197C162.6981,252.23000000000002,162.7108,253.263,162.724,254.328C162.7741,257.611,162.887,260.88800000000003,163.0018,264.169C163.0469,266.402,163.088,268.634,163.1248,270.867C163.22379999999998,276.324,163.3741,281.777,163.5643,287.23199999999997C160.9419,288.095,158.3169,288.948,155.6893,289.794C154.5697,290.16499999999996,154.5697,290.16499999999996,153.4276,290.54200000000003C147.7908,292.345,147.7908,292.345,145.5643,291.23199999999997C145.6097,289.98,145.6097,289.98,145.6561,288.703C145.9232,281.23400000000004,146.16219999999998,273.764,146.3699,266.293C146.4894,262.179,146.673,258.075,146.9119,253.966C147.6339,245.534,147.6339,245.534,144.9901,237.8177C142.9809,236.066,142.9809,236.066,140.7322,234.7083C133.66296,229.8936,131.14138,220.1879,129.56428,212.23180000000002C126.35717,194.4984,127.660316,170.7706,137.43928,155.2317C144.1661,145.9739,152.3647,141.77188,163.6893,145.16925Z" fill="#181718" fill-opacity="1" style="mix-blend-mode:passthrough"/></g><g><path d="M257.6872553710938,304.74999365234373C261.4182553710938,307.59949365234377,264.70125537109374,310.6646936523438,268.0002553710938,313.99999365234373C267.34525537109374,314.00149365234375,266.6902553710937,314.00289365234374,266.01625537109373,314.00449365234374C250.04725537109374,314.04159365234375,234.07925537109375,314.10069365234375,218.11125537109376,314.1838936523437C210.38925537109375,314.22359365234377,202.66725537109374,314.25609365234374,194.94455537109377,314.27099365234375C188.20965537109373,314.28409365234376,181.47495537109376,314.31109365234374,174.74025537109375,314.35459365234374C171.17785537109376,314.37719365234375,167.61575537109377,314.39289365234373,164.05335537109374,314.39189365234375C160.06545537109375,314.39099365234375,156.07835537109375,314.42139365234374,152.09055537109376,314.4540936523438C150.92385537109374,314.4490936523438,149.75715537109375,314.44399365234375,148.55515537109375,314.4388936523437C137.23495537109375,314.5819936523437,128.45855537109375,317.45869365234375,120.23435537109376,325.35549365234374C114.33925537109374,332.3326936523438,111.03615537109376,340.35529365234373,110.68355537109375,349.4218936523438C110.64165537109375,350.44669365234375,110.59985537109375,351.4714936523437,110.55665537109375,352.52739365234373C110.51735537109374,353.59079365234373,110.47805537109375,354.65429365234377,110.43745537109375,355.74999365234373C110.39435537109375,356.82899365234374,110.35115537109375,357.9078936523438,110.30665537109375,359.0194936523437C110.20075537109375,361.6795936523438,110.09865537109376,364.3396936523437,109.99995537109375,366.99999365234373C101.56738537109375,357.00649365234375,98.40995837109375,345.05429365234374,98.69140627109375,332.14059365234374C100.12985537109375,317.50129365234375,107.91918537109375,305.34609365234377,118.99995537109375,295.99999365234373C160.51015537109376,265.4524936523438,218.30625537109376,275.86067365234373,257.6872553710938,304.74999365234373Z" fill="#181718" fill-opacity="1" style="mix-blend-mode:passthrough"/></g><g><path d="M421,309.339832265625C428.2251,315.337222265625,433.2267,323.490222265625,434.2031,332.972622265625C434.5917,350.297322265625,424.4569,366.09152226562503,414.2524,379.367222265625C413.0067,380.991322265625,411.7906,382.635022265625,410.5742,384.281222265625C409.8072,385.281522265625,409.0402,386.281822265625,408.25,387.31252226562503C407.2368,388.637022265625,407.2368,388.637022265625,406.2031,389.988322265625C403.4626,392.490722265625,401.6762,392.885422265625,398,393.00002226562503C395.9593,391.388922265625,394.6354,389.975322265625,393,388.00002226562503C392.157,387.137622265625,392.157,387.137622265625,391.2969,386.257822265625C379.0848,373.499622265625,366.362133,354.240622265625,365.625,336.250022265625C365.86697,326.036322265625,369.29338,318.581122265625,376.3594,311.234362265625C389.7276,299.922802265625,406.8055,299.023482265625,421,309.339832265625Z" fill="#FBFBFB" fill-opacity="1" style="mix-blend-mode:passthrough"/></g><g><path d="M293.9999894707031,294C294.7063959707031,294.253945,295.4128049707031,294.507891,296.1406149707031,294.769531C312.2011949707031,300.1567,329.22689497070314,301.35979,345.99999497070314,303C346.7373949707031,318.0248,347.1991949707031,333.038,347.44499497070314,348.0785C347.5394949707031,353.7439,347.6497949707031,359.409,347.7577949707031,365.0742C347.87389497070313,371.2013,347.98959497070314,377.3283,348.09279497070315,383.4556C348.15899497070313,387.3436,348.2383949707031,391.2312,348.3297949707031,395.119C348.3734949707031,397.118,348.4027949707031,399.117,348.43159497070315,401.117C348.68429497070315,411.065,349.91099497070314,418.742,356.99999497070314,426C358.6554949707031,427.347,360.3204949707031,428.683,361.99999497070314,430C318.8461949707031,430.85900000000004,318.8461949707031,430.85900000000004,308.3202949707031,421.508C305.96629497070313,418.78499999999997,305.02219497070314,417.24,304.68749497070314,413.625C304.7905949707031,412.759,304.8936949707031,411.89300000000003,304.99999497070314,411C305.6522949707031,410.902,306.3044949707031,410.804,306.9765949707031,410.703C313.6192949707031,409.567,318.6696949707031,408.214,322.81249497070314,402.5C324.68369497070313,398.56100000000004,325.1293949707031,395.201,325.1769949707031,390.85519999999997C325.18979497070313,389.8299,325.20269497070313,388.8046,325.2158949707031,387.7483C325.22329497070314,386.6441,325.2306949707031,385.54,325.2382949707031,384.40229999999997C325.2462949707031,383.2577,325.2543949707031,382.11310000000003,325.26269497070314,380.9337C325.2765949707031,378.5087,325.2872949707031,376.0835,325.2951949707031,373.65840000000003C325.3066949707031,371.1903,325.3270949707031,368.7222,325.35669497070313,366.25419999999997C325.3995949707031,362.6784,325.4155949707031,359.1033,325.4257949707031,355.52729999999997C325.4432949707031,354.4374,325.46079497070315,353.3474,325.4787949707031,352.22429999999997C325.4475949707031,341.0372,322.4248949707031,332.3369,314.64059497070315,324.2305C308.86929497070315,319.3556,301.95744497070314,316.7424,294.9999849707031,314C293.96972007070315,307.3032,293.8984614707031,300.76853,293.9999894707031,294Z" fill="#171717" fill-opacity="1" style="mix-blend-mode:passthrough"/></g><g><path d="M115,405C115.454656,405.353287,115.909312,405.706574,116.37775,406.07057C124.05134,411.21284,131.9525,410.7104,140.8108,410.65942C142.5067,410.66789,144.2026,410.67853,145.8985,410.69119C150.4806,410.71925,155.0622,410.71688,159.6443,410.70889999999997C164.441,410.70577,169.2376,410.73083,174.0342,410.75285C183.10750000000002,410.79025,192.1806,410.80244,201.25400000000002,410.80548C211.58780000000002,410.81017,221.921,410.84311,232.255,410.87838C253.503,410.95026,274.752,410.98682,296,411C293.501,416.5485,289.522,418.9163,284.082,421.2539C238.791,437.5791,173.8375,438.9828,128.7578,421.3164C122.91954,418.5296,117.59362,415.1598,115,409C115,407.68,115,406.36,115,405Z" fill="#191919" fill-opacity="1" style="mix-blend-mode:passthrough"/></g><g><path d="M291.0000080480469,241C291.7528202480469,241.326133,292.5056292480469,241.652266,293.28125924804687,241.988281C310.3858292480469,249.02522,327.69842924804686,249.76083,346.00002924804687,251C346.00002924804687,264.53,346.00002924804687,278.06,346.00002924804687,292C337.7133292480469,292,330.1557292480469,291.9166,322.06252924804687,290.75C321.12102924804685,290.618,320.1795292480469,290.4859,319.20952924804686,290.3499C311.59702924804685,289.2187,304.25892924804685,287.6136,297.00000924804687,285C296.30181924804685,284.7965,295.6036292480469,284.593,294.88428924804685,284.3833C293.00000924804687,283,293.00000924804687,283,292.36230924804687,279.8865C292.26804924804685,277.9143,292.26804924804685,277.9143,292.1718792480469,275.90229999999997C292.1331492480469,275.194,292.09441924804685,274.4858,292.0545092480469,273.756C291.93490024804686,271.4837,291.8424052480469,269.2111,291.75000824804687,266.9375C291.67360224804685,265.4329,291.59549624804686,263.9283,291.51563324804687,262.4238C291.15097124804686,255.2814,290.90257654804685,248.15309,291.0000080480469,241Z" fill="#181818" fill-opacity="1" style="mix-blend-mode:passthrough"/></g><g><path d="M222,117C239.49,117,256.98,117,275,117C277.1323,121.26464,277.1472,126.52512,277.7844,131.2114C278.0596,133.22899999999998,278.3429,135.2454,278.627,137.2617C278.8029,138.5418,278.9789,139.8218,279.16020000000003,141.1406C279.3214,142.3114,279.4826,143.4822,279.6487,144.6885C280,148,280,148,280,154C259.21,154,238.42000000000002,154,217,154C217.99,146.74,218.98,139.48,220,132C220.66,127.05,221.32,122.1,222,117Z" fill="#171717" fill-opacity="1" style="mix-blend-mode:passthrough"/></g><g><path d="M410.43755400390626,316.6249955859375C416.45925400390627,320.1855755859375,419.8491540039063,325.4341255859375,422.00005400390626,332.0000255859375C422.6874540039062,339.2178255859375,421.13225400390627,344.64922558593753,417.25005400390626,350.7500255859375C412.36905400390623,355.6309255859375,406.6933540039063,358.0743255859375,399.81255400390626,358.3125255859375C393.78765400390625,358.2134255859375,388.71515400390626,356.3960255859375,384.17189400390623,352.3867255859375C379.26367400390626,347.0138255859375,377.48408900390626,341.6116255859375,377.69142150390627,334.3672255859375C378.59590500390624,327.4290255859375,381.77104400390624,322.5484155859375,387.12111400390626,318.1913955859375C393.9929540039062,313.8340145859375,402.99445400390624,313.2289355859375,410.43755400390626,316.6249955859375Z" fill="#191818" fill-opacity="1" style="mix-blend-mode:passthrough"/></g><g><path d="M379.0346544921875,162.83886732421874C380.0593544921875,162.82925932421875,381.0840544921875,162.81965232421874,382.1398544921875,162.80975332421875C383.2461544921875,162.80550332421876,384.3523544921875,162.80125332421875,385.4921544921875,162.79687532421875C387.1993544921875,162.78832532421876,387.1993544921875,162.78832532421876,388.94095449218753,162.77960232421876C391.35015449218747,162.77015132421874,393.7592544921875,162.76361732421876,396.1684544921875,162.75976532421876C399.8534544921875,162.75005732421874,403.5378544921875,162.71903222421875,407.22265449218753,162.68750002421876C409.5624544921875,162.68097022421875,411.9023544921875,162.67571962421874,414.2421544921875,162.67187502421876C415.3443544921875,162.65952822421875,416.4466544921875,162.64718142421876,417.58225449218753,162.63446044421875C419.1287544921875,162.63896210421876,419.1287544921875,162.63896210421876,420.7065544921875,162.64355472421875C421.6101544921875,162.63990905421875,422.5137544921875,162.63626343421876,423.4447544921875,162.63250732421875C426.58995449218753,163.08484532421875,428.4397544921875,164.14161732421874,430.9999544921875,165.99999732421875C433.2874544921875,169.43122732421875,433.3253544921875,170.94886732421875,433.3749544921875,175.00000732421876C433.40335449218753,176.05190732421875,433.4317544921875,177.10370732421876,433.4609544921875,178.18750732421876C432.9999544921875,181.00000732421876,432.9999544921875,181.00000732421876,431.3350544921875,182.65150732421876C428.4214544921875,184.33410732421873,426.5333544921875,184.38040732421877,423.1774544921875,184.38820732421874C421.4206544921875,184.40240732421876,421.4206544921875,184.40240732421876,419.6282544921875,184.41680732421875C418.3677544921875,184.41080732421875,417.1072544921875,184.40470732421875,415.8085544921875,184.39840732421874C413.8633544921875,184.40270732421874,413.8633544921875,184.40270732421874,411.8789544921875,184.40710732421874C409.1376544921875,184.41150732421875,406.3967544921875,184.40510732421876,403.6555544921875,184.39110732421875C400.1424544921875,184.37400732421875,396.6300544921875,184.38390732421874,393.1170544921875,184.40180732421874C389.7641544921875,184.41530732421876,386.4114544921875,184.40590732421876,383.0585544921875,184.39840732421874C381.7960544921875,184.40450732421874,380.5335544921875,184.41060732421874,379.2327544921875,184.41680732421875C378.0646544921875,184.40740732421875,376.8965544921875,184.39790732421875,375.6931144921875,184.38820732421874C374.6637144921875,184.38580732421875,373.6343044921875,184.38340732421875,372.5737144921875,184.38090732421875C369.9999944921875,184.00000732421876,369.9999944921875,184.00000732421876,368.1712744921875,182.64710732421875C365.4920234921875,178.87940732421876,366.4565257921875,173.37730732421875,366.9999964921875,168.99999732421875C370.0572944921875,163.62337432421876,373.1267144921875,162.88358832421875,379.0346544921875,162.83886732421874Z" fill="#191819" fill-opacity="1" style="mix-blend-mode:passthrough"/></g><g><path d="M226.49955393066406,86.69360340722656C227.60095393066405,86.67761640722657,228.70245393066406,86.66162840722656,229.83735393066405,86.64515640722657C231.02285393066407,86.63979440722656,232.20825393066406,86.63443140722656,233.42965393066407,86.62890640722657C234.65275393066406,86.61987740722657,235.87585393066405,86.61084940722657,237.13605393066405,86.60154740722656C239.72325393066407,86.58703940722656,242.31065393066407,86.57815640722656,244.89795393066407,86.57446240722656C248.85315393066406,86.56256540722656,252.80685393066406,86.51337940722657,256.76175393066404,86.46289060722657C259.27605393066403,86.45342660722656,261.7903539306641,86.44619150722656,264.3046539306641,86.44140620722656C266.0768539306641,86.41210780722656,266.0768539306641,86.41210780722656,267.88475393066403,86.38221740722656C277.04365393066405,86.43246630722656,277.04365393066405,86.43246630722656,280.75245393066405,89.33105740722657C283.56555393066407,92.67159740722656,283.6968539306641,94.37156740722656,283.49995393066405,98.68751740722657C283.4690539306641,99.82571740722656,283.43815393066404,100.96401740722656,283.4062539306641,102.13671740722657C282.99995393066405,105.00001740722657,282.99995393066405,105.00001740722657,280.99995393066405,107.00001740722657C278.34995393066407,107.26071740722657,278.34995393066407,107.26071740722657,274.94555393066406,107.27461740722656C273.67405393066406,107.28421740722656,272.40255393066406,107.29371740722657,271.09255393066405,107.30351740722656C269.6984539306641,107.30331740722656,268.30425393066406,107.30231740722657,266.9101539306641,107.30081740722656C265.48525393066404,107.30461740722656,264.06045393066404,107.30901740722656,262.63555393066406,107.31371740722656C259.6470539306641,107.32121740722656,256.65865393066406,107.32091740722656,253.67015393066407,107.31571740722656C249.83875393066407,107.30991740722656,246.00775393066408,107.32681740722657,242.17645393066405,107.35001740722656C239.23305393066406,107.36471740722656,236.28985393066407,107.36561740722657,233.34635393066407,107.36251740722656C231.93375393066407,107.36301740722656,230.52115393066407,107.36831740722656,229.10855393066407,107.37831740722656C227.13375393066406,107.39061740722656,225.15875393066406,107.38191740722657,223.18383393066406,107.37231740722656C221.49744393066408,107.37321740722656,221.49744393066408,107.37321740722656,219.77698393066407,107.37421740722657C216.99999393066406,107.00001740722657,216.99999393066406,107.00001740722657,215.13840393066405,105.62081740722657C212.77512993066406,102.25611740722657,213.53735733066407,97.91361740722657,213.99999393066406,93.99999740722656C215.23976393066405,91.02455740722657,216.05143393066407,89.59409740722656,218.76565393066406,87.89414740722657C221.46904393066407,86.81229440722656,223.58855393066406,86.72560440722657,226.49955393066406,86.69360340722656Z" fill="#181818" fill-opacity="1" style="mix-blend-mode:passthrough"/></g><g><path d="M345.5625,217.93749268515626C346.762,217.94200438515625,347.9614,217.94651608515625,349.1973,217.95116458515625C352.1316,217.96285498515624,355.0658,217.97924128515626,358,217.99999268515626C357.0646,220.52162728515626,356.1267,223.04229728515625,355.1875,225.56249728515624C354.9265,226.26696728515626,354.6654,226.97143728515624,354.3965,227.69725728515624C352.7192,232.19071728515624,350.9228,236.60591728515624,349,241.00001728515625C331.7273,241.62601728515625,310.4843,241.71761728515625,295,233.00001728515625C293.644531,230.83981728515624,293.644531,230.83981728515624,293,229.00001728515625C299.7133,221.35247728515625,313.4468,220.41969728515625,323,218.99999728515624C323.9991,218.85098528515624,323.9991,218.85098528515624,325.0183,218.69896728515624C331.8573,217.80767428515625,338.67629999999997,217.88795158515626,345.5625,217.93749268515626Z" fill="#191919" fill-opacity="1" style="mix-blend-mode:passthrough"/></g><g><path d="M284,335.0000085175781C287.1585,337.7535705175781,287.9066,339.3464005175781,288.5,343.5000105175781C287.9108,347.6246805175781,287.0954,349.23048051757814,284,351.99998051757814C280.4238,353.2174805175781,278.78056,353.34488051757813,275.3125,351.81248051757814C271.87484,349.1180805175781,270.218416,347.46648051757813,269.5625,343.0625105175781C270.103861,339.2729805175781,271.31673,337.68327051757814,274,335.0000085175781C277.83347,333.7221845175781,280.0873,334.0389885175781,284,335.0000085175781Z" fill="#F8F9F8" fill-opacity="1" style="mix-blend-mode:passthrough"/></g><g><path d="M154.999975,358.00001066796875C157.937475,360.62500966796875,157.937475,360.62500966796875,159.999975,364.00000966796875C159.999975,367.6772096679687,159.440375,370.07040966796876,157.874975,373.37500966796875C155.022875,375.84690966796876,152.715875,375.93590966796876,148.999995,376.00000966796875C145.426125,374.4116096679688,144.189105,373.28370966796876,142,370.00000966796875C141.5625,366.62500966796875,141.5625,366.62500966796875,142,363.00000966796875C146.146385,357.9807036679687,148.612445,356.12131966796875,154.999975,358.00001066796875Z" fill="#F7F8F8" fill-opacity="1" style="mix-blend-mode:passthrough"/></g><g><path d="M238.99995622558595,340.9999961953125C241.87495622558595,342.5624951953125,241.87495622558595,342.5624951953125,243.99995622558595,344.9999951953125C245.14005622558594,348.9190851953125,245.40885622558594,351.0315751953125,243.81245622558595,354.8124751953125C241.85975622558593,357.1691751953125,240.94025622558593,358.1832751953125,237.99995622558595,358.9999751953125C233.83265622558594,358.9255751953125,231.73355622558594,358.6394751953125,228.56249622558593,355.8749751953125C226.56485122558593,352.1993751953125,226.33648722558593,350.1284851953125,226.99999422558594,345.9999951953125C230.42064622558593,341.1281611953125,233.14428622558594,340.0589001953125,238.99995622558595,340.9999961953125Z" fill="#F9F9F9" fill-opacity="1" style="mix-blend-mode:passthrough"/></g><g><path d="M176.99999912109377,334.99999169921875C180.10269912109374,337.69443169921874,181.28999912109376,339.97295169921875,181.62499912109377,343.99999169921875C181.42869912109376,347.5666916992187,180.91429912109376,348.10239169921874,178.43749912109377,351.06249169921875C174.99999912109377,352.99999169921875,174.99999912109377,352.99999169921875,171.37498912109376,353.06249169921875C167.60792912109375,351.87659169921875,166.09528912109374,351.3524916992188,163.99999312109375,347.99999169921875C163.44672412109375,344.8970916992188,163.42432312109375,342.10063169921875,163.99999312109375,338.99999169921875C167.55845912109376,334.09176269921875,171.29287912109376,333.36938769921875,176.99999912109377,334.99999169921875Z" fill="#F9F9F9" fill-opacity="1" style="mix-blend-mode:passthrough"/></g><g><path d="M245.00003735351564,371.99998938867185C248.00003735351564,374.0624933886719,248.00003735351564,374.0624933886719,250.00003735351564,376.9999933886719C250.7878373535156,381.4117433886719,250.52973735351563,383.2219233886719,248.00003735351564,386.9375233886719C243.84923735351563,389.79112338867185,241.96988735351562,389.7099233886719,236.99999735351562,389.0000233886719C233.65760735351563,386.85742338867186,233.10831735351562,385.3971233886719,232.06249237351562,381.5624933886719C231.99300675351563,377.6017833886719,232.56632735351562,376.06460338867186,234.99999735351562,372.9999933886719C238.22937735351562,371.38529738867186,241.5085573535156,371.4191963886719,245.00003735351564,371.99998938867185Z" fill="#F9FAFA" fill-opacity="1" style="mix-blend-mode:passthrough"/></g><g><path d="M283.9999767578125,362.9999942363281C286.6998767578125,364.79992723632813,288.5418767578125,366.08376723632813,289.9999767578125,368.9999972363281C290.4081767578125,372.6738572363281,290.2483767578125,374.5528172363281,288.4374767578125,377.8125172363281C285.2444767578125,380.6780172363281,283.2587767578125,381.0000172363281,278.9999967578125,381.0000172363281C276.1198167578125,379.78391723632814,274.5476067578125,378.69691723632815,272.6249927578125,376.2500172363281C271.6716367578125,372.8179172363281,272.0834455478125,370.42176723632815,272.9999927578125,366.9999972363281C276.3775567578125,363.2364182363281,278.9972567578125,362.16620523632815,283.9999767578125,362.9999942363281Z" fill="#FAFAFA" fill-opacity="1" style="mix-blend-mode:passthrough"/></g><g><path d="M200.62496640625,363.875C204.68486640625,365.2283,205.96256640625,366.25121,207.99996640625,370C208.71256640625,374.4336,208.53326640625,376.2405,205.93746640625,379.9375C202.99996640625,382,202.99996640625,382,199.49999640625,382.625C195.99999640625,382,195.99999640625,382,193.06249640625,380C190.78286040625,376.6842,190.18332440625,374.891,190.45312400625,370.94141C191.89739640625,365.81423,195.65956640625,364.046222,200.62496640625,363.875Z" fill="#F9F9F9" fill-opacity="1" style="mix-blend-mode:passthrough"/></g></g></svg>