<svg xmlns="http://www.w3.org/2000/svg" xmlns:xlink="http://www.w3.org/1999/xlink" fill="none" version="1.1" width="512" height="512" viewBox="0 0 512 512"><defs><clipPath id="master_svg0_9_369"><rect x="0" y="0" width="512" height="512" rx="0"/></clipPath></defs><g clip-path="url(#master_svg0_9_369)"><g><path d="" fill="#F8FBFB" fill-opacity="0" style="mix-blend-mode:passthrough"/></g><g><path d="M225.86353125,237.9023404580078C227.19253125,237.9071743580078,227.19253125,237.9071743580078,228.54853125,237.91210605800782C229.91653125,237.92467435800782,229.91653125,237.92467435800782,231.31253125,237.9374966580078C232.24353125,237.94200835800783,233.17553125,237.94652005800782,234.13453125,237.95116855800782C236.42353125,237.96290435800782,238.71153125,237.97932305800782,240.99953125000002,237.99999645800781C237.24953125000002,241.8749994580078,237.24953125000002,241.8749994580078,234.99953125000002,242.9999994580078C234.66953125,243.98999945800782,234.33953125,244.97999945800782,233.99953125000002,245.9999994580078C234.98953125,246.4949994580078,234.98953125,246.4949994580078,235.99953125000002,246.9999994580078C235.66953125,247.6599994580078,235.33953125,248.31996945800782,234.99953125000002,248.99996945800783C238.27353125000002,248.4028694580078,240.04853125,247.33232945800782,242.56253125,245.1874994580078C251.49753125,238.32090445800782,260.66353125,237.0848784580078,271.59753125,238.28515245800781C280.78853125,239.7482794580078,288.54153125,244.3492794580078,294.99953125,250.99996945800783C297.99953125,255.2580694580078,297.99953125,255.2580694580078,297.99953125,257.9999694580078C284.36453125,259.0341694580078,284.36453125,259.0341694580078,279.31253125,255.0624694580078C278.44053125,254.24456945800782,278.44053125,254.24456945800782,277.55053125,253.4101694580078C273.33353124999996,249.5754694580078,266.29853125,250.62476945800782,260.91053124999996,250.7109694580078C255.23853125,251.1301694580078,252.39853125,252.6010694580078,248.37453125000002,256.6249694580078C246.48353125,258.5161694580078,244.50453125,259.1056694580078,241.99953125000002,259.9999694580078C241.07153125000002,260.3712694580078,240.14353125,260.7424694580078,239.18753125,261.1249694580078C238.46553125,261.41376945800783,237.74353125,261.70246945800784,236.99953125000002,261.9999694580078C237.61753125,261.9883694580078,238.23453125,261.9767694580078,238.87153125,261.9648694580078C239.71753124999998,261.9557694580078,240.56453125000002,261.9467694580078,241.43753125,261.9374694580078C242.26153125000002,261.9258694580078,243.08453125,261.9142694580078,243.93353125,261.9023694580078C246.35253125,261.9793694580078,248.60853125,262.1882694580078,250.99953125000002,262.4972694580078C256.36353125,263.1044694580078,261.67853125,263.1446694580078,267.07153125,263.1418694580078C268.67553125,263.1470694580078,268.67553125,263.1470694580078,270.31253125,263.1523694580078C272.61853125,263.1596694580078,274.92553125,263.1650694580078,277.23153125,263.1686694580078C280.87953125,263.1758694580078,284.52653125,263.1915694580078,288.17453125,263.20996945800783C298.53953125,263.2623694580078,308.90553124999997,263.3105694580078,319.27053125,263.3259694580078C325.62253125,263.3359694580078,331.97453125000004,263.3651694580078,338.32553125000004,263.4072694580078C340.74553125,263.4195694580078,343.16653125,263.4246694580078,345.58653125,263.4224694580078C348.95953125,263.4200694580078,352.33153125,263.4421694580078,355.70453125,263.4699694580078C356.70853124999996,263.46336945800783,357.71153125,263.4567694580078,358.74553125,263.4499694580078C359.66253125000003,263.46246945800783,360.57953125,263.4748694580078,361.52353125,263.4877694580078C362.32053125,263.4901694580078,363.11753125,263.4924694580078,363.93853125,263.4949694580078C365.99953125,263.9999694580078,365.99953125,263.9999694580078,367.75953125,265.9096694580078C369.13553125,268.2279694580078,369.35053125,269.36416945800784,369.24953125,272.0273694580078C369.22153125,272.8085694580078,369.19353125,273.5898694580078,369.16353125,274.39476945800783C369.10953125000003,275.2338694580078,369.05553125,276.07296945800783,368.99953125,276.9374694580078C368.94653125,277.8184694580078,368.89353125,278.6994694580078,368.83853124999996,279.60716945800783C366.34953125000004,312.4409694580078,351.26853125,340.3135694580078,326.73453125000003,361.8395694580078C306.27853125,377.99956945800784,306.27853125,377.99956945800784,298.99953125,377.99956945800784C299.02353125,378.9155694580078,299.04653125,379.8305694580078,299.07053125,380.77356945800784C299.08853124999996,381.96156945800783,299.10653125,383.1505694580078,299.12453125,384.37456945800784C299.14853125,385.5585694580078,299.17153125,386.7415694580078,299.19553125,387.96056945800785C298.99953125,390.99956945800784,298.99953125,390.99956945800784,296.99953125,392.99956945800784C295.18453124999996,393.2575694580078,295.18453124999996,393.2575694580078,292.94553125,393.2675694580078C291.67253125,393.2805694580078,291.67253125,393.2805694580078,290.37453125,393.2935694580078C289.44253125,393.29256945800785,288.50953125,393.2915694580078,287.54953125,393.2905694580078C286.56853125,393.29756945800784,285.58753125,393.3035694580078,284.57753125,393.3105694580078C281.32353125,393.3295694580078,278.07053125,393.3335694580078,274.81653125,393.33556945800785C272.56153125000003,393.3425694580078,270.30753125,393.3495694580078,268.05353125,393.3565694580078C263.32253125,393.3685694580078,258.59253125,393.3715694580078,253.86253125,393.3705694580078C247.79053125000002,393.3705694580078,241.72053125,393.3975694580078,235.64953125,393.43256945800783C230.99153124999998,393.4545694580078,226.33453125,393.4585694580078,221.67713125,393.4575694580078C219.43833125,393.4595694580078,217.19953125,393.4685694580078,214.96083125,393.4835694580078C211.83363125,393.5035694580078,208.70753125,393.4975694580078,205.58033125,393.48556945800783C204.18453125000002,393.5025694580078,204.18453125000002,393.5025694580078,202.76063125000002,393.5195694580078C196.51383125,393.4585694580078,196.51383125,393.4585694580078,193.91953125,391.1445694580078C192.73433125,388.3805694580078,192.70543125,386.2475694580078,192.81253125,383.24956945800784C192.85313125,381.7725694580078,192.85313125,381.7725694580078,192.89453125,380.2655694580078C192.92933125000002,379.5175694580078,192.96413124999998,378.7705694580078,193.00003125,377.99956945800784C192.13893124999998,377.74456945800785,191.27783125000002,377.48956945800785,190.39063125,377.2265694580078C180.55923125,373.6695694580078,171.87123125,366.7285694580078,164.00003125,359.99956945800784C163.17883125,359.32456945800783,162.35773125,358.64856945800784,161.51173125,357.9535694580078C138.96833125,338.7405694580078,126.40990125,309.1253694580078,124.00000025,279.9999694580078C123.89366125,277.70996945800783,123.82624055,275.4174694580078,123.81250005,273.1249694580078C123.79831695,272.03446945800783,123.78414155,270.94386945800784,123.76953125,269.82026945800783C124.00000025,266.9999694580078,124.00000025,266.9999694580078,126.00000125,263.9999694580078C128.73698125,263.5565694580078,128.73698125,263.5565694580078,132.26636125,263.45996945800783C133.58501125,263.4168694580078,134.90363125,263.3738694580078,136.26223125,263.3295694580078C137.71003125,263.29736945800784,139.15773125,263.2655694580078,140.60543125,263.2343694580078C142.08803125,263.1925694580078,143.57053125,263.1495694580078,145.05303125,263.10556945800784C148.16583125,263.0160694580078,151.27863125,262.9363694580078,154.39183125,262.8642694580078C158.36893125,262.7718694580078,162.34513125,262.6615694580078,166.32153125,262.5447694580078C169.38673125,262.4555694580078,172.45213125,262.3729694580078,175.51753125,262.2926694580078C176.98273125,262.2540694580078,178.44783125,262.2141694580078,179.91293124999999,262.1729694580078C181.97073125,262.11666945800783,184.02863125,262.0683694580078,186.08663125,262.02246945800783C187.25533124999998,261.9937694580078,188.42403124999998,261.9650694580078,189.62813125,261.9354694580078C193.15963125000002,262.0030694580078,196.51693125,262.43076945800783,200.00003125,262.9999694580078C200.49503125,261.51496945800784,200.49503125,261.51496945800784,201.00003125,259.9999694580078C201.99003125000002,259.6699694580078,202.98003125,259.33996945800783,204.00003125,258.9999694580078C200.37003125,258.6699694580078,196.74003125000002,258.33996945800783,193.00003125,257.9999694580078C196.42793125,249.4301694580078,201.89303125,244.82446945800783,210.18753125,240.9882794580078C215.40893125,238.96100945800782,220.27783125000002,237.8663051580078,225.86353125,237.9023404580078Z" fill="#181718" fill-opacity="1" style="mix-blend-mode:passthrough"/></g><g><path d="M240.3125,189.6875019053125C241.0538,189.6924164553125,241.7951,189.6973310453125,242.55880000000002,189.7023944453125C248.728,189.8331689453125,254.22199999999998,190.7545489453125,260,192.9999989453125C260.826,193.3171089453125,261.653,193.6342189453125,262.504,193.9609389453125C272.02,198.1603589453125,280.644,205.4579689453125,285,214.9999689453125C282.73,215.0809689453125,280.459,215.1391689453125,278.188,215.1874689453125C276.291,215.2396689453125,276.291,215.2396689453125,274.355,215.2929689453125C271,214.9999689453125,271,214.9999689453125,269.051,213.4882689453125C268.704,212.9971689453125,268.35699999999997,212.5059689453125,268,211.9999689453125C264.887,212.6686689453125,264.887,212.6686689453125,263.812,215.0624689453125C263.544,215.7018689453125,263.276,216.3412689453125,263,216.9999689453125C267.657,220.6955689453125,270.786,221.4583689453125,276.75,221.0624689453125C290.328,220.6358689453125,300.956,225.4918689453125,310.85900000000004,234.70316894531248C317.257,241.5681689453125,320.774,248.9657689453125,323,257.9999689453125C318.71000000000004,257.9999689453125,314.41999999999996,257.9999689453125,310,257.9999689453125C309.113,256.3087689453125,308.226,254.6174689453125,307.312,252.8749689453125C301.96799999999996,243.1899689453125,296.034,237.9758689453125,285.75,233.6249689453125C278.24,232.3732689453125,270.437,232.0647689453125,263.125,234.3749689453125C260.286,235.15266894531248,259.367,235.1789689453125,256.676,233.8671689453125C254.58499999999998,232.3566689453125,252.73399999999998,230.9093689453125,251,228.9999689453125C251,228.3399689453125,251,227.6799689453125,251,226.9999689453125C251.66,226.9999689453125,252.32,226.9999689453125,253,226.9999689453125C253,226.3399689453125,253,225.6799689453125,253,224.9999689453125C249.002,224.0437689453125,245.292,223.8960689453125,241.1875,223.9374689453125C239.4453,223.9510689453125,239.4453,223.9510689453125,237.668,223.9648689453125C236.34730000000002,223.9822689453125,236.34730000000002,223.9822689453125,235,223.9999689453125C236.65,225.6499689453125,238.3,227.29996894531251,240,228.9999689453125C232.7846,235.0383689453125,232.7846,235.0383689453125,228.8203,234.95316894531248C227.3524,234.5552689453125,225.8928,234.12626894531252,224.4414,233.6718689453125C215.6492,231.2522689453125,207.0127,233.0368689453125,199,236.9999689453125C190.4403,241.8806689453125,186.0701,248.7895689453125,183,257.9999689453125C178.71,257.9999689453125,174.42000000000002,257.9999689453125,170,257.9999689453125C171,250.57146894531252,171,250.57146894531252,172,246.9999689453125C171.01,246.9999689453125,170.02,246.9999689453125,169,246.9999689453125C168.34,246.9999689453125,167.68,246.9999689453125,167,246.9999689453125C165.2455,249.7114689453125,163.8657,252.3235689453125,162.625,255.3124689453125C160,257.9999689453125,160,257.9999689453125,156.85156,258.3788689453125C153.54774,258.3753689453125,150.29322,258.2569689453125,147,257.9999689453125C148.10492,249.9397689453125,154.3722,244.2076689453125,160.3242,239.0937689453125C162.1943,237.8731689453125,163.8187,237.41816894531252,166,236.9999689453125C166.0748,236.1285689453125,166.1495,235.25716894531251,166.2266,234.3593689453125C167.5811,222.0884689453125,171.2855,212.5015689453125,180.4336,203.9726689453125C187.41989999999998,198.6026489453125,196.9849,193.4697089453125,206,193.9999989453125C204.7934,195.1137489453125,204.7934,195.1137489453125,203.5625,196.2499989453125C201.2301,198.7530489453125,200.3647,199.7180689453125,200,202.9999689453125C201.32,203.6599689453125,202.64,204.3199689453125,204,204.9999689453125C204.7831,204.2207689453125,204.7831,204.2207689453125,205.582,203.4257689453125C215.37040000000002,194.1516689453125,226.84199999999998,189.5806299453125,240.3125,189.6875019053125Z" fill="#F9F9F9" fill-opacity="1" style="mix-blend-mode:passthrough"/></g><g><path d="M269,221.00000942382812C271.551,221.0666094238281,274.019,221.03930942382812,276.562,220.93750942382812C290.15,220.68922942382812,300.89599999999996,225.43660942382812,310.85900000000004,234.70310942382812C317.257,241.56810942382813,320.774,248.96580942382812,323,258.00000942382815C318.71000000000004,258.00000942382815,314.41999999999996,258.00000942382815,310,258.00000942382815C309.113,256.30870942382813,308.226,254.61750942382812,307.312,252.87500942382812C301.96799999999996,243.19000942382812,296.034,237.9759094238281,285.75,233.62500942382812C278.24,232.37330942382812,270.437,232.06470942382813,263.125,234.37500942382812C260.2858,235.15270942382813,259.3673,235.17900942382812,256.6758,233.86720942382811C254.5851,232.35660942382813,252.7345,230.90930942382812,251,229.00000942382812C251,228.34000942382812,251,227.68000942382812,251,227.00000942382812C251.66,227.00000942382812,252.32,227.00000942382812,253,227.00000942382812C253,226.34000942382812,253,225.68000942382812,253,225.00000942382812C249.002,224.04380942382812,245.292,223.89600942382813,241.1875,223.93750942382812C239.4453,223.9510094238281,239.4453,223.9510094238281,237.668,223.96480942382811C236.7875,223.97640942382813,235.9071,223.98800942382812,235,224.00000942382812C236.65,225.65000942382812,238.3,227.30000942382813,240,229.00000942382812C232.7846,235.0384094238281,232.7846,235.0384094238281,228.8203,234.95310942382812C227.3524,234.55520942382813,225.8928,234.12620942382813,224.4414,233.67190942382814C215.6492,231.25230942382814,207.0127,233.03680942382812,199,237.00000942382812C190.4403,241.88070942382814,186.0701,248.78960942382813,183,258.00000942382815C178.71,258.00000942382815,174.42,258.00000942382815,170,258.00000942382815C170.211731,248.68370942382813,176.08214,240.67630942382812,182.3125,234.12500942382812C191.2185,225.82070942382813,200.9848,221.46380942382814,213.1875,220.68749942382811C216.9913,220.00155942382813,218.2366,219.31898942382813,221.25,217.12499942382811C236.8766,205.89760942382813,254.4179,211.27859742382813,269,221.00000942382812Z" fill="#1C1C1C" fill-opacity="1" style="mix-blend-mode:passthrough"/></g><g><path d="M160.7181388671875,399.61905162070315C161.3925388671875,399.61437162070314,162.0669388671875,399.6096917207031,162.7617388671875,399.60486992070315C165.0203388671875,399.5929083407031,167.2784388671875,399.60238122070314,169.5371388671875,399.6118189207031C171.1568388671875,399.6077537207031,172.7765388671875,399.60241212070315,174.3962388671875,399.59588878070315C178.7949388671875,399.58220320070313,183.1934388671875,399.58751891570313,187.5921388671875,399.59702603070315C192.1934388671875,399.6046162207031,196.7946388671875,399.5975788207031,201.3958388671875,399.59286754070314C209.1231388671875,399.58740810670315,216.8503388671875,399.59460650070315,224.5776388671875,399.60888922070313C233.51403886718748,399.6252161207031,242.4503388671875,399.6199277207031,251.38683886718752,399.6034100207031C259.0568388671875,399.5898005107031,266.7258388671875,399.58787291670313,274.39583886718754,399.5957260607031C278.97783886718753,399.60040552070313,283.5598388671875,399.6010200207031,288.1418388671875,399.5911165907031C292.4498388671875,399.58245693070313,296.7568388671875,399.5884504307031,301.0648388671875,399.6057993207031C302.6468388671875,399.60976952070314,304.22783886718753,399.60862102070314,305.8098388671875,399.6020113207031C307.96783886718754,399.59382657070313,310.12483886718746,399.6040792207031,312.2818388671875,399.61905162070315C314.0938388671875,399.62074822070315,314.0938388671875,399.62074822070315,315.94183886718747,399.62247912070313C319.2628388671875,400.0325067207031,320.66983886718754,400.63315872070314,322.99983886718746,402.9999987207031C323.4898388671875,405.7998687207031,323.5028388671875,407.25999872070315,321.8898388671875,409.6324887207031C319.0658388671875,411.67588872070314,316.77883886718746,411.3777887207031,313.3198388671875,411.3809887207031C312.2958388671875,411.3879887207031,312.2958388671875,411.3879887207031,311.25183886718753,411.39508872070314C308.9598388671875,411.40708872070314,306.6688388671875,411.39758872070314,304.37683886718753,411.3881887207031C302.7358388671875,411.3922887207031,301.0948388671875,411.39758872070314,299.4538388671875,411.4040887207031C294.9938388671875,411.41778872070313,290.5328388671875,411.41248872070315,286.0728388671875,411.40298872070315C281.4088388671875,411.3953887207031,276.7458388671875,411.40238872070313,272.0828388671875,411.40708872070314C264.25183886718753,411.4125887207031,256.4198388671875,411.4053887207031,248.5883388671875,411.3910887207031C239.5275388671875,411.3747887207031,230.46693886718748,411.3800887207031,221.4060388671875,411.3965887207031C213.6336388671875,411.4101887207031,205.8612388671875,411.41208872070314,198.0887388671875,411.4042887207031C193.4435388671875,411.39958872070315,188.79843886718749,411.39898872070313,184.1532388671875,411.40888872070315C179.7865388671875,411.4175887207031,175.4201388671875,411.41158872070315,171.0534388671875,411.39418872070314C169.4486388671875,411.3901887207031,167.8437388671875,411.3913887207031,166.2389388671875,411.3979887207031C164.0525388671875,411.40618872070314,161.8669388671875,411.39598872070314,159.6805388671875,411.3809887207031C157.8432588671875,411.37928872070313,157.8432588671875,411.37928872070313,155.9688588671875,411.3774887207031C152.99999886718751,410.99998872070313,152.99999886718751,410.99998872070313,151.1098088671875,409.6324887207031C149.4969078671875,407.25999872070315,149.5100218671875,405.7998687207031,149.9999988671875,402.9999987207031C153.3158388671875,399.63263392070314,156.1232088671875,399.62335432070313,160.7181388671875,399.61905162070315Z" fill="#161517" fill-opacity="1" style="mix-blend-mode:passthrough"/></g><g><path d="M356,113C357.7541,114.07666,359.5031,115.16163,361.25,116.25C362.7118,117.15492,362.7118,117.15492,364.2031,118.07812C366.8054,119.86631,368.81010000000003,121.74451,371,124C356.7721,144.8927,356.7721,144.8927,350.875,153.4375C344.5745,162.5765,338.3664,171.77859999999998,332.1448,180.97140000000002C325.4945,190.7973,318.8297,200.6132,312.1538,210.4216C311.5011,211.3808,310.8483,212.3399,310.1758,213.328C309.6077,214.162,309.0396,214.997,308.4543,215.856C307.2948,217.565,306.1456,219.28199999999998,305,221C300.96479,219.41,296.98189,217.71800000000002,293,216C296.19522,209.2581,300.00195,203.0429,304,196.75C308.7769,189.1756,313.4921,181.57580000000002,318.0625,173.875C322.7211,166.0435,327.5636,158.3448,332.4817,150.6741C338.0449,141.9786,343.455,133.1925,348.8467,124.3901C349.4902,123.3397,350.1338,122.28929,350.7969,121.20703C351.3676,120.27351,351.9383,119.33999,352.5264,118.37817C353.6505,116.56408,354.8162,114.77571,356,113Z" fill="#1C1C1C" fill-opacity="1" style="mix-blend-mode:passthrough"/></g><g><path d="M380,133C384.7878,136.53614,389.4645,140.14484,394,144C391.3861,148.0973,388.653,151.6318,385.3125,155.1875C381.9492,158.82580000000002,378.7235,162.5089,375.625,166.375C372.2361,170.5781,368.6876,174.562,365,178.5C360.5004,183.3055,356.269,188.2516,352.1445,193.3867C350.0013,195.9985,347.7762,198.50369999999998,345.5,201C342.4235,204.3746,339.4888,207.8182,336.625,211.375C332.7794,216.1378,328.7282,220.6553,324.5415,225.11669999999998C321.9691,227.839,321.9691,227.839,320,231C319.34,231,318.68,231,318,231C317.505,231.99,317.505,231.99,317,233C316.13375,231.8553,316.13375,231.8553,315.25,230.6875C313.28297,228.338,311.51524,226.7068,309,225C310.55779,219.93720000000002,313.65177,216.47910000000002,317,212.5C318.18625,211.06619999999998,319.3711,209.6313,320.5547,208.1953C321.1409,207.4854,321.7271,206.7754,322.3311,206.0439C324.6546,203.19830000000002,326.8994,200.2975,329.125,197.375C333.8962,191.1239,338.7459,184.938,343.6133,178.7617C344.9842,177.0201,346.352,175.27609999999999,347.7188,173.5312C352.9394,166.86860000000001,358.1982,160.2386,363.4951,153.6365C367.5694,148.5529,371.6002,143.4363,375.6113,138.30273C378.899,134.101,378.899,134.101,380,133Z" fill="#1B1B1B" fill-opacity="1" style="mix-blend-mode:passthrough"/><path d="M375.2181,137.99392L375.2175,137.99462L369.0098,145.8997L363.1042,153.3247L355.1571,163.2877L347.32529999999997,173.2228L345.2511,175.86849999999998L343.2206,178.4522Q334.2798,189.7972,328.7272,197.0721Q324.7932,202.238,321.9455,205.7256L320.169,207.87709999999998L318.03665,210.4613L316.61742,212.1781Q316.41411,212.4197,316.01512,212.8923Q312.95806,216.51319999999998,311.66579,218.4262Q309.523976,221.5969,308.52211,224.853L308.413418,225.2062L308.719249,225.4137Q312.10286,227.7097,314.85882,230.9992L315.73942,232.1628L317.08715,233.94400000000002L317.95471,232.2086L318.30902,231.5L320.2776,231.5L320.4244,231.2644Q321.8881,228.91469999999998,322.4403,228.1994Q322.9928,227.4836,324.9061,225.4589Q331.9977,217.9019,337.0145,211.6886Q341.4164,206.22140000000002,345.8695,201.3369Q349.8471,196.9745,352.5344,193.6998Q359.0589,185.57659999999998,365.365,178.8418Q371.486,172.3052,376.0152,166.6877Q380.2699,161.379,385.6769,155.5299Q390.5395,150.3542,394.4215,144.2689L394.656,143.9014L394.3238,143.619Q388.3877,138.57335,380.2971,132.597806L379.9508,132.342081L379.6465,132.646446Q378.524,133.768877,375.2181,137.99392ZM369.7924,146.5222L376.0046,138.61154L376.00509999999997,138.61085Q378.8743,134.94391,380.0568,133.663873Q387.6714,139.30152,393.3428,144.0983Q389.5996,149.8941,384.9481,154.8451Q379.5116,160.7261,375.2348,166.0623Q370.7307,171.6487,364.635,178.1582Q358.3027,184.9211,351.7547,193.0736Q349.0905,196.3201,345.1305,200.6631Q340.6567,205.57049999999998,336.2355,211.0614Q331.2431,217.2446,324.1769,224.77460000000002Q322.2318,226.833,321.6487,227.5883Q321.095,228.3056,319.7227,230.5L317.69098,230.5L317.06029,231.76139999999998L316.91285,232.0563L316.53683,231.55939999999998L315.64128,230.376L315.63338,230.3665Q312.91049,227.11419999999998,309.588769,224.7981Q310.55137,221.8625,312.49444,218.986Q313.75671,217.1173,316.77921,213.5374Q317.1805,213.0621,317.38258,212.8219L318.80737,211.0985L320.9403,208.5135L322.71659999999997,206.3623Q325.5784,202.85750000000002,329.5228,197.6779Q335.0701,190.4101,344.006,179.0712L346.0373,176.4864L348.11220000000003,173.8397L355.9424,163.9067L363.886,153.9483L369.7924,146.5222Z" fill-rule="evenodd" fill="#000000" fill-opacity="1"/></g><g><path d="M225.8633,237.9023404580078C227.1926,237.9071743580078,227.1926,237.9071743580078,228.5488,237.91210605800782C229.9168,237.92467435800782,229.9168,237.92467435800782,231.3125,237.9374966580078C232.2439,237.94200835800783,233.17520000000002,237.94652005800782,234.13479999999998,237.95116855800782C236.4232,237.96290435800782,238.7116,237.97932305800782,241,237.99999645800781C237.25,241.8749994580078,237.25,241.8749994580078,235,242.9999994580078C234.67000000000002,243.98999945800782,234.34,244.97999945800782,234,245.9999994580078C234.99,246.4949994580078,234.99,246.4949994580078,236,246.9999994580078C235.67000000000002,247.6599994580078,235.34,248.31996945800782,235,248.99996945800783C238.2733,248.4028694580078,240.04840000000002,247.33232945800782,242.5625,245.1874994580078C251.4973,238.32090445800782,260.6637,237.0848784580078,271.598,238.28515245800781C280.788,239.7482794580078,288.54200000000003,244.3492794580078,295,250.99996945800783C298,255.2580694580078,298,255.2580694580078,298,257.9999694580078C284.365,259.0341694580078,284.365,259.0341694580078,279.312,255.0624694580078C278.731,254.5172694580078,278.15,253.9719694580078,277.551,253.4101694580078C273.334,249.5754694580078,266.299,250.62476945800782,260.91020000000003,250.7109694580078C255.23860000000002,251.1301694580078,252.399,252.6010694580078,248.375,256.6249694580078C246.4838,258.5161694580078,244.5042,259.1056694580078,242,259.9999694580078C241.0719,260.3712694580078,240.1438,260.7424694580078,239.1875,261.1249694580078C238.4656,261.41376945800783,237.7438,261.70246945800784,237,261.9999694580078C237.6175,261.9883694580078,238.23489999999998,261.9767694580078,238.8711,261.9648694580078C244.6753,261.9029694580078,250.2434,262.2571694580078,256,262.9999694580078C256,263.32996945800784,256,263.6599694580078,256,263.9999694580078C224.98,263.9999694580078,193.96,263.9999694580078,162,263.9999694580078C162,263.6699694580078,162,263.33996945800783,162,262.9999694580078C166.28644,262.8312694580078,170.57309,262.67076945800784,174.8601,262.5177694580078C176.3159,262.4647694580078,177.7717,262.40946945800783,179.2273,262.3517694580078C181.3297,262.2689694580078,183.4324,262.1942694580078,185.5352,262.1210694580078C186.7972,262.0739694580078,188.0593,262.0268694580078,189.3596,261.9782694580078C193.0011,261.9999694580078,196.41230000000002,262.3996694580078,200,262.9999694580078C200.495,261.51496945800784,200.495,261.51496945800784,201,259.9999694580078C201.99,259.6699694580078,202.98,259.33996945800783,204,258.9999694580078C200.37,258.6699694580078,196.74,258.33996945800783,193,257.9999694580078C196.4279,249.4301694580078,201.893,244.82446945800783,210.1875,240.9882794580078C215.409,238.96100945800782,220.2778,237.8663051580078,225.8633,237.9023404580078Z" fill="#F8F8F8" fill-opacity="1" style="mix-blend-mode:passthrough"/></g><g><path d="M240.3125,189.687506195C241.0538,189.692420745,241.7951,189.697335275,242.5588,189.702398775C248.728,189.833172875,254.2221,190.754546875,260,193.000006875C260.8263,193.317116875,261.6526,193.634226875,262.5039,193.960946875C272.01959999999997,198.160366875,280.6438,205.457946875,285,215.000046875C272.8432,216.075646875,272.8432,216.075646875,268.5703,213.582046875C267.2747,212.361846875,266.012,211.105746875,264.78520000000003,209.816446875C258.4496,203.369946875,248.829,201.963046875,240.1875,201.625046875C229.5156,201.855846875,220.6792,205.59434687499999,213,213.000046875C212.67000000000002,213.660046875,212.34,214.320046875,212,215.000046875C209.302,215.638646875,206.6663,216.168246875,203.9375,216.625046875C203.17889,216.759046875,202.42027,216.893146875,201.63867,217.031246875C199.76048,217.362046875,197.8804,217.682046875,196,218.000046875C199.94217,207.383646875,208.3787,198.934816875,218.5625,194.125006875C225.7217,191.008526875,232.5649,189.626038275,240.3125,189.687506195Z" fill="#1C1C1C" fill-opacity="1" style="mix-blend-mode:passthrough"/></g><g><path d="M206,194.0000067207031C204.9481,194.99000872070312,204.9481,194.99000872070312,203.875,196.00000872070314C200.0422,199.83278872070312,196.3072,204.20678872070312,194,209.13668872070312C193,210.99998872070313,193,210.99998872070313,190.1875,212.74998872070313C185.11169999999998,216.33288872070312,182.8105,221.00758872070313,180.5,226.68748872070313C178.8247,230.38708872070313,176.8908,232.17648872070313,174,234.99998872070313C170.9849,239.00998872070312,168.2502,243.0824887207031,166.375,247.74998872070313C164.9793,251.0489887207031,163.3175,253.29628872070313,161,255.99998872070313C160.67,256.65998872070315,160.34,257.3199887207031,160,257.99998872070313C155.71,257.99998872070313,151.42,257.99998872070313,147,257.99998872070313C148.63405,249.82978872070314,154.11999,244.42438872070312,160.3242,239.09378872070312C162.1943,237.87318872070313,163.8187,237.41818872070314,166,236.99998872070313C166.0748,236.12858872070314,166.1495,235.25718872070314,166.2266,234.35938872070312C167.5811,222.08848872070314,171.2855,212.50158872070313,180.4336,203.97268872070313C187.41989999999998,198.60265872070312,196.9849,193.46970872070312,206,194.0000067207031Z" fill="#1E1E1F" fill-opacity="1" style="mix-blend-mode:passthrough"/></g><g><path d="M288,245.00000533203126C292.2426,248.13046533203124,295.7075,251.14526533203124,298,255.99996533203125C298,256.6599653320312,298,257.31996533203124,298,257.99996533203125C284.36469999999997,259.03416533203125,284.36469999999997,259.03416533203125,279.3125,255.06246533203125C278.73109999999997,254.51726533203126,278.1498,253.97196533203126,277.5508,253.41016533203126C273.3337,249.57546533203126,266.2988,250.62476533203125,260.9102,250.71096533203126C255.9777,251.07556533203126,253.7871,251.91746533203124,250,254.99996533203125C249.5978,255.53626533203123,249.1956,256.07246533203124,248.7812,256.62496533203125C245.9539,258.80746533203126,243.3029,258.28356533203123,239.8125,258.18746533203125C237.90404,258.14686533203127,237.90404,258.14686533203127,235.95703,258.10546533203126C234.98121,258.07066533203124,234.00539,258.0358653320312,233,257.99996533203125C237.93531,247.87626533203124,243.9751,242.80996533203125,254.4375,238.62500633203126C266.443,236.51877533203125,277.84770000000003,238.14390233203125,288,245.00000533203126Z" fill="#1D1C1D" fill-opacity="1" style="mix-blend-mode:passthrough"/></g><g><path d="M225.8633,237.90233635902345C227.1926,237.90717033902342,227.1926,237.90717033902342,228.5488,237.91210199902343C229.9168,237.92467029902343,229.9168,237.92467029902343,231.3125,237.93749259902344C232.2438,237.94200429902344,233.1752,237.94651599902343,234.13479999999998,237.95116449902343C236.4232,237.96290029902343,238.7116,237.97931899902343,241,237.99999259902344C238.8039,240.20078399902343,236.59980000000002,242.39061399902343,234.375,244.56249399902345C231.8953,246.95844399902344,231.8953,246.95844399902344,230,249.99997399902344C228.1875,250.15237399902344,228.1875,250.15237399902344,226,249.93747399902344C220.4511,249.74927399902344,215.826,251.29937399902343,211,253.99997399902344C210.3929,254.70127399902344,209.7857,255.40247399902344,209.1602,256.12497399902344C206.0572,258.81837399902344,203.7815,258.3992739990234,199.75,258.24997399902344C198.48672,258.21387399902346,197.22344,258.17777399902343,195.92188,258.14057399902345C194.47555,258.0709739990234,194.47555,258.0709739990234,193,257.99997399902344C196.27077,249.49037399902343,201.99605,244.77682399902343,210.1875,240.98827399902345C215.409,238.96100399902343,220.2778,237.86630109902345,225.8633,237.90233635902345Z" fill="#1D1D1E" fill-opacity="1" style="mix-blend-mode:passthrough"/></g><g><path d="M352.4375,399.687500296875C354.2986,399.643994296875,354.2986,399.643994296875,356.1973,399.599609396875C357.389,399.591230496875,358.5807,399.582851596875,359.8086,399.574218796875C361.4453,399.552344996875,361.4453,399.552344996875,363.115,399.530029296875C366.6683,400.108868296875,367.858,401.154699296875,370,403.999999296875C369.9375,406.624999296875,369.9375,406.624999296875,369,408.999999296875C363.9404,412.373129296875,358.0042,411.369029296875,352.0625,411.375029296875C350.1299,411.411729296875,350.1299,411.411729296875,348.1582,411.449229296875C346.9213,411.453129296875,345.6845,411.456929296875,344.4102,411.460929296875C343.27715,411.469129296875,342.14415,411.477329296875,340.97681,411.485829296875C337.40317,410.902629296875,336.24413,409.765829296875,334,406.999999296875C334.8125,404.062499296875,334.8125,404.062499296875,336,400.999999296875C341.28521,399.238263296875,346.9056,399.730471296875,352.4375,399.687500296875Z" fill="#1A1A1B" fill-opacity="1" style="mix-blend-mode:passthrough"/></g><g><path d="M318,233C325.90107,234.18305,333.4348,239.43485,339,245C346,254.8086,346,254.8086,346,258C341.5231,258.6142,337.4595,258.8224,333,258C326.83384,253.296,323.77739,246.04410000000001,321,239C320.01411,236.99301,319.02035,234.98969,318,233Z" fill="#1C1C1C" fill-opacity="1" style="mix-blend-mode:passthrough"/></g><g><path d="M134.9999990161133,400.00000366210935C137.4374790161133,401.68749866210936,137.4374790161133,401.68749866210936,138.9999790161133,404.0000086621094C138.83847901611327,407.39154866210936,138.4170790161133,408.58296866210935,135.9999790161133,410.99997866210936C129.9475990161133,411.5501786621094,129.9475990161133,411.5501786621094,127.06249901611328,409.87497866210936C125.50246001611328,407.1219886621094,125.60430001611329,405.0996586621094,126.00000201611329,401.99999866210936C129.49123901611327,399.67251016210935,130.89222901611328,399.4970106621094,134.9999990161133,400.00000366210935Z" fill="#1F1F1F" fill-opacity="1" style="mix-blend-mode:passthrough"/></g></g></svg>