<svg xmlns="http://www.w3.org/2000/svg" xmlns:xlink="http://www.w3.org/1999/xlink" fill="none" version="1.1" width="512" height="512" viewBox="0 0 512 512"><defs><clipPath id="master_svg0_9_213"><rect x="0" y="0" width="512" height="512" rx="0"/></clipPath></defs><g clip-path="url(#master_svg0_9_213)"><g><path d="M0,0C168.96,0,337.92,0,512,0C512,168.96,512,337.92,512,512C343.04,512,174.08,512,0,512C0,343.04,0,174.08,0,0Z" fill="#FBFDFD" fill-opacity="1" style="mix-blend-mode:passthrough"/></g><g><path d="M398.99982836914063,127.99999580078125C405.3178283691406,133.80229580078125,410.7408283691406,140.23319580078123,415.99982836914063,146.99999580078125C417.1908283691406,148.52369580078124,417.1908283691406,148.52369580078124,418.40582836914064,150.07809580078126C423.6238283691406,156.95619580078124,427.9118283691406,164.17789580078124,431.9378283691406,171.81249580078125C432.62882836914065,173.11939580078126,432.62882836914065,173.11939580078126,433.33382836914063,174.45259580078124C437.40782836914065,182.38269580078125,440.93682836914064,189.94069580078127,439.99982836914063,198.99969580078124C438.4568283691406,201.17469580078125,437.3638283691406,201.81869580078126,434.99982836914063,202.99969580078124C433.0508283691406,203.09969580078126,431.09782836914064,203.13269580078125,429.14582836914065,203.13669580078124C427.2628283691406,203.14469580078125,427.2628283691406,203.14469580078125,425.34282836914065,203.15269580078126C423.93682836914064,203.15269580078126,422.5318283691406,203.15369580078124,421.1258283691406,203.15369580078124C419.6428283691406,203.15769580078126,418.1598283691406,203.16269580078125,416.67682836914065,203.16669580078127C412.5868283691406,203.17869580078127,408.4958283691406,203.18469580078124,404.40582836914064,203.18969580078124C399.99982836914063,203.19569580078127,395.5938283691406,203.20669580078123,391.18882836914065,203.21769580078126C380.5418283691406,203.24169580078126,369.8948283691406,203.25669580078124,359.2488283691406,203.26969580078125C356.2428283691406,203.27369580078124,353.23782836914063,203.27769580078126,350.23282836914063,203.28169580078125C331.5818283691406,203.30669580078126,312.9308283691406,203.32869580078125,294.27982836914066,203.34069580078125C289.95882836914063,203.34369580078123,285.63682836914063,203.34669580078125,281.3148283691406,203.34969580078126C280.2408283691406,203.35069580078124,279.1668283691406,203.35169580078124,278.05982836914063,203.35269580078125C260.64882836914063,203.36469580078125,243.23882836914063,203.39869580078124,225.82782836914063,203.43969580078124C207.96582836914064,203.48269580078124,190.10282836914064,203.50569580078127,172.24082836914062,203.51069580078126C162.20662836914062,203.51469580078125,152.17242836914062,203.52669580078125,142.1380283691406,203.55969580078124C133.59442836914062,203.58669580078126,125.05102836914062,203.59869580078123,116.50732836914062,203.58669580078126C112.14622836914063,203.58169580078123,107.78542836914062,203.58469580078125,103.42422836914062,203.60969580078125C99.43372836914062,203.63169580078124,95.44382836914062,203.63169580078124,91.45332836914062,203.61269580078124C90.00782836914063,203.60969580078125,88.56222836914063,203.61469580078125,87.11682836914062,203.62969580078123C85.15522836914063,203.64869580078124,83.19352836914062,203.63469580078123,81.23192836914063,203.61769580078123C80.14132836914062,203.61969580078124,79.05068836914063,203.62069580078125,77.92702836914063,203.62169580078125C74.02822836914062,202.79369580078125,72.50124836914063,201.02569580078125,70.00000036914062,197.99969580078124C67.27663836914063,185.76869580078124,79.78782836914063,167.90679580078125,86.00002836914062,157.99999580078125C89.07072836914062,153.44619580078125,92.46562836914063,149.19999580078127,96.00002836914062,144.99999580078125C96.67032836914062,144.20079580078124,97.34062836914063,143.40159580078125,98.03122836914062,142.57809580078126C100.29202836914062,139.98689580078127,102.62872836914062,137.49089580078126,105.00002836914062,134.99999580078125C105.58102836914063,134.38109580078125,106.16212836914062,133.76219580078126,106.76072836914062,133.12449580078123C172.54282836914064,63.43929580078125,284.5758283691406,51.73749580078125,398.99982836914063,127.99999580078125Z" fill="#010101" fill-opacity="1" style="mix-blend-mode:passthrough"/></g><g><path d="M150.7214724243164,259.83888268359374C151.89667242431642,259.8292746835937,153.0718724243164,259.81966768359376,154.2821724243164,259.80976868359375C155.5541724243164,259.80551868359373,156.8261724243164,259.8012686835938,158.13717242431642,259.79689068359374C159.4451724243164,259.79118968359376,160.7541724243164,259.78548968359377,162.1021724243164,259.77961768359376C164.87517242431642,259.7691146835937,167.64817242431639,259.76326768359377,170.4211724243164,259.75978068359376C173.9581724243164,259.75431368359375,177.4931724243164,259.73032168359373,181.0291724243164,259.70180888359374C184.4191724243164,259.67857948359375,187.80917242431642,259.67672538359375,191.1991724243164,259.67189028359377C192.4611724243164,259.6595434835937,193.7221724243164,259.64719668359373,195.0221724243164,259.63447568359373C209.5641724243164,259.67112018359376,209.5641724243164,259.67112018359376,214.8901724243164,264.8320456835938C215.33917242431642,265.48560568359375,215.7881724243164,266.13915568359374,216.25017242431642,266.81251568359374C221.0401724243164,272.6286256835937,226.9321724243164,276.30332568359376,234.4531724243164,277.3372256835938C240.30317242431641,277.78792568359376,246.1451724243164,277.76772568359377,252.0091724243164,277.67242568359376C255.1261724243164,277.6250256835938,258.2391724243164,277.63132568359373,261.3551724243164,277.64452568359377C263.3641724243164,277.63342568359377,265.3741724243164,277.61922568359375,267.3831724243164,277.60162568359374C268.30017242431643,277.60342568359374,269.2171724243164,277.60522568359374,270.1611724243164,277.6071256835937C278.48217242431645,277.4271256835938,285.83317242431644,275.44312568359373,291.8751724243164,269.50001568359374C292.93417242431644,268.34944568359373,293.9781724243164,267.18438568359375,295.0001724243164,266.00001568359374C298.2681724243164,262.2216556835937,301.1381724243164,260.8530756835938,306.0001724243164,260.00001568359374C310.4601724243164,259.70012518359374,314.9101724243164,259.69593778359376,319.3791724243164,259.69923398359373C320.6641724243164,259.6949488835937,321.9501724243164,259.6906637835938,323.2741724243164,259.6862487835937C325.98517242431643,259.67881938359375,328.6951724243164,259.6790548835938,331.4061724243164,259.68434138359373C334.8681724243164,259.69014598359377,338.3301724243164,259.6731659835938,341.7921724243164,259.64999678359374C345.1121724243164,259.63167548359377,348.4331724243164,259.63544528359375,351.7541724243164,259.63673398359373C352.9911724243164,259.62752428359374,354.2291724243164,259.61831452359377,355.5041724243164,259.60882568359375C362.5181724243164,259.64654628359375,367.6521724243164,259.84965868359376,372.9841724243164,264.86720568359374C373.5671724243164,265.52978568359373,374.1501724243164,266.19235568359375,374.7501724243164,266.87501568359374C380.32417242431643,272.70732568359375,387.7791724243164,276.8476256835938,395.9301724243164,277.14182568359377C397.5781724243164,277.15662568359375,399.2261724243164,277.16772568359374,400.8751724243164,277.17582568359376C402.6831724243164,277.19902568359373,404.4921724243164,277.22312568359376,406.3011724243164,277.24802568359377C409.1401724243164,277.28302568359373,411.9781724243164,277.31242568359374,414.8181724243164,277.32592568359377C438.05717242431643,277.45822568359375,438.05717242431643,277.45822568359375,447.3751724243164,284.1875256835938C453.2991724243164,290.5351256835938,456.2491724243164,297.21132568359377,456.1681724243164,305.89452568359377C455.9111724243164,309.1184256835937,455.02117242431643,311.93712568359376,454.0001724243164,315.0000256835938C453.4841724243164,314.34002568359375,452.9691724243164,313.6800256835937,452.43717242431643,313.0000256835938C451.6331724243164,312.01002568359377,450.8291724243164,311.02002568359376,450.0001724243164,310.0000256835938C449.4911724243164,309.36062568359375,448.9811724243164,308.72122568359373,448.4571724243164,308.0625256835938C441.7191724243164,299.92192568359377,433.7341724243164,294.91652568359376,423.0461724243164,293.79492568359376C417.3451724243164,293.39102568359374,411.63417242431643,293.29942568359377,405.9221724243164,293.21482568359374C405.0111724243164,293.20012568359374,404.0991724243164,293.18542568359373,403.1611724243164,293.17022568359374C398.3401724243164,293.09632568359376,393.5201724243164,293.04312568359376,388.69917242431643,293.00462568359376C384.7381724243164,292.96912568359375,380.7821724243164,292.89252568359376,376.8231724243164,292.7790256835938C372.0061724243164,292.64102568359374,367.1931724243164,292.57352568359374,362.3741724243164,292.55492568359375C360.5541724243164,292.53682568359375,358.73517242431643,292.49512568359376,356.9161724243164,292.42812568359375C345.5341724243164,292.01642568359375,345.5341724243164,292.01642568359375,335.7411724243164,297.1814256835938C332.6441724243164,300.1259256835938,329.8471724243164,303.27102568359373,327.2011724243164,306.62472568359374C326.0001724243164,308.0000256835938,326.0001724243164,308.0000256835938,324.0001724243164,309.0000256835938C325.2081724243164,309.0059256835938,326.4151724243164,309.01172568359374,327.6601724243164,309.01782568359374C339.06217242431643,309.07512568359374,350.4641724243164,309.14792568359377,361.8661724243164,309.2357256835937C367.7281724243164,309.28042568359376,373.5891724243164,309.31962568359376,379.4511724243164,309.34642568359374C385.1111724243164,309.3725256835937,390.7721724243164,309.41292568359376,396.43217242431643,309.46322568359375C398.5881724243164,309.47982568359373,400.7431724243164,309.49132568359374,402.8991724243164,309.49762568359375C405.9271724243164,309.50732568359376,408.9541724243164,309.53542568359376,411.9821724243164,309.56762568359375C412.8661724243164,309.56622568359376,413.7501724243164,309.56472568359374,414.6611724243164,309.56332568359375C421.3311724243164,309.66322568359374,427.6271724243164,310.7593256835938,433.2691724243164,314.50782568359375C438.7091724243164,320.20932568359376,442.1391724243164,325.9780256835937,442.43717242431643,334.0000256835938C442.0721724243164,341.59712568359373,439.9651724243164,347.87642568359377,434.7501724243164,353.49612568359373C429.4751724243164,358.02892568359374,423.2921724243164,360.1218256835938,416.4211724243164,360.1338256835937C414.6691724243164,360.14082568359373,414.6691724243164,360.14082568359373,412.8821724243164,360.14782568359374C411.5931724243164,360.14782568359374,410.3031724243164,360.14782568359374,408.9751724243164,360.14682568359376C407.5961724243164,360.1508256835938,406.2181724243164,360.15382568359377,404.8391724243164,360.1578256835937C401.0421724243164,360.16882568359375,397.2441724243164,360.17182568359374,393.4471724243164,360.1748256835938C389.3551724243164,360.17882568359374,385.2631724243164,360.18782568359376,381.1711724243164,360.1968256835937C371.2841724243164,360.21682568359375,361.3971724243164,360.22682568359374,351.5101724243164,360.23582568359376C346.8551724243164,360.2398256835937,342.2001724243164,360.24582568359375,337.5461724243164,360.25082568359375C322.0751724243164,360.26782568359374,306.6031724243164,360.28182568359375,291.1321724243164,360.28982568359373C287.11717242431644,360.29082568359377,283.1011724243164,360.2928256835937,279.0861724243164,360.2948256835938C277.58817242431644,360.29582568359376,277.58817242431644,360.29582568359376,276.0611724243164,360.29682568359374C259.89117242431644,360.3048256835938,243.72017242431642,360.32982568359375,227.5501724243164,360.36282568359377C210.95217242431642,360.3958256835938,194.3541724243164,360.41382568359376,177.75717242431642,360.41682568359374C168.4361724243164,360.41882568359375,159.11517242431643,360.42782568359377,149.79477242431642,360.4538256835938C141.8573724243164,360.47482568359374,133.9200724243164,360.4828256835938,125.9825724243164,360.47382568359376C121.9329724243164,360.46882568359376,117.88357242431641,360.4708256835937,113.8340724243164,360.4898256835937C110.1246724243164,360.50782568359375,106.4158724243164,360.5068256835938,102.7065724243164,360.49182568359373C100.7332724243164,360.48782568359377,98.7598724243164,360.50382568359373,96.78667242431641,360.5208256835938C87.60107242431641,360.4538256835938,80.71047242431641,358.71052568359374,73.99997242431641,352.0000256835938C69.5896724243164,345.24082568359376,67.04277242431641,339.20502568359376,67.99997242431641,331.0000256835938C69.73537242431641,323.72412568359374,72.4877724243164,317.12482568359377,78.99997242431641,313.0000256835938C85.3078724243164,310.3279256835938,91.0335724243164,309.55632568359374,97.8342724243164,309.56762568359375C98.7718724243164,309.55742568359375,99.7095724243164,309.54722568359375,100.67557242431641,309.5367256835938C103.74347242431641,309.5068256835938,106.8109724243164,309.49742568359375,109.8788724243164,309.48832568359376C112.0183724243164,309.47142568359374,114.15787242431641,309.45332568359373,116.2973724243164,309.43392568359377C121.90487242431641,309.38652568359373,127.51227242431641,309.35662568359373,133.11997242431642,309.3304256835938C138.8515724243164,309.30062568359375,144.5829724243164,309.25412568359377,150.31447242431642,309.2090256835937C161.54317242431642,309.12312568359374,172.7711724243164,309.0557256835938,184.00017242431642,309.0000256835938C175.09117242431643,297.5584256835937,175.09117242431643,297.5584256835937,162.1351724243164,292.36062568359375C157.91117242431642,292.16432568359374,153.7346724243164,292.25872568359375,149.5116724243164,292.42972568359374C147.67387242431641,292.45012568359374,145.83597242431642,292.4642256835938,143.9979724243164,292.47242568359377C139.2001724243164,292.51232568359376,134.4091724243164,292.64462568359374,129.6136724243164,292.79522568359374C125.7095724243164,292.9017256835938,121.8061724243164,292.94072568359377,117.9008724243164,292.97642568359373C113.2082724243164,293.02102568359373,108.51627242431641,293.09632568359376,103.8241724243164,293.17972568359374C102.94347242431641,293.19442568359375,102.0626724243164,293.20912568359375,101.15527242431641,293.22432568359375C87.23717242431641,293.4975256835937,74.6170724243164,294.30622568359377,64.24607242431641,304.76952568359377C62.766272424316405,306.4719256835938,61.37040242431641,308.20892568359375,60.000002424316406,310.0000256835938C58.82437242431641,311.45412568359376,58.82437242431641,311.45412568359376,57.625002424316406,312.9375256835938C56.820622424316404,313.95842568359376,56.820622424316404,313.95842568359376,56.000002424316406,315.0000256835938C53.19012442431641,306.5704256835937,53.036926424316405,299.0813256835937,57.000002424316406,291.0000256835938C61.923302424316404,283.46162568359375,68.33467242431641,279.90192568359373,76.99997242431641,278.0000256835938C78.3508724243164,277.91002568359374,79.7052724243164,277.86502568359373,81.05907242431641,277.85812568359376C82.24147242431641,277.8476256835938,82.24147242431641,277.8476256835938,83.44777242431641,277.83682568359376C84.2925724243164,277.83272568359376,85.13737242431641,277.82852568359374,86.00777242431641,277.82422568359374C87.81767242431641,277.80102568359376,89.62757242431641,277.77692568359373,91.43747242431641,277.75192568359375C94.2744724243164,277.71702568359376,97.1110724243164,277.68762568359375,99.9482724243164,277.67412568359373C117.4445724243164,277.9411256835937,117.4445724243164,277.9411256835937,132.2499724243164,269.56251568359374C132.88807242431642,268.96310568359377,133.5261724243164,268.36368568359376,134.18357242431642,267.7461056835937C135.0826724243164,266.88179568359374,135.0826724243164,266.88179568359374,135.9999724243164,266.00001568359374C140.9048724243164,261.65122568359374,144.0690724243164,259.88276468359373,150.7214724243164,259.83888268359374Z" fill="#010101" fill-opacity="1" style="mix-blend-mode:passthrough"/></g><g><path d="M80.13448786621093,376.37361051757813C81.40098786621094,376.3611885175781,82.66748786621093,376.3487665175781,83.97238786621094,376.3359680175781C85.38058786621093,376.3474696175781,86.78878786621094,376.3594419175781,88.19698786621093,376.37183381757814C89.69078786621094,376.3667905175781,91.18458786621093,376.3595634175781,92.67838786621094,376.3503357175781C96.78918786621094,376.3313552875781,100.89938786621093,376.3436793775781,105.01018786621094,376.3610586175781C109.44108786621094,376.3743989175781,113.87188786621094,376.35900761757813,118.30278786621093,376.34723671757814C126.98518786621094,376.3288307175781,135.66738786621096,376.3373920975781,144.34988786621093,376.3553249175781C151.40448786621096,376.3693347175781,158.45898786621092,376.3732472175781,165.51368786621094,376.3698826175781C166.51658786621095,376.3694052175781,167.51958786621094,376.3689277175781,168.55298786621094,376.36843581757813C170.59068786621094,376.36740951757815,172.62768786621092,376.36635421757813,174.66468786621095,376.3652701175781C192.69168786621094,376.35669701757814,210.71868786621093,376.3733976175781,228.74468786621094,376.4030991175781C246.24868786621093,376.43193801757815,263.75168786621094,376.4390210175781,281.25468786621093,376.4236069175781C300.30168786621095,376.40685651757815,319.34968786621096,376.40279871757815,338.3966878662109,376.4203173175781C340.42668786621095,376.42216171757815,342.4566878662109,376.4239964175781,344.48668786621096,376.42582131757814C345.4856878662109,376.42673341757813,346.4836878662109,376.4276455175781,347.51368786621094,376.4285853175781C354.56168786621095,376.43419781757814,361.60968786621095,376.43087671757814,368.6586878662109,376.42427641757814C377.24468786621094,376.41655521757815,385.83068786621095,376.42325181757815,394.41768786621094,376.4484510175781C398.8006878662109,376.4609750175781,403.18368786621096,376.46705901757815,407.56668786621094,376.4559100175781C411.57668786621093,376.44590401757813,415.58568786621095,376.45424801757815,419.59468786621096,376.47749101757813C421.0486878662109,376.4826710175781,422.50168786621094,376.4810520175781,423.95568786621095,376.4720960175781C425.9256878662109,376.46096401757814,427.89568786621095,376.47668101757813,429.8656878662109,376.4938650175781C430.9616878662109,376.4950570175781,432.0576878662109,376.4962480175781,433.18668786621095,376.49747601757815C436.69668786621094,377.12454801757815,437.87868786621095,378.1750880175781,439.99968786621093,381.0000180175781C440.4086878662109,383.81146801757814,440.57168786621094,386.1361980175781,440.49968786621093,388.93756801757814C440.48768786621093,389.69096801757814,440.47568786621093,390.4444680175781,440.46368786621093,391.2207680175781C440.07868786621094,402.2207680175781,436.72268786621095,411.3192680175781,429.99968786621093,420.00006801757814C428.88668786621093,421.5778680175781,428.88668786621093,421.5778680175781,427.74968786621093,423.18756801757814C420.44368786621095,430.66016801757814,410.61168786621096,435.03086801757814,400.18868786621096,435.3803680175781C397.95268786621097,435.39796801757814,395.71768786621095,435.3994680175781,393.48168786621096,435.3876680175781C392.24368786621096,435.3930680175781,391.00568786621096,435.3984680175781,389.7306878662109,435.40406801757814C386.31568786621096,435.4157680175781,382.90068786621094,435.41426801757814,379.4856878662109,435.4068680175781C375.7936878662109,435.40206801757813,372.10268786621094,435.41466801757815,368.4116878662109,435.42486801757815C361.18868786621096,435.4420680175781,353.96568786621094,435.4428680175781,346.74168786621095,435.4376680175781C340.86968786621094,435.4335680175781,334.99668786621095,435.43506801757815,329.12468786621093,435.4403680175781C327.86868786621096,435.4415680175781,327.86868786621096,435.4415680175781,326.58868786621093,435.4426680175781C324.88868786621094,435.44416801757814,323.1876878662109,435.44576801757813,321.48768786621093,435.44726801757815C305.555687866211,435.4609680175781,289.62368786621096,435.4555680175781,273.6926878662109,435.4440680175781C259.127687866211,435.43416801757814,244.56268786621095,435.44706801757815,229.99768786621092,435.47106801757815C215.02868786621093,435.4954680175781,200.06068786621094,435.50506801757814,185.09168786621092,435.4983680175781C176.69368786621095,435.49486801757814,168.29498786621093,435.4970680175781,159.89658786621095,435.5146680175781C152.74768786621092,435.5293680175781,145.59888786621093,435.52996801757814,138.44998786621093,435.51256801757813C134.80508786621095,435.5040680175781,131.16048786621093,435.50186801757815,127.51568786621094,435.51726801757815C123.55868786621093,435.5336680175781,119.60208786621094,435.51886801757814,115.64498786621094,435.5012680175781C113.92948786621093,435.51566801757815,113.92948786621093,435.51566801757815,112.17928786621093,435.5303680175781C102.42378786621094,435.4408680175781,94.85528786621094,432.84586801757814,86.99998786621094,427.00006801757814C86.19308786621093,426.4057680175781,85.38608786621094,425.81146801757814,84.55468786621094,425.1992680175781C77.15476786621093,418.8289680175781,71.47467786621094,407.6750680175781,69.99999786621093,398.00006801757814C69.83235486621093,395.31776801757815,69.72462186621094,392.68286801757813,69.68749806621094,390.00006801757814C69.64399246621093,388.9519680175781,69.64399246621093,388.9519680175781,69.59960746621094,387.8828680175781C69.55722236621094,384.4268580175781,69.83405586621093,382.2725980175781,71.64319786621094,379.30088801757813C74.63783786621094,376.3773189175781,75.99976786621093,376.3746280175781,80.13448786621093,376.37361051757813Z" fill="#000000" fill-opacity="1" style="mix-blend-mode:passthrough"/></g><g><path d="M84.25733217163086,218.86857308105468C85.50033217163086,218.86473208105468,86.74333217163085,218.8608900810547,88.02403217163086,218.85693308105468C89.39533217163086,218.8577130810547,90.76673217163085,218.8585920810547,92.13813217163086,218.8595590810547C93.60123217163087,218.8569730810547,95.06423217163086,218.85396008105468,96.52733217163086,218.8505550810547C100.54393217163086,218.84250008105468,104.56063217163086,218.8406960810547,108.57723217163087,218.83995808105468C112.91063217163085,218.8381050810547,117.24413217163087,218.83055608105468,121.57753217163086,218.8238220810547C131.05063217163087,218.81025008105468,140.52373217163085,218.80421608105468,149.99683217163084,218.79981208105468C155.91233217163085,218.7970480810547,161.82813217163084,218.79281008105468,167.74313217163086,218.78830808105468C184.12413217163086,218.77611708105468,200.50513217163086,218.76581708105468,216.88513217163086,218.7624330810547C217.93313217163086,218.76221308105468,218.98113217163086,218.7619930810547,220.06113217163085,218.7617670810547C221.11113217163086,218.76154908105468,222.16213217163087,218.7613310810547,223.24413217163087,218.7611060810547C225.37313217163086,218.76066208105468,227.50213217163085,218.7602160810547,229.63013217163086,218.7597660810547C231.21413217163087,218.75943408105468,231.21413217163087,218.75943408105468,232.83013217163085,218.75909508105468C249.94413217163086,218.75514608105468,267.05813217163086,218.7376880810547,284.17113217163086,218.71440658105467C301.7441321716309,218.6906930810547,319.3171321716309,218.67823078105468,336.89013217163085,218.67706468105467C346.75613217163084,218.6761479810547,356.6221321716309,218.67039768105468,366.48713217163083,218.6522450810547C374.88713217163087,218.6368442810547,383.28613217163087,218.6317235810547,391.68613217163085,218.63998318105467C395.97013217163084,218.64388948105469,400.25513217163086,218.64296088105468,404.5401321716309,218.62892578105468C408.46513217163084,218.6161862010547,412.3891321716309,218.61738488105468,416.31413217163083,218.62951658105467C417.73213217163084,218.6314733810547,419.14913217163087,218.6283954810547,420.56613217163084,218.61967218105468C430.7111321716309,218.5611956810547,439.77413217163087,218.96612708105468,447.4921321716309,226.19921808105468C451.0691321716309,230.47105808105468,452.7641321716309,235.0785580810547,453.4371321716309,240.56245808105467C452.63813217163084,246.8454580810547,450.6801321716309,252.5664580810547,446.00013217163087,256.9999580810547C439.68913217163083,260.6937580810547,434.14513217163085,261.56135808105466,426.93313217163086,261.3906580810547C426.0141321716309,261.38495808105466,425.09413217163086,261.3792580810547,424.14713217163086,261.3734580810547C421.24313217163086,261.3512580810547,418.3411321716309,261.30115808105467,415.4371321716309,261.2499580810547C413.45513217163085,261.2299580810547,411.4731321716309,261.2116580810547,409.4901321716309,261.1953580810547C404.66013217163083,261.15145808105467,399.83013217163085,261.0825580810547,395.00013217163087,260.9999580810547C394.6701321716309,260.3399580810547,394.34013217163084,259.6799580810547,394.00013217163087,258.9999580810547C395.0931321716309,258.9174580810547,396.18613217163085,258.8349580810547,397.3121321716309,258.7499580810547C400.94713217163087,258.3265580810547,400.94713217163087,258.3265580810547,402.9371321716309,256.3124580810547C404.33813217163083,253.26395808105468,404.48413217163085,251.3207580810547,404.00013217163087,247.99995808105467C402.61613217163085,245.6607580810547,402.61613217163085,245.6607580810547,400.00013217163087,243.99995808105467C396.88113217163084,243.4003580810547,393.8001321716309,243.45375808105467,390.6321321716309,243.4824580810547C389.68413217163084,243.47545808105468,388.7351321716309,243.4683580810547,387.75813217163085,243.4611580810547C384.61813217163086,243.44355808105468,381.4801321716309,243.4552580810547,378.34013217163084,243.4687580810547C376.15213217163085,243.46605808105468,373.96513217163084,243.4621580810547,371.77713217163085,243.45715808105467C367.18613217163085,243.45125808105468,362.59613217163087,243.45985808105468,358.00513217163086,243.4785580810547C352.14313217163084,243.5012580810547,346.28213217163085,243.48825808105468,340.4201321716309,243.46425808105468C335.89813217163083,243.44965808105468,331.37613217163084,243.4543580810547,326.85413217163085,243.4647580810547C324.6941321716309,243.4673580810547,322.53513217163083,243.46415808105468,320.37513217163087,243.45485808105468C302.51013217163086,243.06185808105468,302.51013217163086,243.06185808105468,286.62513217163087,250.37495808105467C284.72213217163085,252.2779580810547,283.05413217163084,254.1082580810547,281.37513217163087,256.1874580810547C278.7631321716309,259.2806580810547,277.23213217163084,260.75655808105466,273.14713217163086,261.2021580810547C270.79813217163087,261.31545808105466,268.45713217163086,261.35595808105467,266.1051321716309,261.3710580810547C264.8071321716309,261.3846580810547,264.8071321716309,261.3846580810547,263.48213217163084,261.3984580810547C261.6531321716309,261.4129580810547,259.82313217163085,261.42185808105467,257.99313217163086,261.4255580810547C255.20713217163086,261.4374580810547,252.42413217163087,261.4865580810547,249.63913217163085,261.5371580810547C247.85713217163087,261.5465580810547,246.07513217163086,261.55385808105467,244.29313217163087,261.5585580810547C243.46713217163085,261.5781580810547,242.64013217163085,261.5976580810547,241.78913217163085,261.6177580810547C235.64313217163087,261.5703580810547,232.67313217163087,259.9906580810547,228.00013217163087,255.99995808105467C226.32013217163086,254.12105808105468,226.32013217163086,254.12105808105468,225.12513217163087,252.43745808105467C221.03813217163085,247.39475808105468,215.20913217163087,245.3517580810547,209.00013217163087,243.99995808105467C207.61013217163085,243.91115808105468,206.21813217163086,243.8695580810547,204.82513217163086,243.8662580810547C204.00113217163087,243.8620580810547,203.17713217163086,243.8577580810547,202.32713217163086,243.8533580810547C200.98413217163085,243.8540580810547,200.98413217163085,243.8540580810547,199.61313217163087,243.85475808105468C198.66313217163085,243.85135808105468,197.71313217163086,243.8480580810547,196.73413217163085,243.84455808105469C193.59413217163086,243.83505808105468,190.45313217163087,243.83305808105467,187.31213217163085,243.8320580810547C185.13013217163086,243.82885808105468,182.94913217163088,243.82545808105468,180.76713217163086,243.82195808105467C176.19413217163086,243.8159580810547,171.62113217163085,243.8140580810547,167.04813217163087,243.8146580810547C161.18313217163086,243.8147580810547,155.31873217163087,243.8011580810547,149.45413217163087,243.7839580810547C144.94863217163086,243.7728580810547,140.44313217163085,243.77075808105468,135.93763217163087,243.7712580810547C133.77503217163087,243.7701580810547,131.61243217163087,243.76565808105468,129.44983217163087,243.75795808105468C126.42873217163086,243.7481580810547,123.40783217163086,243.75105808105468,120.38673217163085,243.75705808105468C119.04313217163086,243.74865808105469,119.04313217163086,243.74865808105469,117.67243217163086,243.74005808105468C116.43603217163086,243.7463580810547,116.43603217163086,243.7463580810547,115.17453217163086,243.75275808105468C114.46073217163087,243.7522580810547,113.74693217163086,243.7516580810547,113.01153217163086,243.75115808105468C110.63003217163086,244.0457580810547,109.03763217163086,244.74505808105468,107.00003217163086,245.99995808105467C105.59543217163086,248.80915808105468,105.75103217163087,250.88805808105468,106.00003217163086,253.99995808105467C106.85213217163086,256.4420580810547,106.85213217163086,256.4420580810547,109.00003217163086,257.9999580810547C111.70303217163087,258.6344580810547,114.20973217163086,258.8170580810547,117.00003217163086,258.9999580810547C114.64743217163087,261.35255808105467,114.17563217163087,261.2625580810547,110.98433217163085,261.32225808105466C109.74163217163087,261.3510580810547,109.74163217163087,261.3510580810547,108.47383217163086,261.3804580810547C107.57503217163085,261.3889580810547,106.67613217163085,261.3974580810547,105.75003217163086,261.4062580810547C104.35813217163086,261.4233580810547,104.35813217163086,261.4233580810547,102.93823217163086,261.4407580810547C100.96783217163086,261.4597580810547,98.99733217163086,261.4727580810547,97.02683217163086,261.4804580810547C94.03883217163086,261.49975808105467,91.05373217163086,261.5616580810547,88.06643217163085,261.6249580810547C69.05683217163086,261.8363580810547,69.05683217163086,261.8363580810547,62.00000217163086,254.99995808105467C57.80614317163086,250.10455808105468,56.61963817163086,244.3806580810547,57.00000187163086,237.99995808105467C58.60602217163086,230.8257580810547,61.84344217163086,225.9963680810547,68.00003217163086,221.99999808105468C73.04613217163086,219.00655008105468,78.50903217163086,218.87526108105467,84.25733217163086,218.86857308105468Z" fill="#000101" fill-opacity="1" style="mix-blend-mode:passthrough"/></g><g><path d="M197,293C234.95,293,272.9,293,312,293C306.805,299.06127,301.76099999999997,304.7087,295.66020000000003,309.8242C291.6791,313.2886,287.97180000000003,316.9825,284.2695,320.7383C283.3656,321.654,283.3656,321.654,282.4434,322.58820000000003C279.9241,325.1441,277.4077,327.7028,274.9006,330.2708C273.0512,332.1625,271.1924,334.0447,269.332,335.9258C268.77049999999997,336.506,268.20889999999997,337.0861,267.63030000000003,337.6839C264.0615,341.2758,261.0434,343.6886,255.8242,344.22270000000003C251.3159,343.8847,248.5666,343.0163,245.207,339.9336C244.5171,339.3025,243.8273,338.6714,243.1165,338.0212C238.9928,334.0831,234.9924,330.0313,231,325.9609C227.1174,322.0328,223.13060000000002,318.3274,218.9463,314.7236C215.7777,311.9176,212.8331,308.8996,209.875,305.875C206.54972,302.47599,203.25597,299.14403,199.57031,296.13281C198.72211,295.42898,197.873906,294.72516,197,294C197,293.67,197,293.34,197,293Z" fill="#FBFCFD" fill-opacity="1" style="mix-blend-mode:passthrough"/></g><g><path d="M331.81247392578126,327.2382773945312C332.85897392578124,327.23490879453124,333.9054739257813,327.2315400945312,334.98367392578126,327.2280692945312C337.19257392578123,327.22836789453123,339.40157392578124,327.24358779453127,341.61037392578123,327.27270129453126C344.98887392578126,327.31236639453124,348.3635739257812,327.29340859453123,351.74217392578123,327.26757429453124C353.89067392578124,327.27513379453126,356.0390739257813,327.28608759453124,358.18747392578126,327.3007773945312C359.19597392578123,327.29379329453127,360.2043739257812,327.28680919453126,361.24337392578127,327.27961349453125C365.94437392578124,327.37412439453124,368.27427392578124,327.46367739453126,372.14057392578127,330.32104439453127C374.58287392578126,333.83983439453124,374.6869739257813,335.8017443945312,373.99997392578126,339.99995439453124C372.13287392578127,342.36495439453125,370.67937392578125,343.66025439453125,367.99997392578126,344.99995439453124C366.54627392578124,345.11455439453124,365.08767392578125,345.16935439453124,363.6296739257813,345.19285439453125C362.27267392578125,345.21695439453123,362.27267392578125,345.21695439453123,360.8882739257813,345.24155439453125C356.74897392578123,345.28595439453125,352.60987392578124,345.3270543945313,348.4704739257812,345.35005439453124C346.28707392578127,345.3666543945312,344.10377392578124,345.39395439453125,341.9206739257813,345.43215439453127C338.7736739257812,345.48685439453124,335.6278739257813,345.50875439453125,332.48047392578127,345.52345439453126C331.01927392578125,345.55745439453125,331.01927392578125,345.55745439453125,329.52857392578125,345.59215439453124C324.87007392578124,345.57755439453126,322.71650392578124,345.54565439453125,318.91528392578124,342.6508543945312C316.6498929257813,339.5154543945313,315.84150492578124,337.88305439453126,315.99999712578125,333.99999439453126C320.04673392578127,327.05572339453124,324.1776739257813,327.1225763945312,331.81247392578126,327.2382773945312Z" fill="#FBFCFD" fill-opacity="1" style="mix-blend-mode:passthrough"/></g><g><path d="M151.84761728515625,327.3710814C152.89651728515625,327.3686694,153.94531728515625,327.3662574,155.02601728515626,327.3637724C157.23911728515625,327.3647503,159.45231728515625,327.37813,161.66531728515625,327.4030638C165.05441728515626,327.437405,168.44091728515625,327.4237102,171.83011728515623,327.4042845C173.98181728515624,327.411182,176.13351728515624,327.4208536,178.28511728515625,327.433581C179.80561728515625,327.4261416,179.80561728515625,327.4261416,181.35671728515626,327.4185514C188.34541728515626,327.535723,188.34541728515626,327.535723,191.61111728515624,329.851795C193.43811728515624,332.677535,193.93131728515624,334.632455,194.00001728515625,338.000025C192.39591728515626,341.529025,191.25841728515624,342.827725,188.00001728515625,345.000025C185.91981728515626,345.253925,185.91981728515626,345.253925,183.50021728515625,345.258825C182.59241728515624,345.265125,181.68461728515626,345.271425,180.74931728515625,345.277925C179.77111728515627,345.273825,178.79291728515625,345.269825,177.78511728515625,345.265625C176.27421728515625,345.268525,176.27421728515625,345.268525,174.73281728515624,345.271425C172.60191728515625,345.272725,170.47101728515625,345.269125,168.34011728515625,345.260725C165.07871728515624,345.250025,161.81791728515626,345.260625,158.55661728515625,345.273425C156.48701728515624,345.272125,154.41731728515626,345.269525,152.34761728515625,345.265625C151.37151728515624,345.269625,150.39541728515624,345.273725,149.38971728515625,345.277925C148.02321728515625,345.268425,148.02321728515625,345.268425,146.62911728515624,345.258825C145.82991728515626,345.257225,145.03064728515625,345.255625,144.20717728515626,345.253925C141.69128728515625,344.964425,140.13156728515625,344.360125,138.00000728515624,343.000025C135.49968728515626,339.249525,135.46396828515626,337.441425,136.00000428515625,332.999985C140.24579728515624,326.830551,144.98309728515625,327.281112,151.84761728515625,327.3710814Z" fill="#FCFCFD" fill-opacity="1" style="mix-blend-mode:passthrough"/></g><g><path d="M347,168.00000829589843C350.4941,171.05730829589845,351.8077,172.92315829589845,352.625,177.50002829589843C351.8007,182.11592829589844,350.2903,183.70962829589843,347,187.00002829589843C343.4884,188.75582829589843,339.7133,187.95142829589844,336,187.00002829589843C332.89328,184.35932829589842,332.13488,182.46362829589845,331,178.56252829589843C331,174.09405829589844,332.1142,172.35376829589845,335,169.00000829589843C338.52741,166.10249029589843,342.8544,166.60446129589843,347,168.00000829589843Z" fill="#F7F8F8" fill-opacity="1" style="mix-blend-mode:passthrough"/></g><g><path d="M174,168.00000829589843C177.4941,171.05730829589845,178.8077,172.92315829589845,179.625,177.50002829589843C178.8007,182.11592829589844,177.2903,183.70962829589843,174,187.00002829589843C170.4884,188.75582829589843,166.7133,187.95142829589844,163,187.00002829589843C159.89328,184.35932829589842,159.13488,182.46362829589845,158,178.56252829589843C158,174.09405829589844,159.1142,172.35376829589845,162,169.00000829589843C165.52741,166.10249029589843,169.8544,166.60446129589843,174,168.00000829589843Z" fill="#F8F9F9" fill-opacity="1" style="mix-blend-mode:passthrough"/></g><g><path d="M212.99999262695312,144.0000032529297C216.53029262695313,147.0595542529297,218.83019262695314,149.0893742529297,219.24999262695312,153.81253425292968C218.96709262695313,157.4199342529297,218.15429262695312,159.12753425292968,215.99999262695312,162.00003425292968C212.29249262695313,164.47163425292968,209.29799262695312,164.7785342529297,204.99999262695312,164.00003425292968C202.19653262695311,162.65243425292968,201.14010262695314,161.4533342529297,198.9999936269531,159.00003425292968C197.74542062695312,154.9411342529297,197.7439606269531,152.78316425292968,199.0624936269531,148.7500042529297C202.70023262695312,143.5867542529297,206.98908262695312,141.95373425292968,212.99999262695312,144.0000032529297Z" fill="#F7F8F9" fill-opacity="1" style="mix-blend-mode:passthrough"/></g><g><path d="M306,144.00000260253907C309.7022,146.54526260253905,310.7682,148.18865260253907,312,152.50000260253907C312,157.31804260253907,310.5097,159.37844260253905,307.3125,162.81254260253905C303.9079,164.56084260253905,300.6886,164.80504260253906,297,164.00004260253905C293.39093,161.08204260253905,291.216226,158.90274260253906,290.6875,154.25004260253905C291.07779,150.19098260253907,292.49587,148.16698260253906,295,145.00000260253907C298.4861,143.25695260253906,302.1964,143.42847660253906,306,144.00000260253907Z" fill="#F8F9F8" fill-opacity="1" style="mix-blend-mode:passthrough"/></g><g><path d="M259.00001696777343,128.99999497167968C263.57631696777344,132.1525359716797,263.57631696777344,132.1525359716797,265.00001696777343,134.99999597167968C265.5811169677734,142.08954597167968,265.5811169677734,142.08954597167968,263.12501696777343,145.9374459716797C259.86981696777343,149.0969459716797,257.5759169677734,149.33424597167968,253.03906696777344,149.2929459716797C249.86865696777343,148.8374459716797,248.18076696777345,147.24684597167968,246.00000696777343,144.9999459716797C244.40183896777344,141.80364597167969,244.63294896777344,138.4770459716797,245.00000396777344,134.99999597167968C246.34430696777343,131.7453559716797,247.29253696777343,130.42065597167968,250.31250696777343,128.62499497167968C253.65785696777343,127.84700497167968,255.70061696777344,128.03767597167968,259.00001696777343,128.99999497167968Z" fill="#F7F9F9" fill-opacity="1" style="mix-blend-mode:passthrough"/></g><g><path d="M305.9999899902344,100.00000333251953C309.66308999023437,102.51834833251954,310.7535899902344,104.20283833251953,312.0624899902344,108.43749833251954C311.9849899902344,112.85872833251953,310.80828999023436,114.64562833251954,307.9999899902344,118.00002833251953C304.2741899902344,120.48382833251954,302.41288999023436,120.38042833251953,298.0000099902344,120.00002833251953C295.1772499902344,118.74542833251954,293.5371199902344,117.71612833251953,291.6875099902344,115.25002833251953C290.68801899023435,111.97892833251953,290.64184399023435,109.40257833251954,291.0000099902344,105.99999833251954C294.9903499902344,99.88148333251954,298.9714899902344,98.94390433251954,305.9999899902344,100.00000333251953Z" fill="#F8F9F9" fill-opacity="1" style="mix-blend-mode:passthrough"/></g><g><path d="M213.00004792480468,99.99999823681641C215.8702479248047,101.79393023681641,217.4913479248047,102.9826302368164,219.00004792480468,106.0000002368164C219.37514792480468,110.9706302368164,219.1587479248047,114.0515302368164,216.00004792480468,118.0000302368164C212.5708479248047,120.5719302368164,209.1606479248047,120.50213023681641,204.9999979248047,120.0000302368164C201.8011279248047,118.10433023681641,199.63839792480468,116.65373023681641,198.2656229248047,113.0976302368164C197.4880279248047,109.0463802368164,197.8401727248047,107.30311023681641,199.8124979248047,103.5625002368164C203.5536479248047,99.1800092368164,207.49836792480468,99.2873512368164,213.00004792480468,99.99999823681641Z" fill="#F8F9F9" fill-opacity="1" style="mix-blend-mode:passthrough"/></g><g><path d="M172.99997751464844,106.99999771289062C175.93747751464844,109.43750071289062,175.93747751464844,109.43750071289062,177.99997751464844,112.00000071289062C178.32997751464845,112.33000071289062,178.65997751464843,112.66000071289062,178.99997751464844,113.00000071289062C179.55737751464844,118.68498071289062,178.58547751464843,121.57078071289062,174.99997751464844,125.99998071289062C171.76017751464843,127.61988071289062,168.50167751464843,127.56518071289062,164.99999751464844,126.99998071289062C162.19295751464844,125.65958071289063,161.13944751464842,124.45258071289062,158.99999551464845,121.99998071289062C157.80609951464845,118.06718071289063,157.55200051464843,116.03746071289062,159.18749751464844,112.25000071289062C163.05815751464843,107.44504171289063,166.69874751464843,105.61222171289063,172.99997751464844,106.99999771289062Z" fill="#F9F9F9" fill-opacity="1" style="mix-blend-mode:passthrough"/></g><g><path d="M139.99997795410155,135.99999333398438C142.92487795410156,137.82547733398437,145.43427795410156,139.86857733398438,146.99997795410155,142.99999733398437C147.39447795410157,147.18141733398437,147.45037795410155,149.30941733398438,145.12497795410155,152.87501733398437C142.28057795410157,155.71941733398438,140.61127795410155,156.20351733398437,136.68747795410155,156.37501733398437C133.05837795410156,156.3224173339844,132.12563795410156,156.08641733398437,128.99999795410156,153.93751733398437C126.57926895410156,150.38201733398438,125.92449285410156,148.30371733398437,125.99999713410156,143.99999733398437C127.61226795410157,140.83515733398437,129.00602795410157,138.72890733398438,131.87499795410156,136.62499333398438C134.85515795410157,135.74847433398438,136.89837795410156,135.56576733398438,139.99997795410155,135.99999333398438Z" fill="#F8F9F9" fill-opacity="1" style="mix-blend-mode:passthrough"/></g><g><path d="M376,135.99999253417968C379.0413,137.63763753417967,381.2862,139.0999275341797,383.4375,141.8124975341797C384.3133,145.2181975341797,383.8914,147.61274753417968,383,150.99994753417968C380.94259999999997,154.0218475341797,379.5005,155.6901475341797,375.8438,156.4453475341797C371.73866,156.65054753417968,369.53902,156.3368475341797,366,154.12494753417968C363.405193,151.36804753417968,363.038898,150.51534753417968,362.75,146.68744753417968C363.016311,142.7594075341797,363.565184,141.0435175341797,366,137.9999975341797C369.21855,135.6693175341797,372.10491,135.53258153417968,376,135.99999253417968Z" fill="#F8F9F9" fill-opacity="1" style="mix-blend-mode:passthrough"/></g><g><path d="M347.8124719238281,108.25000175048828C351.1059719238281,110.88478175048829,351.80897192382815,112.74483175048829,352.4374719238281,116.87498175048827C351.8224719238281,121.26828175048828,350.08097192382814,122.84568175048828,346.9999719238281,125.99998175048827C343.7830719238281,127.60848175048828,340.4786119238281,127.61308175048828,336.9999819238281,126.99998175048827C334.30893192382814,124.82428175048828,332.54466192382813,123.08938175048829,330.99998692382815,119.99998175048827C330.5879379238281,115.36445175048829,331.12544392382813,112.69584175048828,333.9999819238281,109.00000175048828C338.16054192382813,105.87958575048827,343.2187719238281,106.20833175048828,347.8124719238281,108.25000175048828Z" fill="#F8F8F9" fill-opacity="1" style="mix-blend-mode:passthrough"/></g><g><path d="M259.0000000244141,90.99999685498047C261.8100000244141,92.79363885498047,263.50940002441405,94.01880885498046,265.0000000244141,96.99999885498048C265.37510002441405,101.97068885498047,265.15880002441406,105.05148885498048,262.0000000244141,108.99998885498047C258.57910002441406,111.56568885498046,255.15230002441407,111.43708885498047,251.00000002441405,110.99998885498047C248.24671002441406,109.20438885498046,246.47372002441406,107.94748885498046,244.99999802441405,104.99998885498047C244.41888402441407,97.91040885498047,244.41888402441407,97.91040885498047,246.87500002441405,94.06249885498048C250.50940002441405,90.53498685498047,254.09217002441406,90.29484985498047,259.0000000244141,90.99999685498047Z" fill="#F9FAFA" fill-opacity="1" style="mix-blend-mode:passthrough"/></g><g><path d="M256.84373940429685,168.53125410273438C260.01243940429686,169.22010680273436,261.8051394042969,170.66799780273436,264.0000394042969,173.0000078027344C265.53213940429686,176.0642978027344,265.22933940429687,178.61659780273436,265.0000394042969,181.99999780273438C263.7584394042969,184.79349780273438,262.67323940429685,186.45139780273436,260.3125394042969,188.37499780273438C256.72733940429686,189.34399780273438,253.50570940429688,189.05519780273437,249.99998940429688,187.99999780273438C246.99998940429688,185.93749780273438,246.99998940429688,185.93749780273438,244.99999440429687,182.99999780273438C244.2669754042969,178.3819878027344,244.28433940429687,175.41040780273437,246.93748940429688,171.5000078027344C250.53786940429688,168.56091980273436,252.32573940429688,168.23005380273437,256.84373940429685,168.53125410273438Z" fill="#F9FAFA" fill-opacity="1" style="mix-blend-mode:passthrough"/></g></g></svg>