<svg xmlns="http://www.w3.org/2000/svg" xmlns:xlink="http://www.w3.org/1999/xlink" fill="none" version="1.1" width="105" height="51" viewBox="0 0 105 51"><defs><clipPath id="master_svg0_4_514"><rect x="0" y="0" width="105" height="51" rx="0"/></clipPath></defs><g clip-path="url(#master_svg0_4_514)"><g><path d="M91.875,6.375L91.875,10.625C91.875,31.0824,68.3681,40.375,39.375,40.375L31.0538,40.375C31.9812,33.9745,36.085,30.1006,46.795,25.4979C52.0625,23.2348,51.6163,21.9279,49.0219,22.678C31.1544,27.8418,22.281869999999998,34.8203,21.88812,45.9638L21.875,46.75L13.125,46.75C13.125,43.8536,13.6325,41.225,14.63875,38.8195C13.6325,36.0698,13.125,32.338300000000004,13.125,27.625C13.125,15.88863,32.7119,6.375,56.875,6.375C65.625,6.375,74.375,8.5,91.875,6.375Z" fill="#C7FF86" fill-opacity="1" style="mix-blend-mode:passthrough"/></g></g></svg>