<svg xmlns="http://www.w3.org/2000/svg" xmlns:xlink="http://www.w3.org/1999/xlink" fill="none" version="1.1" width="99.75" height="64.91667175292969" viewBox="0 0 99.75 64.91667175292969"><g><path d="M99.75,0L99.75,6.83333C99.75,39.7256,69.9746,54.6667,33.25,54.6667L22.7097,54.6667C23.8846,44.3757,29.0827,38.1471,42.6487,30.7466C49.3208,27.1078,48.7556,25.0066,45.4694,26.2127C22.8372,34.5152,11.5987,45.7355,11.1,63.6525L11.0833,64.9167L0,64.9167C0,60.2598,0.642833,56.0333,1.91742,52.1657C0.642833,47.7445,0,41.7448,0,34.1667C0,15.2964,24.81,0,55.4167,0C66.5,0,77.5833,3.41667,99.75,0Z" fill="#5FB100" fill-opacity="1" style="mix-blend-mode:passthrough"/></g></svg>