<svg xmlns="http://www.w3.org/2000/svg" xmlns:xlink="http://www.w3.org/1999/xlink" fill="none" version="1.1" width="512" height="512" viewBox="0 0 512 512"><defs><clipPath id="master_svg0_9_095"><rect x="0" y="0" width="512" height="512" rx="0"/></clipPath></defs><g clip-path="url(#master_svg0_9_095)"><g><path d="M0,0C168.96,0,337.92,0,512,0C512,168.96,512,337.92,512,512C343.04,512,174.08,512,0,512C0,343.04,0,174.08,0,0Z" fill="#F4F7F7" fill-opacity="1" style="mix-blend-mode:passthrough"/></g><g><path d="M370.324654296875,109.66792091064454C371.207654296875,110.43752091064454,372.090654296875,111.20712091064453,372.999654296875,112.00002091064454C374.463654296875,113.26262091064453,374.463654296875,113.26262091064453,375.956654296875,114.55082091064453C387.019654296875,124.27102091064452,406.643654296875,142.07782091064453,408.238654296875,157.26952091064453C408.362654296875,161.52382091064453,408.250654296875,164.43642091064453,406.499654296875,168.37462091064452C403.376654296875,171.65462091064452,400.147654296875,173.2886209106445,395.999654296875,174.99962091064452C396.329654296875,175.98962091064453,396.659654296875,176.97962091064454,396.999654296875,177.99962091064452C395.514654296875,178.49462091064453,395.514654296875,178.49462091064453,393.999654296875,178.99962091064452C393.919654296875,182.52162091064451,393.959654296875,185.61962091064453,394.999654296875,188.99962091064452C395.659654296875,188.99962091064452,396.319654296875,188.99962091064452,396.999654296875,188.99962091064452C397.061654296875,188.29862091064453,397.123654296875,187.59762091064454,397.187654296875,186.87462091064452C398.296654296875,182.94862091064454,400.128654296875,180.87162091064454,402.999654296875,177.99962091064452C407.587654296875,175.70562091064454,411.068654296875,175.67862091064453,415.999654296875,176.99962091064452C429.169654296875,186.26162091064452,430.802654296875,208.49162091064454,433.406654296875,223.31562091064453C437.660654296875,249.21962091064452,435.483654296875,283.1226209106445,423.999654296875,306.9996209106445C421.791654296875,310.07562091064455,419.150654296875,311.89962091064456,415.999654296875,313.9996209106445C411.023654296875,314.7256209106445,407.156654296875,314.74062091064457,402.874654296875,311.9996209106445C402.256654296875,311.3396209106445,401.637654296875,310.67962091064453,400.999654296875,309.9996209106445C399.514654296875,311.97962091064454,399.514654296875,311.97962091064454,397.999654296875,313.9996209106445C398.659654296875,314.3296209106445,399.319654296875,314.65962091064455,399.999654296875,314.9996209106445C399.339654296875,314.9996209106445,398.679654296875,314.9996209106445,397.999654296875,314.9996209106445C397.999654296875,315.65962091064455,397.999654296875,316.3196209106445,397.999654296875,316.9996209106445C399.113654296875,317.34062091064453,399.113654296875,317.34062091064453,400.249654296875,317.68762091064457C404.091654296875,319.52062091064454,406.114654296875,322.22962091064454,407.999654296875,325.9996209106445C409.263654296875,334.31662091064453,406.846654296875,339.39362091064453,401.999654296875,345.9996209106445C393.166654296875,357.9876209106445,383.579654296875,369.5646209106445,371.999654296875,378.9996209106445C371.266654296875,379.62162091064454,370.532654296875,380.2426209106445,369.777654296875,380.8826209106445C342.360654296875,403.61862091064455,308.958654296875,415.3456209106445,273.999654296875,419.9996209106445C273.05865429687503,420.1326209106445,272.117654296875,420.26562091064454,271.148654296875,420.40262091064454C228.909654296875,425.55862091064455,180.91665429687498,411.33262091064455,147.19925429687498,385.5936209106445C142.049454296875,381.4976209106445,137.238054296875,377.0476209106445,132.518554296875,372.46762091064454C131.08285429687498,371.0796209106445,129.624054296875,369.7166209106445,128.164054296875,368.3556209106445C118.92555429687499,359.52762091064454,103.929754296875,344.9596209106445,102.796854296875,331.6056209106445C103.102554296875,326.48462091064454,104.682154296875,322.98162091064455,107.999954296875,318.9996209106445C110.249954296875,317.1246209106445,110.249954296875,317.1246209106445,111.999954296875,315.9996209106445C107.565154296875,314.7096209106445,104.050654296875,313.9016209106445,99.437454296875,314.2496209106445C96.081254296875,314.2786209106445,94.018554296875,313.8776209106445,91.249954296875,311.93762091064457C78.682164296875,299.48562091064457,76.802917296875,266.76362091064453,76.670654296875,250.47462091064452C76.676208496875,249.28662091064453,76.681762696875,248.09862091064454,76.687499996875,246.87462091064452C76.692413296875,245.61262091064452,76.697326696875,244.35162091064453,76.702392596875,243.05062091064454C76.927490296875,224.91262091064453,78.464504296875,195.12362091064455,90.335954296875,180.33562091064454C93.877554296875,176.98162091064455,97.208754296875,175.99962091064452,101.999954296875,175.99962091064452C107.873454296875,177.72162091064453,110.57075429687501,180.15862091064452,113.999954296875,184.99962091064452C116.546854296875,192.64062091064454,114.292354296875,199.57662091064452,111.999954296875,206.99962091064452C112.329954296875,206.66962091064454,112.659954296875,206.33962091064453,112.999954296875,205.99962091064452C113.659954296875,206.32962091064454,114.320054296875,206.65962091064452,114.999954296875,206.99962091064452C115.659954296875,206.33962091064453,116.320054296875,205.67962091064453,116.999954296875,204.99962091064452C117.329954296875,205.32962091064454,117.659954296875,205.65962091064452,117.999954296875,205.99962091064452C118.659954296875,204.67962091064453,119.320054296875,203.35962091064454,119.999954296875,201.99962091064452C122.639954296875,202.65962091064452,125.27995429687499,203.31962091064455,127.999954296875,203.99962091064452C128.14115429687502,203.00762091064453,128.14115429687502,203.00762091064453,128.285154296875,201.99562091064453C133.850354296875,178.67062091064452,155.078954296875,154.35102091064454,174.999954296875,142.00002091064454C176.320054296875,142.00002091064454,177.639654296875,142.00002091064454,178.999654296875,142.00002091064454C179.61865429687498,141.64942091064455,180.237654296875,141.29872091064453,180.874654296875,140.93752091064454C183.829654296875,139.63392091064452,185.91665429687498,140.29932091064452,188.999654296875,141.00002091064454C190.884654296875,137.82972091064454,191.136654296875,135.77372091064453,190.874654296875,132.12502091064454C190.81665429687502,127.17902091064454,191.42465429687502,124.66102091064454,194.999654296875,121.00002091064454C209.700654296875,110.74632091064453,233.678654296875,107.72932091064453,250.999654296875,107.00002091064454C251.814654296875,106.95872091064453,252.629654296875,106.91752091064453,253.468654296875,106.87502091064454C261.377654296875,106.66412091064453,269.185654296875,107.91412091064453,276.999654296875,109.00002091064454C276.999654296875,108.34002091064454,276.999654296875,107.68002091064453,276.999654296875,107.00002091064454C276.339654296875,106.67002091064452,275.679654296875,106.34002091064454,274.999654296875,106.00002091064454C275.999654296875,103.00002091064454,275.999654296875,103.00002091064454,278.999654296875,101.00002091064454C274.545654296875,96.54542091064454,259.645654296875,98.69862091064454,253.872654296875,98.68162091064454C217.775654296875,98.70872091064453,184.109654296875,112.26862091064453,156.999954296875,136.00002091064454C156.172454296875,136.68322091064454,155.34485429687498,137.36642091064454,154.49215429687501,138.0703209106445C144.604354296875,146.47032091064455,137.181254296875,157.07212091064451,129.851554296875,167.6953209106445C126.716154296875,171.59762091064454,124.026054296875,173.71362091064452,119.187454296875,175.0626209106445C114.14815429687499,175.48262091064453,110.770954296875,173.11962091064453,106.999954296875,169.99962091064452C104.081954296875,166.79952091064453,103.113154296875,164.15452091064452,102.687454296875,159.81252091064454C104.055454296875,143.12352091064452,126.36385429687499,122.13132091064453,138.573754296875,111.64892091064453C146.896454296875,104.70652091064453,155.659754296875,98.49352091064453,164.999954296875,93.00002091064454C165.680954296875,92.59922091064453,166.36185429687498,92.19852091064453,167.063454296875,91.78562091064452C231.400654296875,54.59182091064453,313.520654296875,61.61594091064453,370.324654296875,109.66792091064454Z" fill="#FAFCFB" fill-opacity="1" style="mix-blend-mode:passthrough"/></g><g><path d="M370.3245,109.66792091064454C371.2075,110.43752091064454,372.0905,111.20712091064453,372.9995,112.00002091064454C374.4635,113.26262091064453,374.4635,113.26262091064453,375.9575,114.55082091064453C387.0195,124.27102091064452,406.6435,142.07782091064453,408.2385,157.26952091064453C408.4065,163.05032091064453,408.0445,166.51852091064453,403.9995,170.99962091064452C400.1795,174.37162091064454,396.4785,174.37962091064452,391.5975,174.49562091064453C386.4025,173.50362091064454,383.1955,170.53662091064453,380.2105,166.34762091064454C379.2585,164.92412091064455,378.3135,163.49552091064453,377.3755,162.06252091064454C356.3945,131.31172091064454,322.8565,109.12642091064453,286.3565,101.44192091064454C244.2915,93.55522091064454,205.0435,102.24622091064452,169.7896,125.76072091064452C165.2772,128.88552091064452,161.1253,132.38882091064454,157,136.00002091064454C156.1724,136.68322091064454,155.3448,137.36642091064454,154.4922,138.0703209106445C144.6043,146.47032091064455,137.1812,157.07212091064451,129.8516,167.6953209106445C126.7161,171.59762091064454,124.026,173.71362091064452,119.1875,175.0626209106445C114.1481,175.48262091064453,110.771,173.11962091064453,107,169.99962091064452C104.08194,166.79952091064453,103.11319,164.15452091064452,102.6875,159.81252091064454C104.05545,143.12352091064452,126.3639,122.13132091064453,138.5737,111.64892091064453C146.8964,104.70652091064453,155.6598,98.49352091064453,165,93.00002091064454C166.0214,92.39892091064453,166.0214,92.39892091064453,167.0635,91.78562091064452C231.4015,54.59182091064453,313.52049999999997,61.61594091064453,370.3245,109.66792091064454Z" fill="#1A1A1A" fill-opacity="1" style="mix-blend-mode:passthrough"/></g><g><path d="M124.437475,317.25C128.856675,320.03534,131.172775,324.45181,133.910175,328.7813C146.559275,348.2633,164.652575,362.3504,184.999975,373C186.736375,373.9088,186.736375,373.9088,188.50777499999998,374.8359C224.059875,392.7478,266.289875,394.5238,303.95687499999997,382.7305C322.332875,376.6217,339.12687500000004,367.3711,353.999875,355C355.496875,353.7702,355.496875,353.7702,357.023875,352.5156C365.681875,345.0158,372.266875,336.2178,378.999875,327C380.074875,325.53258,381.152875,324.06766,382.234875,322.60547C382.708875,321.96118,383.182875,321.31689,383.670875,320.65308C386.708875,316.87404,389.182875,316.090832,393.937875,315.5625C398.233875,315.748611,400.719875,317.1671,403.999875,320C407.831875,324.23494,408.769875,327.8089,408.495875,333.375C405.414875,349.6801,384.372875,368.918,371.999875,379C371.266875,379.6213,370.532875,380.2427,369.776875,380.8828C342.36087499999996,403.6186,308.957875,415.3453,273.999875,420.0005C273.058875,420.1325,272.117875,420.2655,271.148875,420.40250000000003C228.908875,425.5585,180.916775,411.3326,147.199175,385.5937C142.049475,381.4979,137.238075,377.0471,132.518575,372.4673C131.082875,371.0801,129.624075,369.717,128.164075,368.3555C118.925475,359.5272,103.929725,344.96,102.796875,331.6055C103.100815,326.5145,104.585805,322.87557,107.999995,319C113.559575,315.293643,118.197275,314.980836,124.437475,317.25Z" fill="#1A1A1B" fill-opacity="1" style="mix-blend-mode:passthrough"/></g><g><path d="M284.49999013671874,146.25000525878906C288.15569013671876,148.27255525878905,290.65669013671874,149.86684525878906,291.99999013671874,154.00001525878906C291.5056901367187,157.98581525878907,290.11699013671875,161.18341525878907,288.36719013671876,164.77731525878906C287.81559013671875,165.91601525878906,287.2640901367188,167.05461525878906,286.69579013671876,168.22781525878906C286.08909013671877,169.46451525878905,285.48219013671877,170.70101525878906,284.87499013671874,171.93751525878906C284.24819013671873,173.22401525878905,283.62179013671874,174.51071525878905,282.99559013671876,175.79761525878905C276.63809013671874,188.83591525878907,270.1408901367188,201.80521525878908,263.6254901367188,214.76511525878908C261.43129013671876,219.13181525878906,259.2461901367187,223.50301525878905,257.06249013671874,227.87501525878906C256.44929013671873,229.10161525878908,255.83599013671875,230.32821525878904,255.22269013671874,231.55471525878906C254.81919013671876,232.36161525878907,254.41569013671875,233.16861525878906,253.99999013671874,234.00001525878906C251.80079013671875,234.03511525878906,251.80079013671875,234.03511525878906,248.99999013671874,233.00001525878906C246.99179013671875,230.35911525878907,245.62719013671875,227.41681525878906,244.18749013671874,224.43751525878906C243.80019013671875,223.66991525878905,243.41279013671874,222.90221525878906,243.01369013671876,222.11131525878906C241.65839013671877,219.41591525878906,240.32989013671875,216.70801525878906,238.99999013671874,214.00001525878906C237.78129013671875,211.54291525878907,236.56059013671876,209.08691525878908,235.33599013671875,206.63281525878907C235.00089013671874,205.96121525878905,234.66579013671875,205.28951525878907,234.32059013671875,204.59751525878906C231.96429013671874,199.88921525878908,229.56549013671875,195.20411525878905,227.14749013671874,190.52721525878906C225.35379013671874,187.05251525878907,223.57449013671874,183.57051525878907,221.79659013671875,180.08761525878907C220.88065013671874,178.30161525878907,219.95831013671875,176.51871525878906,219.03004013671875,174.73901525878907C217.66837013671875,172.12471525878905,216.33024013671874,169.49951525878907,214.99610013671875,166.87111525878908C214.57856013671875,166.08251525878907,214.16102013671875,165.29381525878907,213.73083013671874,164.48131525878907C211.29521943671875,159.61451525878905,210.40932513671876,156.45571525878907,212.00000713671875,151.00000525878906C216.61048013671876,146.50774525878907,219.86340013671875,145.67236525878906,226.09379013671875,145.69922525878906C229.29099013671876,146.03012525878907,231.86669013671874,146.87979525878907,234.87499013671874,148.00000525878906C241.54889013671874,150.40193525878905,248.41779013671874,151.60574525878906,255.28519013671874,149.19922525878906C257.25499013671873,148.21620525878907,259.12449013671875,147.15165525878905,260.99999013671874,146.00000525878906C269.0090901367187,141.61769525878907,276.3822901367188,142.50520725878906,284.49999013671874,146.25000525878906Z" fill="#1B1B1B" fill-opacity="1" style="mix-blend-mode:passthrough"/></g><g><path d="M419.0351305664062,179.12499310058593C431.79163056640624,190.30880310058595,433.8440305664063,221.09280310058594,435.0000305664063,237.00000310058593C436.06543056640623,257.81730310058595,435.16733056640624,291.4488031005859,422.74613056640624,308.74580310058593C419.39253056640626,312.2798031005859,416.17353056640627,314.325803100586,411.3125305664062,314.56280310058594C405.8800505664062,314.49080310058594,403.28615056640626,312.43280310058594,399.4960905664062,308.7268031005859C396.32172056640627,305.06280310058594,396.61799256640626,301.63880310058596,396.64062156640625,296.9488031005859C397.17101056640627,291.12080310058593,398.5785605664062,285.5708031005859,400.04541056640625,279.9148031005859C406.78053056640624,253.89590310058594,404.87840056640624,228.57690310058592,398.1604005664062,202.77540310058595C397.8857505664063,201.71380310058595,397.61109056640623,200.65230310058593,397.32812056640626,199.55860310058594C397.07321056640626,198.59880310058594,396.8182965664063,197.63900310058594,396.55566056640623,196.65010310058594C395.43889256640625,191.32390310058594,396.1706445664062,187.51570310058594,398.81250056640624,182.68749310058593C404.40780056640625,175.81326410058594,411.2414305664062,173.66839310058594,419.0351305664062,179.12499310058593Z" fill="#1A1A1B" fill-opacity="1" style="mix-blend-mode:passthrough"/></g><g><path d="M105.999954296875,177.00000156054688C109.598754296875,179.20544956054687,112.253554296875,181.76671956054687,114.437454296875,185.37499956054688C116.141654296875,193.32759956054687,114.129954296875,200.36629956054688,112.124954296875,208.06249956054688C104.980654296875,236.82929956054687,105.472954296875,264.4392995605469,114.265654296875,292.91379956054686C115.256454296875,297.07779956054685,115.693654296875,301.00779956054686,114.265654296875,305.1097995605469C111.391354296875,309.75279956054686,109.173554296875,312.2757995605469,103.999954296875,313.9997995605469C99.320354296875,314.71679956054686,95.225254296875,314.72679956054685,91.249954296875,311.93779956054686C78.682164296875,299.48579956054687,76.802919296875,266.7632995605469,76.670654296875,250.47439956054689C76.676214216875,249.28659956054688,76.681772196875,248.09879956054687,76.687499996875,246.87499956054688C76.692415196875,245.61309956054686,76.697328596875,244.3511995605469,76.702392596875,243.05099956054687C76.919565296875,225.55129956054688,78.222534296875,194.14599956054687,90.476554296875,180.33593956054688C95.317154296875,176.06767336054688,99.860054296875,175.16702456054688,105.999954296875,177.00000156054688Z" fill="#1A1A1B" fill-opacity="1" style="mix-blend-mode:passthrough"/></g><g><path d="M359.9999587402344,238.99999322265626C366.7050587402344,244.15920322265626,371.49025874023437,249.27850322265624,374.9999587402344,257.00000322265623C375.49505874023436,257.99000322265624,375.49505874023436,257.99000322265624,375.9999587402344,259.00000322265623C376.1874587402344,262.50000322265623,376.1874587402344,262.50000322265623,375.9999587402344,266.00000322265623C375.0100587402344,266.99000322265624,375.0100587402344,266.99000322265624,373.9999587402344,268.00000322265623C369.40335874023435,267.75370322265627,365.4842587402344,266.8814032226563,361.1249587402344,265.43750322265623C352.89655874023435,262.89600322265625,346.07005874023434,263.27840322265627,338.1914587402344,266.80470322265626C332.84695874023436,269.7199032226562,329.2915587402344,274.4364032226563,326.9999587402344,280.00000322265623C325.77925874023435,285.0829032226562,325.77925874023435,285.0829032226562,326.9999587402344,290.00000322265623C329.4568587402344,289.9149032226562,329.4568587402344,289.9149032226562,331.9999587402344,289.00000322265623C333.2636587402344,286.63810322265624,333.2636587402344,286.63810322265624,333.9374587402344,283.75000322265623C335.70245874023436,278.32100322265626,337.0019587402344,275.8420032226563,341.9999587402344,273.00000322265623C346.0164587402344,272.37680322265624,348.00065874023437,272.3594032226562,351.4374587402344,274.56250322265623C353.6231587402344,277.9722032226563,353.55005874023436,280.01220322265624,352.9999587402344,284.00000322265623C349.7743587402344,290.45120322265626,344.5180587402344,295.4853032226563,337.90625874023436,298.3320032226562C326.16875874023435,302.21250322265627,317.48395874023436,301.71640322265625,305.9999587402344,297.00000322265623C295.5682587402344,291.3997032226562,287.8617787402344,282.14130322265623,284.3164187402344,270.8164032226563C282.76060484023435,264.62540322265625,281.95594774023436,258.13220322265624,284.00000874023436,252.00000322265626C285.77344874023436,251.08200322265625,285.77344874023436,251.08200322265625,288.00000874023436,251.00000322265626C290.22656874023437,252.51170322265625,290.22656874023437,252.51170322265625,292.62500874023436,254.68750322265626C299.7249587402344,260.62310322265625,306.59305874023437,263.8200032226562,315.9765587402344,263.4570032226562C321.85395874023436,262.56860322265624,327.75275874023436,260.80840322265624,332.9999587402344,258.00000322265623C334.09175874023435,256.03520322265626,334.09175874023435,256.03520322265626,333.9999587402344,254.00000322265626C333.5049587402344,253.01000322265625,333.5049587402344,253.01000322265625,332.9999587402344,252.00000322265626C328.8155587402344,251.73850322265625,325.83405874023435,251.90080322265624,321.9374587402344,253.50000322265626C318.46035874023437,254.90570322265626,315.7938587402344,255.60360322265626,311.9999587402344,255.00000322265626C309.6249587402344,253.43750322265626,309.6249587402344,253.43750322265626,307.9999587402344,251.00000322265626C307.3914587402344,246.89200322265626,307.7010587402344,244.62270322265624,309.4999587402344,240.87500322265626C322.4412587402344,225.99260322265624,345.01085874023437,228.75230322265625,359.9999587402344,238.99999322265626Z" fill="#1B1B1B" fill-opacity="1" style="mix-blend-mode:passthrough"/></g><g><path d="M307.9999304199219,119.9999900390625C311.01893041992184,123.0661900390625,312.7479304199219,125.9678900390625,313.2809304199219,130.2694900390625C313.0629304199219,135.6141900390625,311.1419304199219,138.8105900390625,307.5699304199219,142.6874900390625C304.62393041992186,145.1497900390625,301.1329304199219,145.5059900390625,297.37893041992186,145.4921900390625C293.2169304199219,144.63109003906249,290.0606304199219,142.0481900390625,286.5898304199219,139.6913900390625C280.2549304199219,135.5540900390625,273.3520304199219,135.3093900390625,266.00003041992187,135.9999900390625C262.4163304199219,136.8704900390625,259.25843041992186,138.2618900390625,256.08203041992186,140.1249900390625C250.49103041992188,143.3389900390625,246.2676304199219,143.45809003906248,240.00003041992187,141.9999900390625C238.75943041992187,141.5068900390625,237.52933041992188,140.98649003906252,236.31253041992187,140.4374900390625C229.5493304199219,137.6160900390625,220.5750304199219,138.1247900390625,213.6015304199219,139.8319900390625C212.74303041992187,140.2174900390625,211.88453041992187,140.60289003906252,211.00003041992187,140.9999900390625C210.6700304199219,141.9899900390625,210.34003041992187,142.9799900390625,210.00003041992187,143.9999900390625C206.48313041992188,145.7584900390625,202.82793041992187,145.68069003906248,199.0000004199219,144.9999900390625C195.62074041992187,142.9699900390625,192.77602041992188,140.5520900390625,191.00000041992186,136.9999900390625C190.47458641992188,132.2109900390625,190.51660141992187,128.1645900390625,192.3750004199219,123.6874900390625C216.02893041992186,99.4703300390625,281.6116304199219,101.0848800390625,307.9999304199219,119.9999900390625Z" fill="#1A1A1B" fill-opacity="1" style="mix-blend-mode:passthrough"/></g><g><path d="M202.99995017089844,202.9999982324219C213.56715017089846,210.49398823242188,220.22525017089845,221.39788823242188,222.99995017089844,233.99998823242188C224.00485017089844,242.4384882324219,222.90545017089843,250.61038823242188,217.56245017089844,257.43748823242186C213.86995017089845,261.12998823242185,212.34375017089843,261.84828823242185,207.12495017089844,262.43748823242186C203.44575017089844,262.30708823242185,200.93755017089845,261.35618823242186,198.17575017089843,258.76558823242186C196.23365017089844,255.84918823242188,195.91085017089844,252.73748823242187,195.51955017089844,249.30468823242188C194.90625017089843,246.58388823242188,194.21545017089844,245.65898823242188,191.99995017089844,243.99998823242188C188.04205017089845,242.92668823242187,185.60105017089845,242.3048882324219,181.80465017089844,243.95308823242186C179.05115017089844,245.6397882324219,176.63795017089845,247.3159882324219,174.42965017089844,249.68358823242187C173.95785017089844,250.11798823242188,173.48605017089844,250.5523882324219,172.99995017089844,250.99998823242188C169.65805017089843,250.75548823242187,168.39455017089844,250.39458823242188,165.99995017089844,247.99998823242188C166.23955017089844,245.04508823242188,166.81795017089843,243.2654882324219,168.49995017089844,240.81248823242188C170.70565017089842,236.67678823242187,171.10685017089844,232.65718823242187,170.99995017089844,227.99998823242188C170.25965017089845,224.81388823242187,170.25965017089845,224.81388823242187,167.99995017089844,222.99998823242188C164.35645017089843,222.5874882324219,161.49215017089844,222.87948823242186,157.93745017089844,223.74998823242188C153.83682017089845,224.09898823242187,152.11831017089844,222.53818823242187,149.00000017089843,219.99998823242188C147.24055517089843,216.48108823242188,147.47238117089844,212.84058823242188,148.00000017089843,208.99998823242188C150.45977017089842,202.54022823242187,154.88757017089844,198.91461823242187,160.99995017089844,195.9999982324219C175.17245017089843,190.27651823242186,190.57675017089844,195.52223823242187,202.99995017089844,202.9999982324219Z" fill="#1D1D1D" fill-opacity="1" style="mix-blend-mode:passthrough"/></g><g><path d="M284.43751696777343,296.06251948242186C291.1273169677734,299.9841194824219,296.4593169677734,304.9686694824219,299.3359169677734,312.28516948242185C301.52821696777346,321.24756948242185,301.0900169677734,330.0119694824219,296.34371696777345,337.98826948242186C295.90031696777345,338.65216948242187,295.45691696777345,339.3160694824219,295.00001696777343,339.9999694824219C294.42251696777345,340.9281694824219,293.84501696777346,341.85626948242185,293.25001696777343,342.8124694824219C287.18481696777343,348.70926948242186,279.08641696777346,351.9190694824219,270.68751696777343,352.3749694824219C262.7605169677734,352.1720694824219,255.44321696777342,348.69066948242187,250.00000696777343,342.9999694824219C243.62075796777344,333.6337694824219,242.19374896777344,326.2184694824219,243.00000396777344,314.9999694824219C244.60027696777342,308.23256948242187,248.55955696777343,303.22293948242185,254.00001696777343,299.00001948242186C263.21911696777346,293.42446378242187,274.3336169677734,291.32147948242186,284.43751696777343,296.06251948242186Z" fill="#1D1D1D" fill-opacity="1" style="mix-blend-mode:passthrough"/></g><g><path d="M345.13279375,149.28906200683593C351.62159375,153.76658200683593,355.20769375,159.23358200683595,356.99999375,166.99998200683595C357.98409375,176.42328200683593,356.11649375,184.34158200683595,350.24999375,191.87498200683592C344.93929375,197.60458200683593,337.73009375,200.13078200683594,330.06249375,200.43748200683592C321.84729375,200.35498200683594,315.09469375,197.78718200683593,309.02342375,192.17188200683594C304.01748375,186.10558200683593,301.27469275,177.94778200683595,301.65623855,170.06248200683595C302.99405375,162.03558200683594,306.90031375,155.33568200683595,312.99999375,150.00000200683593C323.18639375,143.43122200683592,334.73299375,143.00344200683594,345.13279375,149.28906200683593Z" fill="#3D3D3D" fill-opacity="1" style="mix-blend-mode:passthrough"/></g><g><path d="M206.62503381347656,304.0625158691406C213.66763381347656,308.25256586914065,218.40233381347656,314.4807158691406,220.68753381347656,322.3750158691406C221.74693381347657,331.2740158691406,220.56073381347656,338.90271586914065,215.31643381347658,346.41021586914064C212.46883381347658,349.7844158691406,210.07763381347655,352.20261586914063,206.00003381347656,354.0000158691406C205.50503381347656,352.0200158691406,205.50503381347656,352.0200158691406,205.00003381347656,350.0000158691406C205.66003381347656,350.0000158691406,206.32003381347656,350.0000158691406,207.00003381347656,350.0000158691406C206.71123381347655,349.4844158691406,206.42253381347655,348.9687158691406,206.12503381347656,348.4375158691406C204.71223381347656,345.3764158691406,203.87513381347657,342.2505158691406,203.00003381347656,339.0000158691406C198.72123381347657,339.41591586914063,198.72123381347657,339.41591586914063,195.12503381347656,341.5625158691406C194.75373381347657,342.0369158691406,194.38253381347656,342.51121586914064,194.00003381347656,343.0000158691406C192.51503381347658,342.5050158691406,192.51503381347658,342.5050158691406,191.00003381347656,342.0000158691406C190.91753381347655,341.11311586914064,190.83503381347657,340.2262158691406,190.75003381347656,339.3125158691406C189.87263381347657,335.43761586914064,189.00553381347657,333.6101158691406,186.00003381347656,331.0000158691406C182.36763381347657,330.8284158691406,182.36763381347657,330.8284158691406,179.00003381347656,332.0000158691406C176.64933381347657,334.8938158691406,176.64933381347657,334.8938158691406,177.12503381347656,338.5625158691406C177.65093381347657,341.9719158691406,177.65093381347657,341.9719158691406,179.68753381347656,343.5000158691406C182.69763381347656,344.1508158691406,185.00633381347657,343.6370158691406,188.00003381347656,343.0000158691406C191.59853381347656,343.0000158691406,193.09453381347657,343.9583158691406,196.00003381347656,346.0000158691406C196.00003381347656,346.66001586914064,196.00003381347656,347.3200158691406,196.00003381347656,348.0000158691406C196.66003381347656,348.33001586914065,197.32003381347656,348.66001586914064,198.00003381347656,349.0000158691406C197.67003381347655,349.33001586914065,197.34003381347657,349.66001586914064,197.00003381347656,350.0000158691406C195.88623381347657,349.9588158691406,194.77253381347657,349.91751586914063,193.62503381347656,349.8750158691406C190.06983381347658,349.6440158691406,190.06983381347658,349.6440158691406,188.06253381347656,351.5000158691406C187.71183381347657,351.9950158691406,187.36123381347656,352.4900158691406,187.00003381347656,353.0000158691406C187.99003381347657,353.66001586914064,188.98003381347655,354.3200158691406,190.00003381347656,355.0000158691406C186.18443381347657,356.1447158691406,183.64803381347656,356.1631158691406,180.06253381347656,354.5625158691406C172.96059381347655,350.61701586914063,168.68799381347657,344.5580158691406,166.00000381347655,337.0000158691406C165.69418681347656,334.24761586914065,165.52151491347655,331.8007158691406,165.56250381347655,329.0625158691406C165.56935121347655,328.35881586914064,165.57619861347655,327.65521586914065,165.58325581347657,326.9302158691406C165.75562281347655,321.36151586914065,166.70200381347655,317.4518158691406,170.00000381347655,313.0000158691406C170.70125381347657,311.9481158691406,171.40250381347656,310.8962658691406,172.12500381347655,309.8125158691406C180.64963381347656,300.4687018691406,195.38673381347655,298.9526458691406,206.62503381347656,304.0625158691406Z" fill="#1B1B1B" fill-opacity="1" style="mix-blend-mode:passthrough"/></g><g><path d="M177.99997314453125,155C178.65997314453125,155.33,179.31997314453125,155.66,179.99997314453125,156C179.33997314453126,157.32,178.67997314453126,158.64,177.99997314453125,160C178.94877314453126,159.79375,179.89747314453126,159.5875,180.87497314453125,159.375C182.42187314453125,159.18937,182.42187314453125,159.18937,183.99997314453125,159C185.99997314453125,161,185.99997314453125,161,185.99997314453125,165C186.65997314453125,165,187.31997314453125,165,187.99997314453125,165C187.99997314453125,164.34,187.99997314453125,163.68,187.99997314453125,163C189.31997314453125,163.66,190.63997314453124,164.32,191.99997314453125,165C190.99997314453125,168,190.99997314453125,168,188.99997314453125,169.1875C186.33537314453125,171.6023,186.05917314453126,173.4938,185.74997314453125,177.0039C186.17127314453126,180.3674,188.52887314453125,181.8905,190.99997314453125,184C190.99997314453125,187,190.99997314453125,187,189.93747314453125,189.0625C189.62807314453124,189.7019,189.31877314453124,190.3413,188.99997314453125,191C189.89337314453127,193.3579,189.89337314453127,193.3579,193.06247314453125,194.125C194.03187314453123,194.4137,195.00127314453124,194.7025,195.99997314453125,195C194.87107314453124,196.582,194.87107314453124,196.582,192.99997314453125,198C190.28517314453126,197.6367,190.28517314453126,197.6367,187.06247314453125,196.6875C176.15947314453126,193.9043,167.24227314453125,194.0837,156.99997314453125,199C152.06067314453125,201.9426,150.22297314453124,205.8835,147.99999314453126,211C147.33999314453126,211,146.67999314453124,211,145.99999314453126,211C146.32999314453124,212.32,146.65999314453126,213.64,146.99999314453126,215C145.67999314453124,215,144.35999314453124,215,142.99999314453126,215C140.46521314453125,212.1227,138.94659014453126,210.2854,139.10936734453125,206.3672C140.31702314453125,201.8014,142.33855314453126,197.90019999999998,144.56249314453126,193.75C145.01358314453125,192.9032,145.46467314453125,192.0563,145.92943314453126,191.1838C149.36667314453126,184.8731,153.16417314453125,179.3308,157.99997314453125,174C158.69607314453125,173.175,159.39217314453126,172.35,160.10937314453125,171.5C165.52827314453125,165.1971,171.43437314453126,160.0807,177.99997314453125,155Z" fill="#FAFCFC" fill-opacity="1" style="mix-blend-mode:passthrough"/></g><g><path d="M256.134,455.8696191248437C259.891,455.87501361484374,263.649,455.86961863484373,267.406,455.86327146784373C278.404,455.86055023484374,289.30899999999997,455.96365421484376,300.278,456.7817282148437C306.85699999999997,457.16755021484374,313.43600000000004,457.07035021484376,320.024,457.01803021484375C332.275,456.92648021484376,344.507,456.94745021484374,356.75,457.43749021484376C357.778,457.47681021484374,358.80600000000004,457.51612021484374,359.865,457.5566302148437C366.735,457.86734021484375,366.735,457.86734021484375,369,458.99999021484376C364.536,461.53984021484376,361.151,462.42887021484376,356.03499999999997,462.65233021484374C355.345,462.68464021484374,354.654,462.71694021484376,353.943,462.75022021484375C351.629,462.85110021484377,349.315,462.92797021484375,347,462.99999021484376C346.206,463.0271602148438,345.411,463.05433021484373,344.59299999999996,463.08233021484375C337.876,463.30500021484374,331.15700000000004,463.44337021484375,324.438,463.56249021484376C323.301,463.58267021484374,322.164,463.6028502148437,320.993,463.62365021484374C295.95799999999997,464.04574021484376,270.918,464.17118021484373,245.87900000000002,464.2311602148437C241.454,464.24203021484374,237.02800000000002,464.25965021484376,232.603,464.2837102148437C200.957,464.44771021484377,169.5653,463.26742021484375,138,460.99999021484376C137.669998,460.33999021484374,137.339996,459.67999021484377,137,458.99999021484376C137.866249,459.02062021484375,138.7325,459.04124021484375,139.625,459.06249021484376C142.88866,459.09113021484376,142.88866,459.09113021484376,145.61328,458.53124021484376C149.93,457.85411021484373,154.2001,457.62731021484376,158.5625,457.43749021484376C159.5363,457.39431021484376,160.5101,457.3511202148438,161.5134,457.3066302148437C172.6975,456.87729021484375,183.8845,456.9426602148437,195.0745,457.0368602148437C203.1864,457.09088021484376,211.24599999999998,456.93105021484376,219.3477,456.50780321484376C231.6091,455.8799936148437,243.858,455.8486715148438,256.134,455.8696191248437Z" fill="#D7DBDA" fill-opacity="1" style="mix-blend-mode:passthrough"/></g><g><path d="M284.56248283691406,296.18749943359376C288.31098283691404,298.36123943359377,291.27068283691403,300.63378943359373,293.99998283691406,303.9999694335938C293.99998283691406,304.65996943359374,293.99998283691406,305.31996943359377,293.99998283691406,305.9999694335938C293.38128283691407,306.28876943359376,292.76248283691405,306.57746943359376,292.12498283691406,306.8749694335938C289.86678283691407,307.93716943359374,289.86678283691407,307.93716943359374,287.99998283691406,309.9999694335938C287.33998283691403,309.00996943359377,286.67998283691406,308.01996943359376,285.99998283691406,306.9999694335938C280.55498283691406,307.9899694335937,280.55498283691406,307.9899694335937,274.99998283691406,308.9999694335938C274.99998283691406,308.33996943359375,274.99998283691406,307.6799694335937,274.99998283691406,306.9999694335938C273.39768283691404,306.7775694335937,271.79298283691406,306.57256943359374,270.18748283691406,306.3749694335938C269.29418283691405,306.25896943359373,268.40088283691404,306.14296943359375,267.48048283691406,306.02346943359373C264.7430828369141,305.76496943359376,264.7430828369141,305.76496943359376,261.99998283691406,307.9999694335938C260.8243828369141,308.30936943359376,259.64878283691405,308.61876943359374,258.43748283691406,308.9374694335938C254.75848283691406,309.67846943359376,254.75848283691406,309.67846943359376,252.99998283691406,312.9999694335938C253.34448283691407,317.50846943359375,253.34448283691407,317.50846943359375,255.99998283691406,320.9999694335938C259.4153828369141,321.58366943359374,259.4153828369141,321.58366943359374,262.99998283691406,320.9999694335938C265.51208283691403,318.75706943359376,265.51208283691403,318.75706943359376,266.99998283691406,315.9999694335938C266.99998283691406,315.33996943359375,266.99998283691406,314.6799694335937,266.99998283691406,313.9999694335938C267.98998283691407,313.9999694335938,268.9799828369141,313.9999694335938,269.99998283691406,313.9999694335938C270.32998283691404,313.00996943359377,270.6599828369141,312.01996943359376,270.99998283691406,310.9999694335938C271.4640828369141,312.4231694335937,271.4640828369141,312.4231694335937,271.93748283691406,313.8749694335938C272.8739828369141,316.86076943359376,272.8739828369141,316.86076943359376,273.99998283691406,318.9999694335938C275.48008283691405,318.88636943359376,276.95908283691404,318.7587694335937,278.43748283691406,318.6249694335938C279.26118283691403,318.55536943359374,280.08488283691406,318.48576943359376,280.93358283691407,318.41406943359374C281.61548283691405,318.2773694335938,282.29738283691404,318.14076943359373,282.99998283691406,317.9999694335938C283.32998283691404,317.33996943359375,283.6599828369141,316.6799694335937,283.99998283691406,315.9999694335938C285.49998283691406,317.3749694335938,285.49998283691406,317.3749694335938,286.99998283691406,318.9999694335938C286.99998283691406,319.65996943359374,286.99998283691406,320.31996943359377,286.99998283691406,320.9999694335938C285.67998283691406,320.66996943359374,284.35998283691407,320.33996943359375,282.99998283691406,319.9999694335938C281.48598283691405,324.8448694335938,282.6339828369141,328.25906943359377,283.99998283691406,332.9999694335937C283.21628283691405,333.2474694335938,282.43248283691406,333.4949694335937,281.62498283691406,333.7499694335937C278.6767828369141,335.15386943359374,278.0974828369141,336.0067694335938,276.99998283691406,338.9999694335937C276.52558283691405,337.8656694335938,276.0512828369141,336.73126943359375,275.56248283691406,335.5624694335937C274.3637828369141,332.24256943359376,274.3637828369141,332.24256943359376,272.99998283691406,330.9999694335937C267.67328283691404,330.66146943359377,267.67328283691404,330.66146943359377,262.99998283691406,332.9999694335937C261.67998283691406,332.33996943359375,260.35998283691407,331.6799694335937,258.99998283691406,330.9999694335937C258.6699828369141,332.97996943359374,258.3399828369141,334.95996943359376,257.99998283691406,336.9999694335937C257.3399828369141,336.9999694335937,256.67998283691406,336.9999694335937,255.99998283691406,336.9999694335937C256.32998283691404,338.31996943359377,256.6599828369141,339.63996943359376,256.99998283691406,340.9999694335937C258.48498283691407,340.50496943359377,258.48498283691407,340.50496943359377,259.99998283691406,339.9999694335937C260.32998283691404,341.97996943359374,260.6599828369141,343.95996943359376,260.99998283691406,345.9999694335937C256.24998283691406,345.2499694335937,256.24998283691406,345.2499694335937,253.99998283691406,342.9999694335937C253.23688283691405,342.79376943359375,252.47374283691406,342.58746943359375,251.68749283691406,342.3749694335937C246.91985283691406,339.93576943359375,244.65101283691405,334.9530694335937,242.99999583691405,329.9999694335937C242.28761283691406,320.2601694335938,242.29412083691406,311.96866943359373,248.54296283691406,304.0429694335937C257.59108283691404,294.20807343359377,272.15878283691404,290.22850943359373,284.56248283691406,296.18749943359376Z" fill="#1B1A1B" fill-opacity="1" style="mix-blend-mode:passthrough"/></g><g><path d="M147.56245921630858,256.18750440917967C155.1470592163086,260.1866544091797,159.3786592163086,264.7456744091797,161.99995921630858,273.0000444091797C162.8061592163086,278.9728444091797,162.91685921630858,284.0644444091797,160.31245921630858,289.5625444091797C156.1338592163086,293.9669444091797,152.99145921630858,296.7067444091797,146.81245921630858,297.3125444091797C138.51015921630858,296.6319444091797,134.00470921630858,292.4336444091797,128.6640692163086,286.31644440917967C124.16428421630859,280.05264440917966,124.2375942163086,273.4734444091797,125.00000221630859,266.0000444091797C127.13473921630859,261.4933444091797,129.9182192163086,258.82585440917967,133.9999992163086,256.00000440917967C138.8567592163086,254.3810864091797,142.7111592163086,254.5704074091797,147.56245921630858,256.18750440917967Z" fill="#414142" fill-opacity="1" style="mix-blend-mode:passthrough"/></g><g><path d="M318.27729999999997,344.5664204746094C320.8587,346.7146614746094,322.3874,349.07339147460937,324,352.0000114746094C322.63530000000003,356.0940114746094,319.9264,357.2310114746094,316.375,359.3125114746094C315.7013,359.70911147460936,315.0276,360.10581147460937,314.3335,360.51441147460935C289.5204,374.7507114746094,260.7335,378.47411147460934,233,372.0000114746094C229.91743,371.12601147460936,226.99553,370.1438114746094,224,369.0000114746094C224.989998,365.0400114746094,225.98,361.08001147460936,227,357.0000114746094C228.14597,357.2772114746094,229.29194999999999,357.5543114746094,230.47266,357.83981147460935C232.00256,358.20591147460937,233.53252,358.5718114746094,235.0625,358.9375114746094C235.8147,359.11991147460935,236.5668,359.3023114746094,237.3418,359.4902114746094C259.9205,364.8661114746094,285.0503,362.7434114746094,305.1992,350.53908147460936C307.2044,349.3020814746094,309.1818,348.0464814746094,311.12919999999997,346.72023147460936C315.4689,343.8679344746094,315.4689,343.8679344746094,318.27729999999997,344.5664204746094Z" fill="#1C1D1D" fill-opacity="1" style="mix-blend-mode:passthrough"/></g><g><path d="M324,146.99999675195312C323.01,148.9799957519531,322.02,150.95999575195313,321,152.99999575195312C321.33,152.66999575195314,321.66,152.33999575195313,322,151.99999575195312C325,151.99999575195312,325,151.99999575195312,327,152.99999575195312C327,153.65999575195312,327,154.31999575195312,327,154.99999575195312C325.68,155.32999575195313,324.36,155.65999575195312,323,155.99999575195312C321.9889,159.04914575195312,321.9889,159.04914575195312,323,162.00004575195314C325.0167,163.13354575195314,325.0167,163.13354575195314,327,164.0000457519531C326.67,164.99004575195312,326.34,165.97994575195312,326,167.0000457519531C327.65,167.0000457519531,329.3,167.0000457519531,331,167.0000457519531C329.68,168.65004575195312,328.36,170.29994575195312,327,172.0000457519531C327.33,172.66004575195313,327.66,173.32004575195313,328,174.0000457519531C327.01,174.33004575195312,326.02,174.66004575195313,325,175.0000457519531C324.01,174.3400457519531,323.02,173.68004575195312,322,173.0000457519531C317.4915,173.34444575195312,317.4915,173.34444575195312,314,176.0000457519531C313.4999,179.45784575195313,313.4999,179.45784575195313,314,183.0000457519531C315.5,185.16664575195313,315.5,185.16664575195313,318,186.0000457519531C321.6729,185.77964575195313,323.3697,185.63034575195312,326,183.0000457519531C326.3976,181.01174575195313,326.7378,179.01054575195312,327,177.0000457519531C329.25,176.2500457519531,329.25,176.2500457519531,332,176.0000457519531C334.3125,177.9375457519531,334.3125,177.9375457519531,336,180.0000457519531C337.0111,176.95084575195312,337.0111,176.95084575195312,336,174.0000457519531C338.31,173.67004575195313,340.62,173.3400457519531,343,173.0000457519531C343,172.3400457519531,343,171.68004575195312,343,171.0000457519531C343.99,170.67004575195313,344.98,170.3400457519531,346,170.0000457519531C346.65999999999997,170.66004575195313,347.32,171.32004575195313,348,172.0000457519531C345.6667,174.33334575195312,343.3333,176.66664575195313,341,179.0000457519531C340.67,179.0000457519531,340.34000000000003,179.0000457519531,340,179.0000457519531C340,179.66004575195313,340,180.32004575195313,340,181.0000457519531C338.35,181.66004575195313,336.7,182.32004575195313,335,183.0000457519531C335.495,185.47494575195313,335.495,185.47494575195313,336,188.0000457519531C341.12919999999997,190.10424575195313,345.5611,190.21754575195314,351,190.0000457519531C347.212,195.68194575195312,342.2969,197.90104575195312,336,200.0000457519531C326.3746,201.09414575195314,318.9755,199.6044457519531,311,194.0000457519531C304.82987,188.29324575195312,302.08012,180.28194575195312,301.5625,172.0000457519531C301.943378,164.12854575195314,305.7573,157.33594575195312,311.0625,151.69921575195312C314.9452,148.29402575195311,318.8737,145.29122575195314,324,146.99999675195312Z" fill="#1C1C1C" fill-opacity="1" style="mix-blend-mode:passthrough"/></g><g><path d="M175,142C178.35,143.11666,178.7934,143.74695,180.6875,146.5625C181.1245,147.20316,181.5615,147.84383,182.0117,148.50391C182.3379,148.99762,182.664,149.49133,183,150C181.4642,154.3363,178.12630000000001,156.3919,174.5625,159C154.45420000000001,174.3313,142.0467,195.6253,136,220C134.3743,219.6911,132.74947,219.3777,131.125,219.0625C130.22008,218.8885,129.31516,218.7145,128.38281,218.5352C126,218,126,218,124,217C129.93081,186.9312,147.7957,162.3483,171.9375,143.875C172.9481,143.25625,173.9588,142.6375,175,142Z" fill="#1E1E1F" fill-opacity="1" style="mix-blend-mode:passthrough"/></g><g><path d="M373.312537109375,199.69531912109375C378.123437109375,201.86385912109375,380.986537109375,204.70802912109374,384.000037109375,208.99999912109377C385.735537109375,214.20649912109374,385.663437109375,219.14929912109375,383.812537109375,224.31249912109377C381.441837109375,227.82769912109376,378.787237109375,230.10639912109374,375.000037109375,231.99999912109377C367.859837109375,232.73329912109375,361.903237109375,232.31229912109376,356.000017109375,227.99999912109377C351.060137109375,222.80009912109375,349.521192109375,218.53749912109376,349.687515209375,211.46879912109375C350.316728109375,206.49796912109375,353.022827109375,203.90568912109376,356.562517109375,200.62499912109374C362.030937109375,198.03994012109376,367.511737109375,197.95115012109375,373.312537109375,199.69531912109375Z" fill="#1B1B1D" fill-opacity="1" style="mix-blend-mode:passthrough"/></g><g><path d="M246.22410000000002,447.7392686660156C252.284,447.7506619660156,258.3438,447.7438667660156,264.404,447.73240979601565C286.876,447.6961367660156,309.33000000000004,447.78186546601563,331.781,448.8281326660156C332.608,448.8626926660156,333.435,448.8972526660156,334.286,448.93286266601564C336.568,449.03199266601564,338.847,449.1510826660156,341.127,449.2783326660156C343.024,449.37806266601564,343.024,449.37806266601564,344.96000000000004,449.4798126660156C348.113,450.01929266601564,349.13599999999997,450.4671826660156,351,453.0000126660156C347.956,453.0822826660156,345.928,452.97609266601563,343,452.0000126660156C340.916,452.08760266601564,340.916,452.08760266601564,338.624,452.41773266601564C332.421,453.11651266601564,326.253,453.22665266601564,320.01599999999996,453.31641266601565C318.161,453.3477226660156,318.161,453.3477226660156,316.26800000000003,453.37966266601563C312.948,453.43423266601565,309.629,453.48482266601565,306.30899999999997,453.53264266601565C304.236,453.5627126660156,302.164,453.5940326660156,300.091,453.6256826660156C270.192,454.07990266601564,240.3346,454.2086126660156,210.4375,453.5625126660156C209.4922,453.54295266601565,208.5469,453.52339266601564,207.5729,453.50324266601564C204.9013,453.4462226660156,202.23,453.38258266601565,199.5586,453.31641266601565C198.7647,453.29969266601563,197.9707,453.2829726660156,197.1527,453.2657426660156C193.3168,453.16233266601563,189.7474,452.80050266601563,186,452.0000126660156C184.6602,452.3062526660156,183.3249,452.63452266601564,182,453.0000126660156C181.34,452.6700126660156,180.68,452.34001266601564,180,452.0000126660156C179.2485,452.1547026660156,178.497,452.3093826660156,177.7227,452.4687626660156C174.7477,453.04924266601563,172.4367,452.86709266601565,169.4375,452.5000126660156C165.97266,452.0771226660156,163.34274,451.9303326660156,160,453.0000126660156C159.669998,452.0100126660156,159.339996,451.02001266601565,159,450.0000126660156C188.08010000000002,448.06488666601564,217.0857,447.68381066601563,246.22410000000002,447.7392686660156Z" fill="#CFD3D2" fill-opacity="1" style="mix-blend-mode:passthrough"/></g><g><path d="M297.999971875,201.99999428808593C303.303471875,204.70178528808594,307.098271875,208.29496528808593,308.999971875,213.99999528808593C309.396771875,219.25769528808593,308.894971875,222.56099528808593,305.999971875,226.99999528808593C302.101971875,230.95129528808593,298.857971875,232.84519528808593,293.249971875,233.31249528808593C288.686871875,233.22859528808593,285.468531875,231.96799528808594,281.999991875,228.99999528808593C278.376494875,224.87409528808593,277.334443875,220.63479528808594,277.621088075,215.20699528808595C278.378406875,210.79584528808593,280.140281875,207.62844528808594,283.507801875,204.67968528808595C288.051071875,201.65787698808595,292.660771875,201.03542528808595,297.999971875,201.99999428808593Z" fill="#1B1B1B" fill-opacity="1" style="mix-blend-mode:passthrough"/></g><g><path d="M208,306C213.2552,307.94638,216.0833,312.39582,218.75,317.0625C222.3121,325.4333,221.58780000000002,332.9981,218.3398,341.3086C215.5507,346.9112,211.78,351.4522,206,354C205.67000000000002,352.68,205.34,351.36,205,350C205.66,350,206.32,350,207,350C206.7113,349.4844,206.4225,348.9688,206.125,348.4375C204.7122,345.3764,203.8751,342.2505,203,339C198.7212,339.4159,198.7212,339.4159,195.125,341.5625C194.75375,342.0369,194.3825,342.51120000000003,194,343C193.01,342.67,192.02,342.34000000000003,191,342C190.89688,341.11310000000003,190.79375,340.2262,190.6875,339.3125C189.98809,335.94259999999997,188.91257,333.8273,187,331C187.99,330.67,188.98,330.34,190,330C190.02062,329.0925,190.04125,328.185,190.0625,327.25C191.10882,323.6228,191.45371,323.3674,194.5625,321.625C195.69687,321.0887,196.83125,320.5525,198,320C198.99,322.31,199.98,324.62,201,327C204.4164,327.2502,204.4164,327.2502,208,327C210.3377,324.1643,210.3377,324.1643,209.75,320.875C209.5025,319.9263,209.255,318.9775,209,318C208.34,317.67,207.68,317.34,207,317C207,316.34,207,315.68,207,315C207.66,315,208.32,315,209,315C209.32999999999998,313.68,209.66,312.36,210,311C209.34,310.67,208.68,310.34,208,310C208,308.68,208,307.36,208,306Z" fill="#1B1B1B" fill-opacity="1" style="mix-blend-mode:passthrough"/></g><g><path d="M190,208.00000420898436C200.6798,214.0797642089844,208.0946,222.12156420898438,211.5859,233.99216420898438C212.8676,240.20696420898437,212.5183,245.58716420898438,209,250.99996420898438C208.01,251.49496420898438,208.01,251.49496420898438,207,251.99996420898438C206.853,251.12986420898437,206.853,251.12986420898437,206.7031,250.24216420898438C205.7053,245.02936420898436,204.53629999999998,241.12566420898438,201,236.99996420898438C197.4146,234.78766420898438,194.1592,233.61166420898437,190,232.99996420898438C191.099,230.43576420898438,192.0367,228.96656420898438,194.125,227.06246420898438C196.26749999999998,225.12216420898437,196.26749999999998,225.12216420898437,196.25,222.24996420898438C196.1675,221.50746420898437,196.085,220.76496420898437,196,219.99996420898438C192.1324,218.12456420898437,192.1324,218.12456420898437,188,218.99996420898438C186.6573,220.99376420898437,185.3235,222.99346420898436,184,224.99996420898438C183.34,224.99996420898438,182.68,224.99996420898438,182,224.99996420898438C181.6971,224.38516420898438,181.3941,223.77026420898437,181.082,223.13676420898437C177.8906,216.70176420898437,177.8906,216.70176420898437,172,213.00000420898436C167.19132,212.05230420898437,162.77251,211.61443420898436,158,213.00000420898436C159.44079,210.03837420898438,160.74396,208.19540420898437,163.375,206.18750420898436C171.9929,203.36439420898438,181.7793,204.23662720898437,190,208.00000420898436Z" fill="#F8F9F9" fill-opacity="1" style="mix-blend-mode:passthrough"/></g><g><path d="M147.56245385742187,256.18749985839844C155.12705385742188,260.17607985839845,159.3882538574219,264.7577098583984,161.99995385742187,272.99997985839843C162.37615385742188,277.04297985839844,162.31275385742188,280.95507985839845,161.99995385742187,284.99997985839843C161.05125385742187,285.3093798583984,160.1024538574219,285.61877985839845,159.12495385742187,285.93747985839843C156.1391538574219,286.87397985839846,156.1391538574219,286.87397985839846,153.99995385742187,287.99997985839843C152.7607538574219,285.0258798583984,151.69945385742187,282.14737985839844,150.99995385742187,278.99997985839843C150.42245385742189,278.8555798583984,149.84495385742187,278.7112798583984,149.24995385742187,278.56247985839843C147.76445385742187,278.19107985839844,146.2847538574219,277.79567985839844,144.81245385742187,277.37497985839843C144.21435385742188,277.25127985839845,143.61625385742187,277.12747985839843,142.99995385742187,276.99997985839843C142.6699538574219,277.3299798583984,142.33995385742188,277.65997985839846,141.99995385742187,277.99997985839843C139.93745385742187,277.56247985839843,139.93745385742187,277.56247985839843,137.99995385742187,276.99997985839843C138.65995385742187,276.0099798583984,139.31995385742186,275.0199798583984,139.99995385742187,273.99997985839843C139.00995385742186,273.66997985839845,138.01995385742188,273.33997985839846,136.99995385742187,272.99997985839843C138.64995385742188,272.33997985839846,140.29995385742188,271.67997985839844,141.99995385742187,270.99997985839843C141.99995385742187,269.34997985839846,141.99995385742187,267.6999798583984,141.99995385742187,265.99997985839843C139.68995385742187,265.66997985839845,137.37995385742187,265.33997985839846,134.99995385742187,264.99997985839843C134.34000385742186,266.97997985839845,133.68000385742187,268.9599798583984,133.0000038574219,270.99997985839843C132.01000385742188,270.66997985839845,131.02000385742187,270.33997985839846,130.0000038574219,269.99997985839843C130.0000038574219,269.0099798583984,130.0000038574219,268.0199798583984,130.0000038574219,266.99997985839843C129.34000385742186,269.30997985839844,128.68000385742187,271.61997985839844,128.0000038574219,273.99997985839843C127.34000385742188,273.99997985839843,126.68000385742188,273.99997985839843,126.00000385742187,273.99997985839843C125.67000385742188,275.3199798583984,125.33999985742187,276.6399798583984,124.99999985742187,277.99997985839843C124.37632385742188,267.29357985839846,124.37632385742188,267.29357985839846,126.68750385742187,262.49999985839844C132.92364385742187,255.75821985839843,138.46245385742188,253.15414985839843,147.56245385742187,256.18749985839844Z" fill="#1C1B1C" fill-opacity="1" style="mix-blend-mode:passthrough"/></g><g><path d="M193.0625,301.562500021875C194.07150000000001,301.547393821875,194.07150000000001,301.547393821875,195.1008,301.531982421875C200.1356,301.618778621875,203.6034,302.726662421875,208,305.000002421875C209.375,307.000002421875,209.375,307.000002421875,210,309.000002421875C210.495,310.485002421875,210.495,310.485002421875,211,311.999982421875C210.34,312.989982421875,209.68,313.979982421875,209,314.999982421875C208.34,314.999982421875,207.68,314.999982421875,207,314.999982421875C207,315.659982421875,207,316.319982421875,207,316.999982421875C207.99,317.329982421875,208.98,317.659982421875,210,317.999982421875C211.31369999999998,323.254882421875,211.31369999999998,323.254882421875,210,326.374982421875C208,327.999982421875,208,327.999982421875,204.5,328.499982421875C201,327.999982421875,201,327.999982421875,199.125,326.187482421875C198,323.999982421875,198,323.999982421875,197,320.999982421875C196.01,320.999982421875,195.02,320.999982421875,194,320.999982421875C193.34,319.679982421875,192.68,318.359982421875,192,316.999982421875C191.6081,317.659982421875,191.21620000000001,318.319982421875,190.8125,318.999982421875C189,320.999982421875,189,320.999982421875,186.4375,321.374982421875C184,320.999982421875,184,320.999982421875,182,318.999982421875C181.63239,316.671782421875,181.29758,314.338182421875,181,311.999982421875C180.01732,310.794392421875,180.01732,310.794392421875,178.15234,310.902342421875C176.10156,310.934892421875,174.05078,310.967452421875,172,311.000002421875C178.18208,304.045162421875,183.6616,301.654085421875,193.0625,301.562500021875Z" fill="#353536" fill-opacity="1" style="mix-blend-mode:passthrough"/></g><g><path d="M238,251C239.46484,252.26953,240.92969,253.53906,242.3945,254.80859C246.6074,257.9349,252.0097,257.45584,257,257C259.8739,255.82725,259.8739,255.82725,262,254C263.1447,253.16469,263.1447,253.16469,264.3125,252.3125C264.8694,251.879375,265.42629999999997,251.44625,266,251C267.03589999999997,252.06893,268.0533,253.15578,269.0625,254.25C269.631,254.85328,270.1995,255.45656,270.78520000000003,256.07812C272,258,272,258,271.91020000000003,260.03906C269.6795,264.8451,264.27660000000003,267.4894,259.5625,269.375C252.2493,270.658,245.6087,270.7506,239,267C236.17586,264.8201,233.55886,262.484,231,260C232.96318,256.46627,235.04071,253.7552,238,251Z" fill="#1E1E1E" fill-opacity="1" style="mix-blend-mode:passthrough"/></g><g><path d="M325,145C327.97,145.495,327.97,145.495,331,146C331.33,146.99,331.66,147.98,332,149C331.01,149.33,330.02,149.66,329,150C329.66,150.66,330.32,151.32,331,152C330.34,152.66,329.68,153.32,329,154C329.66,154.33,330.32,154.66,331,155C330.7731,155.9281,330.5462,156.8562,330.3125,157.8125C329.6368,160.9683,329.6368,160.9683,331.4375,162.875C331.9531,163.2463,332.4688,163.6175,333,164C332.67,164.99,332.34,165.98,332,167C333.32,166.67000000000002,334.64,166.34,336,166C336,166.66,336,167.32,336,168C336.66,168,337.32,168,338,168C338.33,168.66,338.66,169.32,339,170C340.6436,170.7216,342.3105,171.3935,344,172C341.6405,174.3595,340.221,174.4914,337,175C337,175.99,337,176.98,337,178C336.67,178.66,336.34,179.32,336,180C334,179,334,179,331,177C329.68,177,328.36,177,327,177C327.1031,177.9075,327.2063,178.815,327.3125,179.75C327,183,327,183,324.875,185.4375C322,187,322,187,318.875,186.9375C314.50811,185.5135,314.50811,185.5135,313,183C312.5,179.5625,312.5,179.5625,313,176C315.125,173.5,315.125,173.5,318,172C321.1875,172.25,321.1875,172.25,324,173C324.66,173,325.32,173,326,173C326,172.01,326,171.02,326,170C326.99,169.34,327.98,168.68,329,168C328.01,167.67000000000002,327.02,167.34,326,167C326,166.01,326,165.02,326,164C325.3606,163.7525,324.7212,163.505,324.0625,163.25C322,162,322,162,321.125,160.0625C321,158,321,158,323,155C324.32,155,325.64,155,327,155C326.67,154.34,326.34,153.68,326,153C325.3813,153.18563,324.7625,153.37125,324.125,153.5625C322,154,322,154,320,153C321.65,150.36,323.3,147.72,325,145Z" fill="#1D1C1D" fill-opacity="1" style="mix-blend-mode:passthrough"/></g><g><path d="M186,329.99999964648435C189.5454,333.46482764648437,191.5529,335.9330276464844,192,341.0000376464844C192.99,341.0000376464844,193.98,341.0000376464844,195,341.0000376464844C195.66,340.34003764648435,196.32,339.6800376464844,197,338.99999764648436C200,338.24999764648436,200,338.24999764648436,203,337.99999764648436C205.4213,340.4213376464844,205.5284,341.8011376464844,206.125,345.1250376464844C206.2926,346.0350376464844,206.4602,346.9451376464844,206.6328,347.8828376464844C206.754,348.58143764648435,206.8752,349.2801376464844,207,350.0000376464844C206.34,350.0000376464844,205.68,350.0000376464844,205,350.0000376464844C205.32999999999998,351.32003764648437,205.66,352.64003764648436,206,354.0000376464844C199.4706,356.9567376464844,194.126,357.3536376464844,187,357.0000376464844C187.33,356.34003764648435,187.66,355.6800376464844,188,355.0000376464844C187.34,354.34003764648435,186.68,353.6800376464844,186,353.0000376464844C186.99,352.6700376464844,187.98,352.34003764648435,189,352.0000376464844C189.33,351.01003764648436,189.66,350.02003764648435,190,349.0000376464844C192.31,349.0000376464844,194.62,349.0000376464844,197,349.0000376464844C193.5135,345.23533764648437,193.5135,345.23533764648437,189,343.0000376464844C187.6581,343.64933764648435,186.3252,344.31733764648436,185,345.0000376464844C181.83582,344.84183764648435,180.24403,344.16693764648437,177.625,342.3750376464844C176,340.0000376464844,176,340.0000376464844,176,336.43749764648436C177,332.99999764648436,177,332.99999764648436,178.75,331.06249764648436C181.5778,329.7271485464844,182.91633,329.3230966464844,186,329.99999964648435Z" fill="#4C4D4D" fill-opacity="1" style="mix-blend-mode:passthrough"/></g><g><path d="M259,164.0000013671875C262.6578,166.0399413671875,264.66949999999997,167.5041913671875,267,171.0000013671875C267.4838,175.9190513671875,267.5136,178.0584513671875,265.125,182.4375513671875C263.0057,184.9931513671875,262.2548,185.8243513671875,259.0469,186.2734513671875C254.7533,186.4632513671875,251.90417,186.4342513671875,248.5,183.6250513671875C245.604218,180.5844513671875,245.085353,179.88765136718752,244.6875,175.7499513671875C245.056719,171.3193813671875,246.16839,169.3822013671875,249,166.0000013671875C252.20785,163.6475773671875,255.0965,163.5315803671875,259,164.0000013671875Z" fill="#FAFBFB" fill-opacity="1" style="mix-blend-mode:passthrough"/></g><g><path d="M327,144.9999977484375C335.95228,144.5204116484375,342.181,146.7565096484375,349.2383,152.3163996484375C352.7058,155.6300896484375,354.4886,159.4657896484375,356,163.9999896484375C355.01,164.6599896484375,354.02,165.3199896484375,353,165.9999896484375C352.34,165.6699896484375,351.68,165.3399896484375,351,164.9999896484375C350.67,165.6599896484375,350.34,166.3199896484375,350,166.9999896484375C349.34,166.9999896484375,348.68,166.9999896484375,348,166.9999896484375C348,167.6599896484375,348,168.3199896484375,348,168.9999896484375C347.34,168.6699896484375,346.68,168.3399896484375,346,167.9999896484375C345.6279,166.6769896484375,345.2937,165.3425896484375,345,163.9999896484375C343.9335,162.7036896484375,343.9335,162.7036896484375,341.4375,162.9374896484375C340.6331,162.9580896484375,339.8287,162.9787896484375,339,162.9999896484375C338.01,165.4749896484375,338.01,165.4749896484375,337,167.9999896484375C336.67,167.3399896484375,336.34,166.6799896484375,336,165.9999896484375C334.68,166.3299896484375,333.36,166.6599896484375,332,166.9999896484375C331.67,165.3499896484375,331.34,163.6999896484375,331,161.9999896484375C330.34,162.3299896484375,329.68,162.6599896484375,329,162.9999896484375C329,160.3332896484375,329,157.6666896484375,329,154.9999896484375C328.67,154.3399996484375,328.34,153.6799996484375,328,152.9999996484375C328.66,152.6699996484375,329.32,152.3399996484375,330,151.9999996484375C329.34,151.00999964843749,328.68,150.0199996484375,328,148.9999996484375C328.99,148.6699996484375,329.98,148.3399996484375,331,147.9999996484375C331,147.3399996484375,331,146.6799996484375,331,145.9999996484375C330.34,145.9999996484375,329.68,145.9999996484375,329,145.9999996484375C328.67,146.6599996484375,328.34,147.3199996484375,328,147.9999996484375C327.67,147.00999964843749,327.34,146.0199996484375,327,144.9999977484375Z" fill="#1C1B1C" fill-opacity="1" style="mix-blend-mode:passthrough"/></g><g><path d="M267.25,304.875C270.3529,304.978429,273.0307,305.126675,276,306C276.33,306.66,276.66,307.32,277,308C277.7631,307.79375,278.5262,307.5875,279.3125,307.375C282,307,282,307,285,309C285.4313,313.05446,285.3002,314.54971,283,318C280.6172,318.7305,280.6172,318.7305,277.875,319.1875C276.9649,319.3461,276.0548,319.5046,275.1172,319.668C274.4185,319.7775,273.7198,319.8871,273,320C273,319.34,273,318.68,273,318C272.34,317.67,271.68,317.34,271,317C271.66,317,272.32,317,273,317C273,316.34,273,315.68,273,315C271.2236,313.92546,271.2236,313.92546,270,314C269.01,314,268.02,314,267,314C267.33,314.99,267.66,315.98,268,317C267.34,317,266.68,317,266,317C265.6906,317.6394,265.3813,318.2788,265.0625,318.9375C264,321,264,321,263,322C259.6875,322.375,259.6875,322.375,256,322C253.5,319.875,253.5,319.875,252,317C252,313.51702,252.248405,311.77943,254.6875,309.25C257.37595,307.79678,260.08652,306.90642,263,306C264,305,264,305,267.25,304.875Z" fill="#1F1F20" fill-opacity="1" style="mix-blend-mode:passthrough"/></g><g><path d="M367.9999427734375,297.0000082636719C371.3621427734375,299.1013402636719,371.8749427734375,300.5778402636719,372.9999427734375,304.37501026367187C372.9999427734375,308.83672026367185,371.8199427734375,310.6160202636719,368.9999427734375,314.0000202636719C365.8995427734375,315.55022026367186,363.4210527734375,315.2899202636719,359.9999927734375,315.0000202636719C357.0564427734375,313.4642202636719,355.5010627734375,312.3083202636719,354.2968657734375,309.16412026367186C353.4460577734375,305.0518302636719,353.8445901734375,303.29009026367186,355.8749927734375,299.50001026367187C359.3339427734375,295.95385826367186,363.3570627734375,296.00199726367185,367.9999427734375,297.0000082636719Z" fill="#1D1E1E" fill-opacity="1" style="mix-blend-mode:passthrough"/></g><g><path d="M189.00002133789062,265.0000081308594C191.49192133789063,266.6837041308594,192.67362133789064,267.9935041308594,193.60542133789062,270.8671941308594C194.31172133789062,274.57348413085936,194.24862133789063,276.4918841308594,192.56252133789062,279.9374841308594C189.15112133789063,282.6831841308594,186.3441213378906,283.3022841308594,182.00000133789064,282.9999841308594C179.06607133789063,281.78818413085935,177.57130133789062,280.7270841308594,175.6249993378906,278.2499841308594C174.68302033789064,274.8588841308594,175.15247723789062,272.3900941308594,175.9999993378906,269.0000041308594C179.8108113378906,264.17297563085936,183.1317213378906,263.44312013085937,189.00002133789062,265.0000081308594Z" fill="#201F20" fill-opacity="1" style="mix-blend-mode:passthrough"/></g><g><path d="M236.00002248535156,279.99998788476563C238.81222248535155,282.01743688476563,240.60132248535157,283.5162068847656,241.51952248535156,286.9335768847656C241.70182248535156,289.17588688476565,241.61582248535157,290.83380688476564,241.00002248535156,293.00000688476564C238.11752248535157,296.29420688476563,236.25852248535156,297.76880688476564,231.93749248535156,298.56250688476564C228.32218248535156,297.87020688476565,226.61891248535156,296.5441068847656,223.99999248535156,294.00000688476564C222.44975148535156,290.89950688476563,222.71007628535156,288.42104688476564,222.99999648535157,284.99998688476563C226.52761248535157,279.4044638847656,229.63899248535157,278.2189068847656,236.00002248535156,279.99998788476563Z" fill="#1C1D1D" fill-opacity="1" style="mix-blend-mode:passthrough"/></g><g><path d="M197.00004440917968,166.9999924609375C200.6552444091797,169.3448424609375,202.6006444091797,170.8724624609375,204.06254440917968,174.9999924609375C203.9875444091797,178.5992224609375,203.1947444091797,180.1782224609375,201.00004440917968,183.0000224609375C197.2626444091797,185.4916224609375,195.4266444091797,185.4579224609375,190.9999944091797,185.0000224609375C188.1249944091797,183.4375224609375,188.1249944091797,183.4375224609375,185.9999964091797,181.0000224609375C184.85111140917968,177.0507224609375,184.56870240917968,174.9704024609375,186.2499944091797,171.1874924609375C189.4683944091797,167.1644964609375,191.9958644091797,166.3131514609375,197.00004440917968,166.9999924609375Z" fill="#1E1D1D" fill-opacity="1" style="mix-blend-mode:passthrough"/></g><g><path d="M326.999990234375,314.0000056621094C330.476190234375,316.5492286621094,331.782490234375,318.3355186621094,333.124990234375,322.4375086621094C332.999990234375,325.99997866210936,332.999990234375,325.99997866210936,331.062490234375,329.43747866210936C327.481990234375,332.43337866210936,327.481990234375,332.43337866210936,323.999990234375,332.62497866210936C321.16746023437497,332.3728786621094,319.636560234375,331.8258786621094,316.999990234375,330.56247866210936C314.449738534375,327.2949786621094,314.345976234375,325.18607866210937,314.566395734375,321.1250086621094C315.186628234375,318.08530866210936,316.503160234375,316.7624786621094,318.999990234375,315.0000086621094C321.888610234375,313.55569766210937,323.796470234375,313.6231206621094,326.999990234375,314.0000056621094Z" fill="#1D1C1D" fill-opacity="1" style="mix-blend-mode:passthrough"/></g><g><path d="M378,206C379.32,206,380.64,206,382,206C385.1133,211.05909,385.7586,215.21153,385,221C383.3084,225.7188,381.1395,228.2058,377,231C376.01,231.32999999999998,375.02,231.66,374,232C373.01,231.34,372.02,230.68,371,230C371.33,229.01,371.66,228.02,372,227C371.34,226.34,370.68,225.68,370,225C370.66,224.67000000000002,371.32,224.34,372,224C370.68,223.01,369.36,222.02,368,221C368.33,219.35,368.66,217.7,369,216C375.875,214,375.875,214,377,214C377.7308,212.02253,378.3942,210.01928,379,208C378.67,207.34,378.34,206.68,378,206Z" fill="#1D1D1E" fill-opacity="1" style="mix-blend-mode:passthrough"/></g><g><path d="M349.4375061035156,325.6875C352.0000061035156,326,352.0000061035156,326,353.8125061035156,327.125C355.5192061035156,329.8198,355.26070610351564,331.87126,355.0000061035156,335C354.6700061035156,335.99,354.34000610351563,336.98,354.0000061035156,338C356.3100061035156,338.66,358.6200061035156,339.32,361.0000061035156,340C361.6600061035156,338.68,362.32000610351565,337.36,363.0000061035156,336C364.32000610351565,336,365.64000610351565,336,367.0000061035156,336C368.75120610351564,334.58333,368.75120610351564,334.58333,370.0000061035156,333C370.6600061035156,334.65,371.32000610351565,336.3,372.0000061035156,338C370.0663061035156,340.1286,368.1283061035156,342.2529,366.1875061035156,344.375C365.6403061035156,344.9783,365.09310610351565,345.5816,364.52930610351564,346.2031C363.99760610351564,346.7832,363.4658061035156,347.3633,362.9180061035156,347.9609C362.4309061035156,348.4951,361.94390610351564,349.0292,361.44210610351564,349.5796C360.0000061035156,351,360.0000061035156,351,357.0000061035156,353C356.6700061035156,352.01,356.34000610351563,351.02,356.0000061035156,350C356.6600061035156,350,357.32000610351565,350,358.0000061035156,350C358.0000061035156,349.34,358.0000061035156,348.68,358.0000061035156,348C358.6600061035156,347.34,359.32000610351565,346.68,360.0000061035156,346C357.6814061035156,344.4543,355.4936061035156,343.2038,353.0000061035156,342C353.0000061035156,341.34,353.0000061035156,340.68,353.0000061035156,340C352.34000610351563,340,351.6800061035156,340,351.0000061035156,340C351.0000061035156,339.34,351.0000061035156,338.68,351.0000061035156,338C350.34000610351563,338,349.6800061035156,338,349.0000061035156,338C348.6700061035156,338.66,348.34000610351563,339.32,348.0000061035156,340C347.6700061035156,339.01,347.34000610351563,338.02,347.0000061035156,337C346.1956261035156,336.3503,346.1956261035156,336.3503,345.3750061035156,335.6875C344.0000011035156,334,344.0000011035156,334,344.1875014035156,330.9375C345.15963610351565,327.42286,345.72889610351564,326.162963,349.4375061035156,325.6875Z" fill="#F5F7F6" fill-opacity="1" style="mix-blend-mode:passthrough"/></g><g><path d="M183.5,329.3125C187.4401,330.39602,188.845,332.64081,191,336C190.9162,339.6038,190.0242,340.9638,188,344C184.52839,345.0801,182.62944,345.2238,179.1875,344C177,342,177,342,175.875,338.625C176,335,176,335,178.125,332.0625C181,330,181,330,183.5,329.3125Z" fill="#F7F8F8" fill-opacity="1" style="mix-blend-mode:passthrough"/></g><g><path d="M269.3124893066406,329.625C272.9999393066406,330,272.9999393066406,330,275.4999393066406,332.0625C277.44933930664064,335.8799,277.15423930664065,337.9216,275.9999393066406,342C272.3051393066406,344.46320000000003,270.36704930664064,344.3899,265.9999893066406,344C263.5780393066406,342.4661,263.1126893066406,341.3059,262.12498520664064,338.625C261.96325230664064,335.22861,263.0395883066406,333.7144,264.9999893066406,331C265.9999893066406,330,265.9999893066406,330,269.3124893066406,329.625Z" fill="#F6F8F8" fill-opacity="1" style="mix-blend-mode:passthrough"/></g><g><path d="M365.75,198.875000753125C366.7348,198.893047553125,367.7197,198.911094453125,368.7344,198.929688253125C369.8559,198.964492453125,369.8559,198.964492453125,371,199.000000453125C371.33,199.989999453125,371.66,200.979999453125,372,201.999999453125C371.34,201.999999453125,370.68,201.999999453125,370,201.999999453125C369.67,204.969999453125,369.34,207.939999453125,369,210.999989453125C368.34,210.999989453125,367.68,210.999989453125,367,210.999989453125C366.7319,211.639389453125,366.4637,212.278789453125,366.1875,212.937489453125C365,214.999989453125,365,214.999989453125,362,215.999989453125C361.01,215.33998945312499,360.02,214.679989453125,359,213.999989453125C359,212.679989453125,359,211.359989453125,359,209.999989453125C358.34,209.999989453125,357.68,209.999989453125,357,209.999989453125C357.33,209.009989453125,357.66,208.019999453125,358,206.99999945312499C358,206.009999453125,358,205.019999453125,358,203.99999945312499C357.34,203.669999453125,356.68,203.339999453125,356,202.99999945312499C356,202.339999453125,356,201.679999453125,356,200.999999453125C359.3494,198.974411453125,361.86963,198.782610853125,365.75,198.875000753125Z" fill="#575858" fill-opacity="1" style="mix-blend-mode:passthrough"/></g><g><path d="M321.1250039160156,172C324.4629639160156,173.16102,325.46146391601565,173.83748,326.99996391601564,177C327.49996391601564,180,327.49996391601564,180,326.99996391601564,183C324.87496391601564,185.4375,324.87496391601564,185.4375,322.0000039160156,187C318.8159039160156,186.9363,316.85067391601564,186.5104,314.1250039160156,184.875C312.2769079160156,181.79485,312.5093929160156,179.49558,312.9999999160156,176C315.66553391601565,172.86408,316.9875239160156,172,321.1250039160156,172Z" fill="#F7F8F8" fill-opacity="1" style="mix-blend-mode:passthrough"/></g><g><path d="M264,308.99999697070314C266,310.99999497070314,266,310.99999497070314,266.3125,314.93749497070314C266.2308,317.4379149707031,266.1211,318.7720449707031,264.9375,321.00004497070313C261.78137,322.6289449707031,259.47849,322.48824497070314,256,322.00004497070313C253.5,319.87504497070313,253.5,319.87504497070313,252,316.99999497070314C252,313.4926649707031,252.365491,311.75652497070314,254.625,309.06249697070314C258.0475,307.53137697070315,260.41677,308.1373669707031,264,308.99999697070314Z" fill="#F9FAFA" fill-opacity="1" style="mix-blend-mode:passthrough"/></g><g><path d="M203.875,315.625C207,316,207,316,209.4375,317.625C211,320,211,320,210.875,323.125C210,326,210,326,208,328C204.5625,328.375,204.5625,328.375,201,328C199,326.375,199,326.375,198,324C198.286551,319.22416,198.67934,316.302695,203.875,315.625Z" fill="#F6F7F7" fill-opacity="1" style="mix-blend-mode:passthrough"/></g><g><path d="M284,324C286.4375,324.25,286.4375,324.25,289,325C289.66,325.99,290.32,326.98,291,328C292.32,328,293.64,328,295,328C294.34,329.65,293.68,331.3,293,333C294.65,333,296.3,333,298,333C296.6386,338.1982,294.5327,341.0954,291,345C290.34,344.34,289.68,343.68,289,343C289.99,342.01,290.98,341.02,292,340C291.34,339.67,290.68,339.34,290,339C290.33,338.01,290.66,337.02,291,336C290.34,335.34,289.68,334.68,289,334C289.33,333.34,289.66,332.68,290,332C289.05125,332.04125,288.1025,332.0825,287.125,332.125C284,332,284,332,282,330C282.555556,325.44444,282.555556,325.44444,284,324Z" fill="#7B7B7D" fill-opacity="1" style="mix-blend-mode:passthrough"/></g><g><path d="M306,211C306.66,211,307.32,211,308,211C309.1578,214.47325,309.0687,217.36067,309,221C307.33389999999997,221.0427,305.6662,221.0406,304,221C303.67,220.67,303.34,220.34,303,220C302.34,219.67,301.68,219.34,301,219C300.60813,219.495,300.21625,219.99,299.8125,220.5C297.44908,222.45589999999999,295.98565,222.2421,293,222C292.34,220.35,291.68,218.7,291,217C292,215.5625,292,215.5625,294,214C298.14061,213.27704,301.7977,213,306,213C306,212.34,306,211.68,306,211Z" fill="#797A7B" fill-opacity="1" style="mix-blend-mode:passthrough"/></g><g><path d="M325,145C327.97,145.495,327.97,145.495,331,146C331.33,146.99,331.66,147.98,332,149C331.01,149.33,330.02,149.66,329,150C329.66,150.66,330.32,151.32,331,152C330.34,152.66,329.68,153.32,329,154C329.66,154.33,330.32,154.66,331,155C330.34,157.31,329.68,159.62,329,162C327.02,162.32999999999998,325.04,162.66,323,163C321.875,160.6875,321.875,160.6875,321,158C321.66,157.01,322.32,156.02,323,155C324.32,155,325.64,155,327,155C326.67,154.34,326.34,153.68,326,153C325.38125,153.18563,324.7625,153.37125,324.125,153.5625C322,154,322,154,320,153C321.65,150.36,323.3,147.72,325,145Z" fill="#7E7E80" fill-opacity="1" style="mix-blend-mode:passthrough"/></g><g><path d="M370,215C371.67543,215.286049,373.34385,215.617812,375,216C375.9812,219.05264,375.9812,220.94736,375,224C377.78114,226.3339,377.78114,226.3339,380.6875,225.625C381.4506,225.4187,382.2137,225.2125,383,225C380.3975,228.6628,378.4767,230.9669,374,232C373.01,231.34,372.02,230.68,371,230C371.33,229.01,371.66,228.02,372,227C371.34,226.34,370.68,225.68,370,225C370.66,224.67,371.32,224.34,372,224C370.68,223.01,369.36,222.02,368,221C368.875,216.125,368.875,216.125,370,215Z" fill="#848486" fill-opacity="1" style="mix-blend-mode:passthrough"/></g><g><path d="M349.43750706054686,325.6875C352.00000706054686,326,352.00000706054686,326,353.81250706054686,327.125C355.52848706054687,329.83446,355.33378706054685,331.86296,354.99998706054686,335C353.00000706054686,337,353.00000706054686,337,350.06250706054686,337.3125C347.00000706054686,337,347.00000706054686,337,345.06251006054686,335.875C344.0000104605469,334,344.0000104605469,334,344.1875104605469,330.9375C345.1596470605469,327.42286,345.7288970605469,326.162963,349.43750706054686,325.6875Z" fill="#1F1F1F" fill-opacity="1" style="mix-blend-mode:passthrough"/></g><g><path d="M147.4374918017578,309.6875C149.9999918017578,310,149.9999918017578,310,151.8124918017578,311.125C153.5284718017578,313.83446,153.33377180175782,315.86296,152.99997180175782,319C150.9999918017578,321,150.9999918017578,321,148.0624918017578,321.3125C144.9999918017578,321,144.9999918017578,321,143.06249480175782,319.875C141.99999520175783,318,141.99999520175783,318,142.18749520175783,314.9375C143.15963180175783,311.42286,143.7288818017578,310.162963,147.4374918017578,309.6875Z" fill="#232323" fill-opacity="1" style="mix-blend-mode:passthrough"/></g><g><path d="M131,235.00000507617187C132.1875,237.75000307617188,132.1875,237.75000307617188,133,241.00000307617188C132,243.37500307617188,132,243.37500307617188,130,245.00005307617187C126.9375,245.37505307617187,126.9375,245.37505307617187,124,245.00005307617187C122,243.00000307617188,122,243.00000307617188,121.6875,240.06250307617188C122,237.00000307617188,122,237.00000307617188,123.125,235.06250507617187C125.9267,233.47487507617188,127.96986,234.25930307617188,131,235.00000507617187Z" fill="#232324" fill-opacity="1" style="mix-blend-mode:passthrough"/></g><g><path d="M380.49999409179685,277.75C382.99999409179685,278,382.99999409179685,278,384.99999409179685,280C385.24994409179686,283,385.24994409179686,283,384.99999409179685,286C382.99999409179685,288,382.99999409179685,288,379.99999409179685,288.3125C379.0099940917969,288.2094,378.0199940917969,288.1062,376.99999409179685,288C374.99998909179686,285,374.99998909179686,285,375.24998909179686,282.4375C376.2590040917969,279.15819,377.02570409179685,278.097429,380.49999409179685,277.75Z" fill="#222222" fill-opacity="1" style="mix-blend-mode:passthrough"/></g><g><path d="M281.625008828125,307.24998628515624C284.000008828125,307.99998628515624,284.000008828125,307.99998628515624,285.000008828125,308.99998228515625C285.250008828125,311.93748228515625,285.250008828125,311.93748228515625,285.000008828125,314.99998228515625C282.000008828125,316.99998228515625,282.000008828125,316.99998228515625,279.312508828125,316.62498228515625C278.549378828125,316.41873228515624,277.786258828125,316.2124822851562,277.000007828125,315.99998228515625C275.671597828125,310.56558228515627,275.671597828125,310.56558228515627,277.125008828125,308.06248628515624C279.000008828125,306.99998628515624,279.000008828125,306.99998628515624,281.625008828125,307.24998628515624Z" fill="#F6F6F7" fill-opacity="1" style="mix-blend-mode:passthrough"/></g><g><path d="M341.3750024609375,161.75C344.0000024609375,162,344.0000024609375,162,345.8750024609375,163.1875C347.0000024609375,165,347.0000024609375,165,346.7500024609375,167.625C346.0000024609375,170,346.0000024609375,170,345.0000024609375,171C342.0625024609375,171.25,342.0625024609375,171.25,339.0000024609375,171C337.0000044609375,168,337.0000044609375,168,337.3125044609375,165.375C338.2671424609375,162.077143,338.2671424609375,162.077143,341.3750024609375,161.75Z" fill="#F5F5F5" fill-opacity="1" style="mix-blend-mode:passthrough"/></g></g></svg>